G04 #@! TF.GenerationSoftware,KiCad,Pcbnew,5.0.0-fee4fd1~66~ubuntu16.04.1*
G04 #@! TF.CreationDate,2018-10-02T23:40:20+08:00*
G04 #@! TF.ProjectId,SubSequence,53756253657175656E63652E6B696361,rev?*
G04 #@! TF.SameCoordinates,Original*
G04 #@! TF.FileFunction,Legend,Top*
G04 #@! TF.FilePolarity,Positive*
%FSLAX46Y46*%
G04 Gerber Fmt 4.6, Leading zero omitted, Abs format (unit mm)*
G04 Created by KiCad (PCBNEW 5.0.0-fee4fd1~66~ubuntu16.04.1) date Tue Oct  2 23:40:20 2018*
%MOMM*%
%LPD*%
G01*
G04 APERTURE LIST*
%ADD10C,0.120000*%
%ADD11C,0.150000*%
G04 APERTURE END LIST*
D10*
G04 #@! TO.C,SW1*
X153149560Y-128560880D02*
X151649560Y-128560880D01*
X149149560Y-129810880D02*
X149149560Y-134310880D01*
X151649560Y-135560880D02*
X153149560Y-135560880D01*
X155649560Y-134310880D02*
X155649560Y-129810880D01*
G04 #@! TO.C,C1*
X151980000Y-96004000D02*
X151980000Y-95004000D01*
X150280000Y-95004000D02*
X150280000Y-96004000D01*
G04 #@! TO.C,C2*
X152820000Y-95004000D02*
X152820000Y-96004000D01*
X154520000Y-96004000D02*
X154520000Y-95004000D01*
G04 #@! TO.C,D8*
X143318608Y-75332335D02*
G75*
G03X143475516Y-72100000I-1078608J1672335D01*
G01*
X141161392Y-75332335D02*
G75*
G02X141004484Y-72100000I1078608J1672335D01*
G01*
X143319837Y-74701130D02*
G75*
G03X143320000Y-72619039I-1079837J1041130D01*
G01*
X141160163Y-74701130D02*
G75*
G02X141160000Y-72619039I1079837J1041130D01*
G01*
X143476000Y-72100000D02*
X143320000Y-72100000D01*
X141160000Y-72100000D02*
X141004000Y-72100000D01*
G04 #@! TO.C,D7*
X141160000Y-59400000D02*
X141004000Y-59400000D01*
X143476000Y-59400000D02*
X143320000Y-59400000D01*
X141160163Y-62001130D02*
G75*
G02X141160000Y-59919039I1079837J1041130D01*
G01*
X143319837Y-62001130D02*
G75*
G03X143320000Y-59919039I-1079837J1041130D01*
G01*
X141161392Y-62632335D02*
G75*
G02X141004484Y-59400000I1078608J1672335D01*
G01*
X143318608Y-62632335D02*
G75*
G03X143475516Y-59400000I-1078608J1672335D01*
G01*
G04 #@! TO.C,D6*
X122998608Y-75332335D02*
G75*
G03X123155516Y-72100000I-1078608J1672335D01*
G01*
X120841392Y-75332335D02*
G75*
G02X120684484Y-72100000I1078608J1672335D01*
G01*
X122999837Y-74701130D02*
G75*
G03X123000000Y-72619039I-1079837J1041130D01*
G01*
X120840163Y-74701130D02*
G75*
G02X120840000Y-72619039I1079837J1041130D01*
G01*
X123156000Y-72100000D02*
X123000000Y-72100000D01*
X120840000Y-72100000D02*
X120684000Y-72100000D01*
G04 #@! TO.C,D5*
X120840000Y-59400000D02*
X120684000Y-59400000D01*
X123156000Y-59400000D02*
X123000000Y-59400000D01*
X120840163Y-62001130D02*
G75*
G02X120840000Y-59919039I1079837J1041130D01*
G01*
X122999837Y-62001130D02*
G75*
G03X123000000Y-59919039I-1079837J1041130D01*
G01*
X120841392Y-62632335D02*
G75*
G02X120684484Y-59400000I1078608J1672335D01*
G01*
X122998608Y-62632335D02*
G75*
G03X123155516Y-59400000I-1078608J1672335D01*
G01*
G04 #@! TO.C,D3*
X183958608Y-75332335D02*
G75*
G03X184115516Y-72100000I-1078608J1672335D01*
G01*
X181801392Y-75332335D02*
G75*
G02X181644484Y-72100000I1078608J1672335D01*
G01*
X183959837Y-74701130D02*
G75*
G03X183960000Y-72619039I-1079837J1041130D01*
G01*
X181800163Y-74701130D02*
G75*
G02X181800000Y-72619039I1079837J1041130D01*
G01*
X184116000Y-72100000D02*
X183960000Y-72100000D01*
X181800000Y-72100000D02*
X181644000Y-72100000D01*
G04 #@! TO.C,D2*
X161480000Y-72100000D02*
X161324000Y-72100000D01*
X163796000Y-72100000D02*
X163640000Y-72100000D01*
X161480163Y-74701130D02*
G75*
G02X161480000Y-72619039I1079837J1041130D01*
G01*
X163639837Y-74701130D02*
G75*
G03X163640000Y-72619039I-1079837J1041130D01*
G01*
X161481392Y-75332335D02*
G75*
G02X161324484Y-72100000I1078608J1672335D01*
G01*
X163638608Y-75332335D02*
G75*
G03X163795516Y-72100000I-1078608J1672335D01*
G01*
G04 #@! TO.C,D1*
X163638608Y-62632335D02*
G75*
G03X163795516Y-59400000I-1078608J1672335D01*
G01*
X161481392Y-62632335D02*
G75*
G02X161324484Y-59400000I1078608J1672335D01*
G01*
X163639837Y-62001130D02*
G75*
G03X163640000Y-59919039I-1079837J1041130D01*
G01*
X161480163Y-62001130D02*
G75*
G02X161480000Y-59919039I1079837J1041130D01*
G01*
X163796000Y-59400000D02*
X163640000Y-59400000D01*
X161480000Y-59400000D02*
X161324000Y-59400000D01*
G04 #@! TO.C,D4*
X181800000Y-59400000D02*
X181644000Y-59400000D01*
X184116000Y-59400000D02*
X183960000Y-59400000D01*
X181800163Y-62001130D02*
G75*
G02X181800000Y-59919039I1079837J1041130D01*
G01*
X183959837Y-62001130D02*
G75*
G03X183960000Y-59919039I-1079837J1041130D01*
G01*
X181801392Y-62632335D02*
G75*
G02X181644484Y-59400000I1078608J1672335D01*
G01*
X183958608Y-62632335D02*
G75*
G03X184115516Y-59400000I-1078608J1672335D01*
G01*
G04 #@! TO.C,RV3*
X137259000Y-148980000D02*
X137259000Y-145043000D01*
X137259000Y-140676000D02*
X137259000Y-136740000D01*
X147300000Y-148980000D02*
X147300000Y-145043000D01*
X147300000Y-140676000D02*
X147300000Y-136740000D01*
X137259000Y-148980000D02*
X138909000Y-148980000D01*
X140651000Y-148980000D02*
X141410000Y-148980000D01*
X143151000Y-148980000D02*
X143910000Y-148980000D01*
X145650000Y-148980000D02*
X147300000Y-148980000D01*
X137259000Y-136740000D02*
X147300000Y-136740000D01*
G04 #@! TO.C,RV5*
X116939000Y-136740000D02*
X126980000Y-136740000D01*
X125330000Y-148980000D02*
X126980000Y-148980000D01*
X122831000Y-148980000D02*
X123590000Y-148980000D01*
X120331000Y-148980000D02*
X121090000Y-148980000D01*
X116939000Y-148980000D02*
X118589000Y-148980000D01*
X126980000Y-140676000D02*
X126980000Y-136740000D01*
X126980000Y-148980000D02*
X126980000Y-145043000D01*
X116939000Y-140676000D02*
X116939000Y-136740000D01*
X116939000Y-148980000D02*
X116939000Y-145043000D01*
G04 #@! TO.C,RV1*
X157579000Y-128660000D02*
X157579000Y-124723000D01*
X157579000Y-120356000D02*
X157579000Y-116420000D01*
X167620000Y-128660000D02*
X167620000Y-124723000D01*
X167620000Y-120356000D02*
X167620000Y-116420000D01*
X157579000Y-128660000D02*
X159229000Y-128660000D01*
X160971000Y-128660000D02*
X161730000Y-128660000D01*
X163471000Y-128660000D02*
X164230000Y-128660000D01*
X165970000Y-128660000D02*
X167620000Y-128660000D01*
X157579000Y-116420000D02*
X167620000Y-116420000D01*
G04 #@! TO.C,RV2*
X157579000Y-136740000D02*
X167620000Y-136740000D01*
X165970000Y-148980000D02*
X167620000Y-148980000D01*
X163471000Y-148980000D02*
X164230000Y-148980000D01*
X160971000Y-148980000D02*
X161730000Y-148980000D01*
X157579000Y-148980000D02*
X159229000Y-148980000D01*
X167620000Y-140676000D02*
X167620000Y-136740000D01*
X167620000Y-148980000D02*
X167620000Y-145043000D01*
X157579000Y-140676000D02*
X157579000Y-136740000D01*
X157579000Y-148980000D02*
X157579000Y-145043000D01*
G04 #@! TO.C,RV4*
X137259000Y-128660000D02*
X137259000Y-124723000D01*
X137259000Y-120356000D02*
X137259000Y-116420000D01*
X147300000Y-128660000D02*
X147300000Y-124723000D01*
X147300000Y-120356000D02*
X147300000Y-116420000D01*
X137259000Y-128660000D02*
X138909000Y-128660000D01*
X140651000Y-128660000D02*
X141410000Y-128660000D01*
X143151000Y-128660000D02*
X143910000Y-128660000D01*
X145650000Y-128660000D02*
X147300000Y-128660000D01*
X137259000Y-116420000D02*
X147300000Y-116420000D01*
G04 #@! TO.C,RV6*
X116939000Y-116420000D02*
X126980000Y-116420000D01*
X125330000Y-128660000D02*
X126980000Y-128660000D01*
X122831000Y-128660000D02*
X123590000Y-128660000D01*
X120331000Y-128660000D02*
X121090000Y-128660000D01*
X116939000Y-128660000D02*
X118589000Y-128660000D01*
X126980000Y-120356000D02*
X126980000Y-116420000D01*
X126980000Y-128660000D02*
X126980000Y-124723000D01*
X116939000Y-120356000D02*
X116939000Y-116420000D01*
X116939000Y-128660000D02*
X116939000Y-124723000D01*
G04 #@! TO.C,RV7*
X177899000Y-128660000D02*
X177899000Y-124723000D01*
X177899000Y-120356000D02*
X177899000Y-116420000D01*
X187940000Y-128660000D02*
X187940000Y-124723000D01*
X187940000Y-120356000D02*
X187940000Y-116420000D01*
X177899000Y-128660000D02*
X179549000Y-128660000D01*
X181291000Y-128660000D02*
X182050000Y-128660000D01*
X183791000Y-128660000D02*
X184550000Y-128660000D01*
X186290000Y-128660000D02*
X187940000Y-128660000D01*
X177899000Y-116420000D02*
X187940000Y-116420000D01*
G04 #@! TO.C,RV8*
X177899000Y-136740000D02*
X187940000Y-136740000D01*
X186290000Y-148980000D02*
X187940000Y-148980000D01*
X183791000Y-148980000D02*
X184550000Y-148980000D01*
X181291000Y-148980000D02*
X182050000Y-148980000D01*
X177899000Y-148980000D02*
X179549000Y-148980000D01*
X187940000Y-140676000D02*
X187940000Y-136740000D01*
X187940000Y-148980000D02*
X187940000Y-145043000D01*
X177899000Y-140676000D02*
X177899000Y-136740000D01*
X177899000Y-148980000D02*
X177899000Y-145043000D01*
G04 #@! TO.C,SW1*
D11*
X151320666Y-138580761D02*
X151463523Y-138628380D01*
X151701619Y-138628380D01*
X151796857Y-138580761D01*
X151844476Y-138533142D01*
X151892095Y-138437904D01*
X151892095Y-138342666D01*
X151844476Y-138247428D01*
X151796857Y-138199809D01*
X151701619Y-138152190D01*
X151511142Y-138104571D01*
X151415904Y-138056952D01*
X151368285Y-138009333D01*
X151320666Y-137914095D01*
X151320666Y-137818857D01*
X151368285Y-137723619D01*
X151415904Y-137676000D01*
X151511142Y-137628380D01*
X151749238Y-137628380D01*
X151892095Y-137676000D01*
X152225428Y-137628380D02*
X152463523Y-138628380D01*
X152654000Y-137914095D01*
X152844476Y-138628380D01*
X153082571Y-137628380D01*
X153987333Y-138628380D02*
X153415904Y-138628380D01*
X153701619Y-138628380D02*
X153701619Y-137628380D01*
X153606380Y-137771238D01*
X153511142Y-137866476D01*
X153415904Y-137914095D01*
G04 #@! TO.C,C1*
X149987142Y-95670666D02*
X150034761Y-95718285D01*
X150082380Y-95861142D01*
X150082380Y-95956380D01*
X150034761Y-96099238D01*
X149939523Y-96194476D01*
X149844285Y-96242095D01*
X149653809Y-96289714D01*
X149510952Y-96289714D01*
X149320476Y-96242095D01*
X149225238Y-96194476D01*
X149130000Y-96099238D01*
X149082380Y-95956380D01*
X149082380Y-95861142D01*
X149130000Y-95718285D01*
X149177619Y-95670666D01*
X150082380Y-94718285D02*
X150082380Y-95289714D01*
X150082380Y-95004000D02*
X149082380Y-95004000D01*
X149225238Y-95099238D01*
X149320476Y-95194476D01*
X149368095Y-95289714D01*
G04 #@! TO.C,C2*
X152527142Y-95670666D02*
X152574761Y-95718285D01*
X152622380Y-95861142D01*
X152622380Y-95956380D01*
X152574761Y-96099238D01*
X152479523Y-96194476D01*
X152384285Y-96242095D01*
X152193809Y-96289714D01*
X152050952Y-96289714D01*
X151860476Y-96242095D01*
X151765238Y-96194476D01*
X151670000Y-96099238D01*
X151622380Y-95956380D01*
X151622380Y-95861142D01*
X151670000Y-95718285D01*
X151717619Y-95670666D01*
X151717619Y-95289714D02*
X151670000Y-95242095D01*
X151622380Y-95146857D01*
X151622380Y-94908761D01*
X151670000Y-94813523D01*
X151717619Y-94765904D01*
X151812857Y-94718285D01*
X151908095Y-94718285D01*
X152050952Y-94765904D01*
X152622380Y-95337333D01*
X152622380Y-94718285D01*
G04 #@! TO.C,D8*
X141501904Y-77668380D02*
X141501904Y-76668380D01*
X141740000Y-76668380D01*
X141882857Y-76716000D01*
X141978095Y-76811238D01*
X142025714Y-76906476D01*
X142073333Y-77096952D01*
X142073333Y-77239809D01*
X142025714Y-77430285D01*
X141978095Y-77525523D01*
X141882857Y-77620761D01*
X141740000Y-77668380D01*
X141501904Y-77668380D01*
X142644761Y-77096952D02*
X142549523Y-77049333D01*
X142501904Y-77001714D01*
X142454285Y-76906476D01*
X142454285Y-76858857D01*
X142501904Y-76763619D01*
X142549523Y-76716000D01*
X142644761Y-76668380D01*
X142835238Y-76668380D01*
X142930476Y-76716000D01*
X142978095Y-76763619D01*
X143025714Y-76858857D01*
X143025714Y-76906476D01*
X142978095Y-77001714D01*
X142930476Y-77049333D01*
X142835238Y-77096952D01*
X142644761Y-77096952D01*
X142549523Y-77144571D01*
X142501904Y-77192190D01*
X142454285Y-77287428D01*
X142454285Y-77477904D01*
X142501904Y-77573142D01*
X142549523Y-77620761D01*
X142644761Y-77668380D01*
X142835238Y-77668380D01*
X142930476Y-77620761D01*
X142978095Y-77573142D01*
X143025714Y-77477904D01*
X143025714Y-77287428D01*
X142978095Y-77192190D01*
X142930476Y-77144571D01*
X142835238Y-77096952D01*
G04 #@! TO.C,D7*
X141501904Y-64968380D02*
X141501904Y-63968380D01*
X141740000Y-63968380D01*
X141882857Y-64016000D01*
X141978095Y-64111238D01*
X142025714Y-64206476D01*
X142073333Y-64396952D01*
X142073333Y-64539809D01*
X142025714Y-64730285D01*
X141978095Y-64825523D01*
X141882857Y-64920761D01*
X141740000Y-64968380D01*
X141501904Y-64968380D01*
X142406666Y-63968380D02*
X143073333Y-63968380D01*
X142644761Y-64968380D01*
G04 #@! TO.C,D6*
X121181904Y-77668380D02*
X121181904Y-76668380D01*
X121420000Y-76668380D01*
X121562857Y-76716000D01*
X121658095Y-76811238D01*
X121705714Y-76906476D01*
X121753333Y-77096952D01*
X121753333Y-77239809D01*
X121705714Y-77430285D01*
X121658095Y-77525523D01*
X121562857Y-77620761D01*
X121420000Y-77668380D01*
X121181904Y-77668380D01*
X122610476Y-76668380D02*
X122420000Y-76668380D01*
X122324761Y-76716000D01*
X122277142Y-76763619D01*
X122181904Y-76906476D01*
X122134285Y-77096952D01*
X122134285Y-77477904D01*
X122181904Y-77573142D01*
X122229523Y-77620761D01*
X122324761Y-77668380D01*
X122515238Y-77668380D01*
X122610476Y-77620761D01*
X122658095Y-77573142D01*
X122705714Y-77477904D01*
X122705714Y-77239809D01*
X122658095Y-77144571D01*
X122610476Y-77096952D01*
X122515238Y-77049333D01*
X122324761Y-77049333D01*
X122229523Y-77096952D01*
X122181904Y-77144571D01*
X122134285Y-77239809D01*
G04 #@! TO.C,D5*
X121131104Y-65069980D02*
X121131104Y-64069980D01*
X121369200Y-64069980D01*
X121512057Y-64117600D01*
X121607295Y-64212838D01*
X121654914Y-64308076D01*
X121702533Y-64498552D01*
X121702533Y-64641409D01*
X121654914Y-64831885D01*
X121607295Y-64927123D01*
X121512057Y-65022361D01*
X121369200Y-65069980D01*
X121131104Y-65069980D01*
X122607295Y-64069980D02*
X122131104Y-64069980D01*
X122083485Y-64546171D01*
X122131104Y-64498552D01*
X122226342Y-64450933D01*
X122464438Y-64450933D01*
X122559676Y-64498552D01*
X122607295Y-64546171D01*
X122654914Y-64641409D01*
X122654914Y-64879504D01*
X122607295Y-64974742D01*
X122559676Y-65022361D01*
X122464438Y-65069980D01*
X122226342Y-65069980D01*
X122131104Y-65022361D01*
X122083485Y-64974742D01*
G04 #@! TO.C,D3*
X182141904Y-77668380D02*
X182141904Y-76668380D01*
X182380000Y-76668380D01*
X182522857Y-76716000D01*
X182618095Y-76811238D01*
X182665714Y-76906476D01*
X182713333Y-77096952D01*
X182713333Y-77239809D01*
X182665714Y-77430285D01*
X182618095Y-77525523D01*
X182522857Y-77620761D01*
X182380000Y-77668380D01*
X182141904Y-77668380D01*
X183046666Y-76668380D02*
X183665714Y-76668380D01*
X183332380Y-77049333D01*
X183475238Y-77049333D01*
X183570476Y-77096952D01*
X183618095Y-77144571D01*
X183665714Y-77239809D01*
X183665714Y-77477904D01*
X183618095Y-77573142D01*
X183570476Y-77620761D01*
X183475238Y-77668380D01*
X183189523Y-77668380D01*
X183094285Y-77620761D01*
X183046666Y-77573142D01*
G04 #@! TO.C,D2*
X161821904Y-77668380D02*
X161821904Y-76668380D01*
X162060000Y-76668380D01*
X162202857Y-76716000D01*
X162298095Y-76811238D01*
X162345714Y-76906476D01*
X162393333Y-77096952D01*
X162393333Y-77239809D01*
X162345714Y-77430285D01*
X162298095Y-77525523D01*
X162202857Y-77620761D01*
X162060000Y-77668380D01*
X161821904Y-77668380D01*
X162774285Y-76763619D02*
X162821904Y-76716000D01*
X162917142Y-76668380D01*
X163155238Y-76668380D01*
X163250476Y-76716000D01*
X163298095Y-76763619D01*
X163345714Y-76858857D01*
X163345714Y-76954095D01*
X163298095Y-77096952D01*
X162726666Y-77668380D01*
X163345714Y-77668380D01*
G04 #@! TO.C,D1*
X161821904Y-64968380D02*
X161821904Y-63968380D01*
X162060000Y-63968380D01*
X162202857Y-64016000D01*
X162298095Y-64111238D01*
X162345714Y-64206476D01*
X162393333Y-64396952D01*
X162393333Y-64539809D01*
X162345714Y-64730285D01*
X162298095Y-64825523D01*
X162202857Y-64920761D01*
X162060000Y-64968380D01*
X161821904Y-64968380D01*
X163345714Y-64968380D02*
X162774285Y-64968380D01*
X163060000Y-64968380D02*
X163060000Y-63968380D01*
X162964761Y-64111238D01*
X162869523Y-64206476D01*
X162774285Y-64254095D01*
G04 #@! TO.C,D4*
X182141904Y-64968380D02*
X182141904Y-63968380D01*
X182380000Y-63968380D01*
X182522857Y-64016000D01*
X182618095Y-64111238D01*
X182665714Y-64206476D01*
X182713333Y-64396952D01*
X182713333Y-64539809D01*
X182665714Y-64730285D01*
X182618095Y-64825523D01*
X182522857Y-64920761D01*
X182380000Y-64968380D01*
X182141904Y-64968380D01*
X183570476Y-64301714D02*
X183570476Y-64968380D01*
X183332380Y-63920761D02*
X183094285Y-64635047D01*
X183713333Y-64635047D01*
G04 #@! TO.C,RV3*
X141644761Y-153360380D02*
X141311428Y-152884190D01*
X141073333Y-153360380D02*
X141073333Y-152360380D01*
X141454285Y-152360380D01*
X141549523Y-152408000D01*
X141597142Y-152455619D01*
X141644761Y-152550857D01*
X141644761Y-152693714D01*
X141597142Y-152788952D01*
X141549523Y-152836571D01*
X141454285Y-152884190D01*
X141073333Y-152884190D01*
X141930476Y-152360380D02*
X142263809Y-153360380D01*
X142597142Y-152360380D01*
X142835238Y-152360380D02*
X143454285Y-152360380D01*
X143120952Y-152741333D01*
X143263809Y-152741333D01*
X143359047Y-152788952D01*
X143406666Y-152836571D01*
X143454285Y-152931809D01*
X143454285Y-153169904D01*
X143406666Y-153265142D01*
X143359047Y-153312761D01*
X143263809Y-153360380D01*
X142978095Y-153360380D01*
X142882857Y-153312761D01*
X142835238Y-153265142D01*
G04 #@! TO.C,RV5*
X121324761Y-153360380D02*
X120991428Y-152884190D01*
X120753333Y-153360380D02*
X120753333Y-152360380D01*
X121134285Y-152360380D01*
X121229523Y-152408000D01*
X121277142Y-152455619D01*
X121324761Y-152550857D01*
X121324761Y-152693714D01*
X121277142Y-152788952D01*
X121229523Y-152836571D01*
X121134285Y-152884190D01*
X120753333Y-152884190D01*
X121610476Y-152360380D02*
X121943809Y-153360380D01*
X122277142Y-152360380D01*
X123086666Y-152360380D02*
X122610476Y-152360380D01*
X122562857Y-152836571D01*
X122610476Y-152788952D01*
X122705714Y-152741333D01*
X122943809Y-152741333D01*
X123039047Y-152788952D01*
X123086666Y-152836571D01*
X123134285Y-152931809D01*
X123134285Y-153169904D01*
X123086666Y-153265142D01*
X123039047Y-153312761D01*
X122943809Y-153360380D01*
X122705714Y-153360380D01*
X122610476Y-153312761D01*
X122562857Y-153265142D01*
G04 #@! TO.C,RV1*
X161964761Y-133040380D02*
X161631428Y-132564190D01*
X161393333Y-133040380D02*
X161393333Y-132040380D01*
X161774285Y-132040380D01*
X161869523Y-132088000D01*
X161917142Y-132135619D01*
X161964761Y-132230857D01*
X161964761Y-132373714D01*
X161917142Y-132468952D01*
X161869523Y-132516571D01*
X161774285Y-132564190D01*
X161393333Y-132564190D01*
X162250476Y-132040380D02*
X162583809Y-133040380D01*
X162917142Y-132040380D01*
X163774285Y-133040380D02*
X163202857Y-133040380D01*
X163488571Y-133040380D02*
X163488571Y-132040380D01*
X163393333Y-132183238D01*
X163298095Y-132278476D01*
X163202857Y-132326095D01*
G04 #@! TO.C,RV2*
X161964761Y-153360380D02*
X161631428Y-152884190D01*
X161393333Y-153360380D02*
X161393333Y-152360380D01*
X161774285Y-152360380D01*
X161869523Y-152408000D01*
X161917142Y-152455619D01*
X161964761Y-152550857D01*
X161964761Y-152693714D01*
X161917142Y-152788952D01*
X161869523Y-152836571D01*
X161774285Y-152884190D01*
X161393333Y-152884190D01*
X162250476Y-152360380D02*
X162583809Y-153360380D01*
X162917142Y-152360380D01*
X163202857Y-152455619D02*
X163250476Y-152408000D01*
X163345714Y-152360380D01*
X163583809Y-152360380D01*
X163679047Y-152408000D01*
X163726666Y-152455619D01*
X163774285Y-152550857D01*
X163774285Y-152646095D01*
X163726666Y-152788952D01*
X163155238Y-153360380D01*
X163774285Y-153360380D01*
G04 #@! TO.C,RV4*
X141644761Y-133040380D02*
X141311428Y-132564190D01*
X141073333Y-133040380D02*
X141073333Y-132040380D01*
X141454285Y-132040380D01*
X141549523Y-132088000D01*
X141597142Y-132135619D01*
X141644761Y-132230857D01*
X141644761Y-132373714D01*
X141597142Y-132468952D01*
X141549523Y-132516571D01*
X141454285Y-132564190D01*
X141073333Y-132564190D01*
X141930476Y-132040380D02*
X142263809Y-133040380D01*
X142597142Y-132040380D01*
X143359047Y-132373714D02*
X143359047Y-133040380D01*
X143120952Y-131992761D02*
X142882857Y-132707047D01*
X143501904Y-132707047D01*
G04 #@! TO.C,RV6*
X121324761Y-133040380D02*
X120991428Y-132564190D01*
X120753333Y-133040380D02*
X120753333Y-132040380D01*
X121134285Y-132040380D01*
X121229523Y-132088000D01*
X121277142Y-132135619D01*
X121324761Y-132230857D01*
X121324761Y-132373714D01*
X121277142Y-132468952D01*
X121229523Y-132516571D01*
X121134285Y-132564190D01*
X120753333Y-132564190D01*
X121610476Y-132040380D02*
X121943809Y-133040380D01*
X122277142Y-132040380D01*
X123039047Y-132040380D02*
X122848571Y-132040380D01*
X122753333Y-132088000D01*
X122705714Y-132135619D01*
X122610476Y-132278476D01*
X122562857Y-132468952D01*
X122562857Y-132849904D01*
X122610476Y-132945142D01*
X122658095Y-132992761D01*
X122753333Y-133040380D01*
X122943809Y-133040380D01*
X123039047Y-132992761D01*
X123086666Y-132945142D01*
X123134285Y-132849904D01*
X123134285Y-132611809D01*
X123086666Y-132516571D01*
X123039047Y-132468952D01*
X122943809Y-132421333D01*
X122753333Y-132421333D01*
X122658095Y-132468952D01*
X122610476Y-132516571D01*
X122562857Y-132611809D01*
G04 #@! TO.C,RV7*
X182284761Y-133040380D02*
X181951428Y-132564190D01*
X181713333Y-133040380D02*
X181713333Y-132040380D01*
X182094285Y-132040380D01*
X182189523Y-132088000D01*
X182237142Y-132135619D01*
X182284761Y-132230857D01*
X182284761Y-132373714D01*
X182237142Y-132468952D01*
X182189523Y-132516571D01*
X182094285Y-132564190D01*
X181713333Y-132564190D01*
X182570476Y-132040380D02*
X182903809Y-133040380D01*
X183237142Y-132040380D01*
X183475238Y-132040380D02*
X184141904Y-132040380D01*
X183713333Y-133040380D01*
G04 #@! TO.C,RV8*
X182284761Y-153360380D02*
X181951428Y-152884190D01*
X181713333Y-153360380D02*
X181713333Y-152360380D01*
X182094285Y-152360380D01*
X182189523Y-152408000D01*
X182237142Y-152455619D01*
X182284761Y-152550857D01*
X182284761Y-152693714D01*
X182237142Y-152788952D01*
X182189523Y-152836571D01*
X182094285Y-152884190D01*
X181713333Y-152884190D01*
X182570476Y-152360380D02*
X182903809Y-153360380D01*
X183237142Y-152360380D01*
X183713333Y-152788952D02*
X183618095Y-152741333D01*
X183570476Y-152693714D01*
X183522857Y-152598476D01*
X183522857Y-152550857D01*
X183570476Y-152455619D01*
X183618095Y-152408000D01*
X183713333Y-152360380D01*
X183903809Y-152360380D01*
X183999047Y-152408000D01*
X184046666Y-152455619D01*
X184094285Y-152550857D01*
X184094285Y-152598476D01*
X184046666Y-152693714D01*
X183999047Y-152741333D01*
X183903809Y-152788952D01*
X183713333Y-152788952D01*
X183618095Y-152836571D01*
X183570476Y-152884190D01*
X183522857Y-152979428D01*
X183522857Y-153169904D01*
X183570476Y-153265142D01*
X183618095Y-153312761D01*
X183713333Y-153360380D01*
X183903809Y-153360380D01*
X183999047Y-153312761D01*
X184046666Y-153265142D01*
X184094285Y-153169904D01*
X184094285Y-152979428D01*
X184046666Y-152884190D01*
X183999047Y-152836571D01*
X183903809Y-152788952D01*
G04 #@! TO.C,SW2*
X140906666Y-112164761D02*
X141049523Y-112212380D01*
X141287619Y-112212380D01*
X141382857Y-112164761D01*
X141430476Y-112117142D01*
X141478095Y-112021904D01*
X141478095Y-111926666D01*
X141430476Y-111831428D01*
X141382857Y-111783809D01*
X141287619Y-111736190D01*
X141097142Y-111688571D01*
X141001904Y-111640952D01*
X140954285Y-111593333D01*
X140906666Y-111498095D01*
X140906666Y-111402857D01*
X140954285Y-111307619D01*
X141001904Y-111260000D01*
X141097142Y-111212380D01*
X141335238Y-111212380D01*
X141478095Y-111260000D01*
X141811428Y-111212380D02*
X142049523Y-112212380D01*
X142240000Y-111498095D01*
X142430476Y-112212380D01*
X142668571Y-111212380D01*
X143001904Y-111307619D02*
X143049523Y-111260000D01*
X143144761Y-111212380D01*
X143382857Y-111212380D01*
X143478095Y-111260000D01*
X143525714Y-111307619D01*
X143573333Y-111402857D01*
X143573333Y-111498095D01*
X143525714Y-111640952D01*
X142954285Y-112212380D01*
X143573333Y-112212380D01*
G04 #@! TO.C,SW3*
X140906666Y-94130761D02*
X141049523Y-94178380D01*
X141287619Y-94178380D01*
X141382857Y-94130761D01*
X141430476Y-94083142D01*
X141478095Y-93987904D01*
X141478095Y-93892666D01*
X141430476Y-93797428D01*
X141382857Y-93749809D01*
X141287619Y-93702190D01*
X141097142Y-93654571D01*
X141001904Y-93606952D01*
X140954285Y-93559333D01*
X140906666Y-93464095D01*
X140906666Y-93368857D01*
X140954285Y-93273619D01*
X141001904Y-93226000D01*
X141097142Y-93178380D01*
X141335238Y-93178380D01*
X141478095Y-93226000D01*
X141811428Y-93178380D02*
X142049523Y-94178380D01*
X142240000Y-93464095D01*
X142430476Y-94178380D01*
X142668571Y-93178380D01*
X142954285Y-93178380D02*
X143573333Y-93178380D01*
X143240000Y-93559333D01*
X143382857Y-93559333D01*
X143478095Y-93606952D01*
X143525714Y-93654571D01*
X143573333Y-93749809D01*
X143573333Y-93987904D01*
X143525714Y-94083142D01*
X143478095Y-94130761D01*
X143382857Y-94178380D01*
X143097142Y-94178380D01*
X143001904Y-94130761D01*
X142954285Y-94083142D01*
G04 #@! TO.C,SW4*
X120586666Y-111910761D02*
X120729523Y-111958380D01*
X120967619Y-111958380D01*
X121062857Y-111910761D01*
X121110476Y-111863142D01*
X121158095Y-111767904D01*
X121158095Y-111672666D01*
X121110476Y-111577428D01*
X121062857Y-111529809D01*
X120967619Y-111482190D01*
X120777142Y-111434571D01*
X120681904Y-111386952D01*
X120634285Y-111339333D01*
X120586666Y-111244095D01*
X120586666Y-111148857D01*
X120634285Y-111053619D01*
X120681904Y-111006000D01*
X120777142Y-110958380D01*
X121015238Y-110958380D01*
X121158095Y-111006000D01*
X121491428Y-110958380D02*
X121729523Y-111958380D01*
X121920000Y-111244095D01*
X122110476Y-111958380D01*
X122348571Y-110958380D01*
X123158095Y-111291714D02*
X123158095Y-111958380D01*
X122920000Y-110910761D02*
X122681904Y-111625047D01*
X123300952Y-111625047D01*
G04 #@! TO.C,SW5*
X120586666Y-94384761D02*
X120729523Y-94432380D01*
X120967619Y-94432380D01*
X121062857Y-94384761D01*
X121110476Y-94337142D01*
X121158095Y-94241904D01*
X121158095Y-94146666D01*
X121110476Y-94051428D01*
X121062857Y-94003809D01*
X120967619Y-93956190D01*
X120777142Y-93908571D01*
X120681904Y-93860952D01*
X120634285Y-93813333D01*
X120586666Y-93718095D01*
X120586666Y-93622857D01*
X120634285Y-93527619D01*
X120681904Y-93480000D01*
X120777142Y-93432380D01*
X121015238Y-93432380D01*
X121158095Y-93480000D01*
X121491428Y-93432380D02*
X121729523Y-94432380D01*
X121920000Y-93718095D01*
X122110476Y-94432380D01*
X122348571Y-93432380D01*
X123205714Y-93432380D02*
X122729523Y-93432380D01*
X122681904Y-93908571D01*
X122729523Y-93860952D01*
X122824761Y-93813333D01*
X123062857Y-93813333D01*
X123158095Y-93860952D01*
X123205714Y-93908571D01*
X123253333Y-94003809D01*
X123253333Y-94241904D01*
X123205714Y-94337142D01*
X123158095Y-94384761D01*
X123062857Y-94432380D01*
X122824761Y-94432380D01*
X122729523Y-94384761D01*
X122681904Y-94337142D01*
G04 #@! TO.C,SW7*
X181546666Y-112164761D02*
X181689523Y-112212380D01*
X181927619Y-112212380D01*
X182022857Y-112164761D01*
X182070476Y-112117142D01*
X182118095Y-112021904D01*
X182118095Y-111926666D01*
X182070476Y-111831428D01*
X182022857Y-111783809D01*
X181927619Y-111736190D01*
X181737142Y-111688571D01*
X181641904Y-111640952D01*
X181594285Y-111593333D01*
X181546666Y-111498095D01*
X181546666Y-111402857D01*
X181594285Y-111307619D01*
X181641904Y-111260000D01*
X181737142Y-111212380D01*
X181975238Y-111212380D01*
X182118095Y-111260000D01*
X182451428Y-111212380D02*
X182689523Y-112212380D01*
X182880000Y-111498095D01*
X183070476Y-112212380D01*
X183308571Y-111212380D01*
X183594285Y-111212380D02*
X184260952Y-111212380D01*
X183832380Y-112212380D01*
G04 #@! TO.C,SW8*
X161226666Y-112164761D02*
X161369523Y-112212380D01*
X161607619Y-112212380D01*
X161702857Y-112164761D01*
X161750476Y-112117142D01*
X161798095Y-112021904D01*
X161798095Y-111926666D01*
X161750476Y-111831428D01*
X161702857Y-111783809D01*
X161607619Y-111736190D01*
X161417142Y-111688571D01*
X161321904Y-111640952D01*
X161274285Y-111593333D01*
X161226666Y-111498095D01*
X161226666Y-111402857D01*
X161274285Y-111307619D01*
X161321904Y-111260000D01*
X161417142Y-111212380D01*
X161655238Y-111212380D01*
X161798095Y-111260000D01*
X162131428Y-111212380D02*
X162369523Y-112212380D01*
X162560000Y-111498095D01*
X162750476Y-112212380D01*
X162988571Y-111212380D01*
X163512380Y-111640952D02*
X163417142Y-111593333D01*
X163369523Y-111545714D01*
X163321904Y-111450476D01*
X163321904Y-111402857D01*
X163369523Y-111307619D01*
X163417142Y-111260000D01*
X163512380Y-111212380D01*
X163702857Y-111212380D01*
X163798095Y-111260000D01*
X163845714Y-111307619D01*
X163893333Y-111402857D01*
X163893333Y-111450476D01*
X163845714Y-111545714D01*
X163798095Y-111593333D01*
X163702857Y-111640952D01*
X163512380Y-111640952D01*
X163417142Y-111688571D01*
X163369523Y-111736190D01*
X163321904Y-111831428D01*
X163321904Y-112021904D01*
X163369523Y-112117142D01*
X163417142Y-112164761D01*
X163512380Y-112212380D01*
X163702857Y-112212380D01*
X163798095Y-112164761D01*
X163845714Y-112117142D01*
X163893333Y-112021904D01*
X163893333Y-111831428D01*
X163845714Y-111736190D01*
X163798095Y-111688571D01*
X163702857Y-111640952D01*
G04 #@! TO.C,SW9*
X161226666Y-94130761D02*
X161369523Y-94178380D01*
X161607619Y-94178380D01*
X161702857Y-94130761D01*
X161750476Y-94083142D01*
X161798095Y-93987904D01*
X161798095Y-93892666D01*
X161750476Y-93797428D01*
X161702857Y-93749809D01*
X161607619Y-93702190D01*
X161417142Y-93654571D01*
X161321904Y-93606952D01*
X161274285Y-93559333D01*
X161226666Y-93464095D01*
X161226666Y-93368857D01*
X161274285Y-93273619D01*
X161321904Y-93226000D01*
X161417142Y-93178380D01*
X161655238Y-93178380D01*
X161798095Y-93226000D01*
X162131428Y-93178380D02*
X162369523Y-94178380D01*
X162560000Y-93464095D01*
X162750476Y-94178380D01*
X162988571Y-93178380D01*
X163417142Y-94178380D02*
X163607619Y-94178380D01*
X163702857Y-94130761D01*
X163750476Y-94083142D01*
X163845714Y-93940285D01*
X163893333Y-93749809D01*
X163893333Y-93368857D01*
X163845714Y-93273619D01*
X163798095Y-93226000D01*
X163702857Y-93178380D01*
X163512380Y-93178380D01*
X163417142Y-93226000D01*
X163369523Y-93273619D01*
X163321904Y-93368857D01*
X163321904Y-93606952D01*
X163369523Y-93702190D01*
X163417142Y-93749809D01*
X163512380Y-93797428D01*
X163702857Y-93797428D01*
X163798095Y-93749809D01*
X163845714Y-93702190D01*
X163893333Y-93606952D01*
G04 #@! TO.C,SW6*
X181546666Y-94130761D02*
X181689523Y-94178380D01*
X181927619Y-94178380D01*
X182022857Y-94130761D01*
X182070476Y-94083142D01*
X182118095Y-93987904D01*
X182118095Y-93892666D01*
X182070476Y-93797428D01*
X182022857Y-93749809D01*
X181927619Y-93702190D01*
X181737142Y-93654571D01*
X181641904Y-93606952D01*
X181594285Y-93559333D01*
X181546666Y-93464095D01*
X181546666Y-93368857D01*
X181594285Y-93273619D01*
X181641904Y-93226000D01*
X181737142Y-93178380D01*
X181975238Y-93178380D01*
X182118095Y-93226000D01*
X182451428Y-93178380D02*
X182689523Y-94178380D01*
X182880000Y-93464095D01*
X183070476Y-94178380D01*
X183308571Y-93178380D01*
X184118095Y-93178380D02*
X183927619Y-93178380D01*
X183832380Y-93226000D01*
X183784761Y-93273619D01*
X183689523Y-93416476D01*
X183641904Y-93606952D01*
X183641904Y-93987904D01*
X183689523Y-94083142D01*
X183737142Y-94130761D01*
X183832380Y-94178380D01*
X184022857Y-94178380D01*
X184118095Y-94130761D01*
X184165714Y-94083142D01*
X184213333Y-93987904D01*
X184213333Y-93749809D01*
X184165714Y-93654571D01*
X184118095Y-93606952D01*
X184022857Y-93559333D01*
X183832380Y-93559333D01*
X183737142Y-93606952D01*
X183689523Y-93654571D01*
X183641904Y-93749809D01*
G04 #@! TD*
M02*
