M48
;DRILL file {KiCad (5.0.1-3-g963ef8bb5)} date 2018 November 04, Sunday 19:12:50
;FORMAT={-:-/ absolute / inch / decimal}
FMAT,2
INCH,TZ
T1C0.0157
T2C0.0354
T3C0.0394
T4C0.0433
%
G90
G05
M72
T1
X5.045Y-4.115
X5.2348Y-3.4552
X5.33Y-3.47
X5.38Y-3.58
X5.42Y-3.27
X5.47Y-3.33
X5.51Y-4.73
X5.54Y-4.91
X5.68Y-4.92
X5.69Y-4.73
X5.75Y-2.32
X5.75Y-2.63
X5.875Y-3.74
X5.9Y-3.77
X5.92Y-3.21
X5.94Y-3.665
X5.94Y-3.665
X5.94Y-3.665
X5.96Y-3.86
X5.96Y-4.03
X5.96Y-4.36
X5.96Y-4.42
X5.975Y-2.84
X5.975Y-3.665
X6.Y-3.27
X6.Y-3.305
X6.Y-3.34
X6.Y-4.01
X6.Y-4.06
X6.Y-4.49
X6.045Y-3.85
X6.095Y-3.8
X6.1Y-3.735
X6.125Y-3.765
X6.14Y-3.21
X6.195Y-4.2
X6.2Y-4.36
X6.24Y-4.42
X6.24Y-4.49
X6.55Y-3.29
X6.61Y-3.24
X6.64Y-3.7
X6.66Y-3.4
X6.72Y-3.18
X6.74Y-3.37
X6.795Y-2.645
X6.81Y-4.57
X6.855Y-3.31
X6.945Y-3.555
X6.965Y-4.105
T2
X7.2Y-2.35
X7.2Y-2.45
X5.6Y-2.85
X5.6Y-2.95
X7.2Y-2.85
X7.2Y-2.95
X4.8Y-2.85
X4.8Y-2.95
X5.6Y-2.35
X5.6Y-2.45
X6.4Y-2.35
X6.4Y-2.45
X6.4Y-2.85
X6.4Y-2.95
X4.8Y-2.35
X4.8Y-2.45
T3
X6.3016Y-5.0953
X6.4016Y-5.0953
X6.4984Y-5.0953
X7.1016Y-5.8953
X7.2016Y-5.8953
X7.2984Y-5.8953
X5.15Y-2.55
X5.15Y-2.65
X5.15Y-2.75
X5.25Y-2.55
X5.25Y-2.65
X5.25Y-2.75
X5.2Y-3.65
X5.2Y-3.75
X5.2Y-3.85
X6.3016Y-5.8953
X6.4016Y-5.8953
X6.4984Y-5.8953
X5.5016Y-5.8953
X5.6016Y-5.8953
X5.6984Y-5.8953
X6.75Y-3.65
X6.75Y-3.75
X6.75Y-3.85
X6.85Y-3.65
X6.85Y-3.75
X6.85Y-3.85
X5.5016Y-5.0953
X5.6016Y-5.0953
X5.6984Y-5.0953
X4.7016Y-5.8953
X4.8016Y-5.8953
X4.8984Y-5.8953
X7.1016Y-5.0953
X7.2016Y-5.0953
X7.2984Y-5.0953
X4.7016Y-5.0953
X4.8016Y-5.0953
X4.8984Y-5.0953
T4
X5.9114Y-5.0713
X5.9114Y-5.3272
X6.0886Y-5.0713
X6.0886Y-5.3272
T3
X7.1744Y-3.915G85X7.2256Y-3.915
G05
X7.1744Y-4.1G85X7.2256Y-4.1
G05
X7.1744Y-4.285G85X7.2256Y-4.285
G05
X7.1744Y-3.215G85X7.2256Y-3.215
G05
X7.1744Y-3.4G85X7.2256Y-3.4
G05
X7.1744Y-3.585G85X7.2256Y-3.585
G05
X6.3744Y-3.915G85X6.4256Y-3.915
G05
X6.3744Y-4.1G85X6.4256Y-4.1
G05
X6.3744Y-4.285G85X6.4256Y-4.285
G05
X5.5744Y-3.915G85X5.6256Y-3.915
G05
X5.5744Y-4.1G85X5.6256Y-4.1
G05
X5.5744Y-4.285G85X5.6256Y-4.285
G05
X4.7712Y-3.91G85X4.8224Y-3.91
G05
X4.7712Y-4.095G85X4.8224Y-4.095
G05
X4.7712Y-4.2801G85X4.8224Y-4.2801
G05
X6.3744Y-3.215G85X6.4256Y-3.215
G05
X6.3744Y-3.4G85X6.4256Y-3.4
G05
X6.3744Y-3.585G85X6.4256Y-3.585
G05
X4.7744Y-3.215G85X4.8256Y-3.215
G05
X4.7744Y-3.4G85X4.8256Y-3.4
G05
X4.7744Y-3.585G85X4.8256Y-3.585
G05
X5.5744Y-3.215G85X5.6256Y-3.215
G05
X5.5744Y-3.4G85X5.6256Y-3.4
G05
X5.5744Y-3.585G85X5.6256Y-3.585
G05
T0
M30
