G04 #@! TF.GenerationSoftware,KiCad,Pcbnew,(5.0.1-3-g963ef8bb5)*
G04 #@! TF.CreationDate,2018-11-04T19:12:54+08:00*
G04 #@! TF.ProjectId,SubSequence,53756253657175656E63652E6B696361,rev?*
G04 #@! TF.SameCoordinates,Original*
G04 #@! TF.FileFunction,Soldermask,Top*
G04 #@! TF.FilePolarity,Negative*
%FSLAX46Y46*%
G04 Gerber Fmt 4.6, Leading zero omitted, Abs format (unit mm)*
G04 Created by KiCad (PCBNEW (5.0.1-3-g963ef8bb5)) date 2018 November 04, Sunday 19:12:54*
%MOMM*%
%LPD*%
G01*
G04 APERTURE LIST*
%ADD10C,0.100000*%
G04 APERTURE END LIST*
D10*
G36*
X185700857Y-148682282D02*
X185901042Y-148765201D01*
X186081213Y-148885588D01*
X186234422Y-149038797D01*
X186354809Y-149218968D01*
X186437728Y-149419153D01*
X186480000Y-149631668D01*
X186480000Y-149848352D01*
X186437728Y-150060867D01*
X186354809Y-150261052D01*
X186234422Y-150441223D01*
X186081213Y-150594432D01*
X185901042Y-150714819D01*
X185700857Y-150797738D01*
X185488342Y-150840010D01*
X185271658Y-150840010D01*
X185059143Y-150797738D01*
X184858958Y-150714819D01*
X184678787Y-150594432D01*
X184525578Y-150441223D01*
X184405191Y-150261052D01*
X184322272Y-150060867D01*
X184280000Y-149848352D01*
X184280000Y-149631668D01*
X184322272Y-149419153D01*
X184405191Y-149218968D01*
X184525578Y-149038797D01*
X184678787Y-148885588D01*
X184858958Y-148765201D01*
X185059143Y-148682282D01*
X185271658Y-148640010D01*
X185488342Y-148640010D01*
X185700857Y-148682282D01*
X185700857Y-148682282D01*
G37*
G36*
X183240857Y-148682282D02*
X183441042Y-148765201D01*
X183621213Y-148885588D01*
X183774422Y-149038797D01*
X183894809Y-149218968D01*
X183977728Y-149419153D01*
X184020000Y-149631668D01*
X184020000Y-149848352D01*
X183977728Y-150060867D01*
X183894809Y-150261052D01*
X183774422Y-150441223D01*
X183621213Y-150594432D01*
X183441042Y-150714819D01*
X183240857Y-150797738D01*
X183028342Y-150840010D01*
X182811658Y-150840010D01*
X182599143Y-150797738D01*
X182398958Y-150714819D01*
X182218787Y-150594432D01*
X182065578Y-150441223D01*
X181945191Y-150261052D01*
X181862272Y-150060867D01*
X181820000Y-149848352D01*
X181820000Y-149631668D01*
X181862272Y-149419153D01*
X181945191Y-149218968D01*
X182065578Y-149038797D01*
X182218787Y-148885588D01*
X182398958Y-148765201D01*
X182599143Y-148682282D01*
X182811658Y-148640010D01*
X183028342Y-148640010D01*
X183240857Y-148682282D01*
X183240857Y-148682282D01*
G37*
G36*
X180700857Y-148682282D02*
X180901042Y-148765201D01*
X181081213Y-148885588D01*
X181234422Y-149038797D01*
X181354809Y-149218968D01*
X181437728Y-149419153D01*
X181480000Y-149631668D01*
X181480000Y-149848352D01*
X181437728Y-150060867D01*
X181354809Y-150261052D01*
X181234422Y-150441223D01*
X181081213Y-150594432D01*
X180901042Y-150714819D01*
X180700857Y-150797738D01*
X180488342Y-150840010D01*
X180271658Y-150840010D01*
X180059143Y-150797738D01*
X179858958Y-150714819D01*
X179678787Y-150594432D01*
X179525578Y-150441223D01*
X179405191Y-150261052D01*
X179322272Y-150060867D01*
X179280000Y-149848352D01*
X179280000Y-149631668D01*
X179322272Y-149419153D01*
X179405191Y-149218968D01*
X179525578Y-149038797D01*
X179678787Y-148885588D01*
X179858958Y-148765201D01*
X180059143Y-148682282D01*
X180271658Y-148640010D01*
X180488342Y-148640010D01*
X180700857Y-148682282D01*
X180700857Y-148682282D01*
G37*
G36*
X165380857Y-148682282D02*
X165581042Y-148765201D01*
X165761213Y-148885588D01*
X165914422Y-149038797D01*
X166034809Y-149218968D01*
X166117728Y-149419153D01*
X166160000Y-149631668D01*
X166160000Y-149848352D01*
X166117728Y-150060867D01*
X166034809Y-150261052D01*
X165914422Y-150441223D01*
X165761213Y-150594432D01*
X165581042Y-150714819D01*
X165380857Y-150797738D01*
X165168342Y-150840010D01*
X164951658Y-150840010D01*
X164739143Y-150797738D01*
X164538958Y-150714819D01*
X164358787Y-150594432D01*
X164205578Y-150441223D01*
X164085191Y-150261052D01*
X164002272Y-150060867D01*
X163960000Y-149848352D01*
X163960000Y-149631668D01*
X164002272Y-149419153D01*
X164085191Y-149218968D01*
X164205578Y-149038797D01*
X164358787Y-148885588D01*
X164538958Y-148765201D01*
X164739143Y-148682282D01*
X164951658Y-148640010D01*
X165168342Y-148640010D01*
X165380857Y-148682282D01*
X165380857Y-148682282D01*
G37*
G36*
X162920857Y-148682282D02*
X163121042Y-148765201D01*
X163301213Y-148885588D01*
X163454422Y-149038797D01*
X163574809Y-149218968D01*
X163657728Y-149419153D01*
X163700000Y-149631668D01*
X163700000Y-149848352D01*
X163657728Y-150060867D01*
X163574809Y-150261052D01*
X163454422Y-150441223D01*
X163301213Y-150594432D01*
X163121042Y-150714819D01*
X162920857Y-150797738D01*
X162708342Y-150840010D01*
X162491658Y-150840010D01*
X162279143Y-150797738D01*
X162078958Y-150714819D01*
X161898787Y-150594432D01*
X161745578Y-150441223D01*
X161625191Y-150261052D01*
X161542272Y-150060867D01*
X161500000Y-149848352D01*
X161500000Y-149631668D01*
X161542272Y-149419153D01*
X161625191Y-149218968D01*
X161745578Y-149038797D01*
X161898787Y-148885588D01*
X162078958Y-148765201D01*
X162279143Y-148682282D01*
X162491658Y-148640010D01*
X162708342Y-148640010D01*
X162920857Y-148682282D01*
X162920857Y-148682282D01*
G37*
G36*
X160380857Y-148682282D02*
X160581042Y-148765201D01*
X160761213Y-148885588D01*
X160914422Y-149038797D01*
X161034809Y-149218968D01*
X161117728Y-149419153D01*
X161160000Y-149631668D01*
X161160000Y-149848352D01*
X161117728Y-150060867D01*
X161034809Y-150261052D01*
X160914422Y-150441223D01*
X160761213Y-150594432D01*
X160581042Y-150714819D01*
X160380857Y-150797738D01*
X160168342Y-150840010D01*
X159951658Y-150840010D01*
X159739143Y-150797738D01*
X159538958Y-150714819D01*
X159358787Y-150594432D01*
X159205578Y-150441223D01*
X159085191Y-150261052D01*
X159002272Y-150060867D01*
X158960000Y-149848352D01*
X158960000Y-149631668D01*
X159002272Y-149419153D01*
X159085191Y-149218968D01*
X159205578Y-149038797D01*
X159358787Y-148885588D01*
X159538958Y-148765201D01*
X159739143Y-148682282D01*
X159951658Y-148640010D01*
X160168342Y-148640010D01*
X160380857Y-148682282D01*
X160380857Y-148682282D01*
G37*
G36*
X145060857Y-148682282D02*
X145261042Y-148765201D01*
X145441213Y-148885588D01*
X145594422Y-149038797D01*
X145714809Y-149218968D01*
X145797728Y-149419153D01*
X145840000Y-149631668D01*
X145840000Y-149848352D01*
X145797728Y-150060867D01*
X145714809Y-150261052D01*
X145594422Y-150441223D01*
X145441213Y-150594432D01*
X145261042Y-150714819D01*
X145060857Y-150797738D01*
X144848342Y-150840010D01*
X144631658Y-150840010D01*
X144419143Y-150797738D01*
X144218958Y-150714819D01*
X144038787Y-150594432D01*
X143885578Y-150441223D01*
X143765191Y-150261052D01*
X143682272Y-150060867D01*
X143640000Y-149848352D01*
X143640000Y-149631668D01*
X143682272Y-149419153D01*
X143765191Y-149218968D01*
X143885578Y-149038797D01*
X144038787Y-148885588D01*
X144218958Y-148765201D01*
X144419143Y-148682282D01*
X144631658Y-148640010D01*
X144848342Y-148640010D01*
X145060857Y-148682282D01*
X145060857Y-148682282D01*
G37*
G36*
X142600857Y-148682282D02*
X142801042Y-148765201D01*
X142981213Y-148885588D01*
X143134422Y-149038797D01*
X143254809Y-149218968D01*
X143337728Y-149419153D01*
X143380000Y-149631668D01*
X143380000Y-149848352D01*
X143337728Y-150060867D01*
X143254809Y-150261052D01*
X143134422Y-150441223D01*
X142981213Y-150594432D01*
X142801042Y-150714819D01*
X142600857Y-150797738D01*
X142388342Y-150840010D01*
X142171658Y-150840010D01*
X141959143Y-150797738D01*
X141758958Y-150714819D01*
X141578787Y-150594432D01*
X141425578Y-150441223D01*
X141305191Y-150261052D01*
X141222272Y-150060867D01*
X141180000Y-149848352D01*
X141180000Y-149631668D01*
X141222272Y-149419153D01*
X141305191Y-149218968D01*
X141425578Y-149038797D01*
X141578787Y-148885588D01*
X141758958Y-148765201D01*
X141959143Y-148682282D01*
X142171658Y-148640010D01*
X142388342Y-148640010D01*
X142600857Y-148682282D01*
X142600857Y-148682282D01*
G37*
G36*
X140060857Y-148682282D02*
X140261042Y-148765201D01*
X140441213Y-148885588D01*
X140594422Y-149038797D01*
X140714809Y-149218968D01*
X140797728Y-149419153D01*
X140840000Y-149631668D01*
X140840000Y-149848352D01*
X140797728Y-150060867D01*
X140714809Y-150261052D01*
X140594422Y-150441223D01*
X140441213Y-150594432D01*
X140261042Y-150714819D01*
X140060857Y-150797738D01*
X139848342Y-150840010D01*
X139631658Y-150840010D01*
X139419143Y-150797738D01*
X139218958Y-150714819D01*
X139038787Y-150594432D01*
X138885578Y-150441223D01*
X138765191Y-150261052D01*
X138682272Y-150060867D01*
X138640000Y-149848352D01*
X138640000Y-149631668D01*
X138682272Y-149419153D01*
X138765191Y-149218968D01*
X138885578Y-149038797D01*
X139038787Y-148885588D01*
X139218958Y-148765201D01*
X139419143Y-148682282D01*
X139631658Y-148640010D01*
X139848342Y-148640010D01*
X140060857Y-148682282D01*
X140060857Y-148682282D01*
G37*
G36*
X124740857Y-148682282D02*
X124941042Y-148765201D01*
X125121213Y-148885588D01*
X125274422Y-149038797D01*
X125394809Y-149218968D01*
X125477728Y-149419153D01*
X125520000Y-149631668D01*
X125520000Y-149848352D01*
X125477728Y-150060867D01*
X125394809Y-150261052D01*
X125274422Y-150441223D01*
X125121213Y-150594432D01*
X124941042Y-150714819D01*
X124740857Y-150797738D01*
X124528342Y-150840010D01*
X124311658Y-150840010D01*
X124099143Y-150797738D01*
X123898958Y-150714819D01*
X123718787Y-150594432D01*
X123565578Y-150441223D01*
X123445191Y-150261052D01*
X123362272Y-150060867D01*
X123320000Y-149848352D01*
X123320000Y-149631668D01*
X123362272Y-149419153D01*
X123445191Y-149218968D01*
X123565578Y-149038797D01*
X123718787Y-148885588D01*
X123898958Y-148765201D01*
X124099143Y-148682282D01*
X124311658Y-148640010D01*
X124528342Y-148640010D01*
X124740857Y-148682282D01*
X124740857Y-148682282D01*
G37*
G36*
X122280857Y-148682282D02*
X122481042Y-148765201D01*
X122661213Y-148885588D01*
X122814422Y-149038797D01*
X122934809Y-149218968D01*
X123017728Y-149419153D01*
X123060000Y-149631668D01*
X123060000Y-149848352D01*
X123017728Y-150060867D01*
X122934809Y-150261052D01*
X122814422Y-150441223D01*
X122661213Y-150594432D01*
X122481042Y-150714819D01*
X122280857Y-150797738D01*
X122068342Y-150840010D01*
X121851658Y-150840010D01*
X121639143Y-150797738D01*
X121438958Y-150714819D01*
X121258787Y-150594432D01*
X121105578Y-150441223D01*
X120985191Y-150261052D01*
X120902272Y-150060867D01*
X120860000Y-149848352D01*
X120860000Y-149631668D01*
X120902272Y-149419153D01*
X120985191Y-149218968D01*
X121105578Y-149038797D01*
X121258787Y-148885588D01*
X121438958Y-148765201D01*
X121639143Y-148682282D01*
X121851658Y-148640010D01*
X122068342Y-148640010D01*
X122280857Y-148682282D01*
X122280857Y-148682282D01*
G37*
G36*
X119740857Y-148682282D02*
X119941042Y-148765201D01*
X120121213Y-148885588D01*
X120274422Y-149038797D01*
X120394809Y-149218968D01*
X120477728Y-149419153D01*
X120520000Y-149631668D01*
X120520000Y-149848352D01*
X120477728Y-150060867D01*
X120394809Y-150261052D01*
X120274422Y-150441223D01*
X120121213Y-150594432D01*
X119941042Y-150714819D01*
X119740857Y-150797738D01*
X119528342Y-150840010D01*
X119311658Y-150840010D01*
X119099143Y-150797738D01*
X118898958Y-150714819D01*
X118718787Y-150594432D01*
X118565578Y-150441223D01*
X118445191Y-150261052D01*
X118362272Y-150060867D01*
X118320000Y-149848352D01*
X118320000Y-149631668D01*
X118362272Y-149419153D01*
X118445191Y-149218968D01*
X118565578Y-149038797D01*
X118718787Y-148885588D01*
X118898958Y-148765201D01*
X119099143Y-148682282D01*
X119311658Y-148640010D01*
X119528342Y-148640010D01*
X119740857Y-148682282D01*
X119740857Y-148682282D01*
G37*
G36*
X188334845Y-140958810D02*
X188579896Y-141033145D01*
X188805736Y-141153860D01*
X189003687Y-141316313D01*
X189166140Y-141514264D01*
X189286855Y-141740104D01*
X189361190Y-141985155D01*
X189386290Y-142240000D01*
X189361190Y-142494845D01*
X189286855Y-142739896D01*
X189166140Y-142965736D01*
X189003687Y-143163687D01*
X188805736Y-143326140D01*
X188579896Y-143446855D01*
X188334845Y-143521190D01*
X188143864Y-143540000D01*
X187216136Y-143540000D01*
X187025155Y-143521190D01*
X186780104Y-143446855D01*
X186554264Y-143326140D01*
X186356313Y-143163687D01*
X186193860Y-142965736D01*
X186073145Y-142739896D01*
X185998810Y-142494845D01*
X185973710Y-142240000D01*
X185998810Y-141985155D01*
X186073145Y-141740104D01*
X186193860Y-141514264D01*
X186356313Y-141316313D01*
X186554264Y-141153860D01*
X186780104Y-141033145D01*
X187025155Y-140958810D01*
X187216136Y-140940000D01*
X188143864Y-140940000D01*
X188334845Y-140958810D01*
X188334845Y-140958810D01*
G37*
G36*
X147694845Y-140958810D02*
X147939896Y-141033145D01*
X148165736Y-141153860D01*
X148363687Y-141316313D01*
X148526140Y-141514264D01*
X148646855Y-141740104D01*
X148721190Y-141985155D01*
X148746290Y-142240000D01*
X148721190Y-142494845D01*
X148646855Y-142739896D01*
X148526140Y-142965736D01*
X148363687Y-143163687D01*
X148165736Y-143326140D01*
X147939896Y-143446855D01*
X147694845Y-143521190D01*
X147503864Y-143540000D01*
X146576136Y-143540000D01*
X146385155Y-143521190D01*
X146140104Y-143446855D01*
X145914264Y-143326140D01*
X145716313Y-143163687D01*
X145553860Y-142965736D01*
X145433145Y-142739896D01*
X145358810Y-142494845D01*
X145333710Y-142240000D01*
X145358810Y-141985155D01*
X145433145Y-141740104D01*
X145553860Y-141514264D01*
X145716313Y-141316313D01*
X145914264Y-141153860D01*
X146140104Y-141033145D01*
X146385155Y-140958810D01*
X146576136Y-140940000D01*
X147503864Y-140940000D01*
X147694845Y-140958810D01*
X147694845Y-140958810D01*
G37*
G36*
X178734845Y-140958810D02*
X178979896Y-141033145D01*
X179205736Y-141153860D01*
X179403687Y-141316313D01*
X179566140Y-141514264D01*
X179686855Y-141740104D01*
X179761190Y-141985155D01*
X179786290Y-142240000D01*
X179761190Y-142494845D01*
X179686855Y-142739896D01*
X179566140Y-142965736D01*
X179403687Y-143163687D01*
X179205736Y-143326140D01*
X178979896Y-143446855D01*
X178734845Y-143521190D01*
X178543864Y-143540000D01*
X177616136Y-143540000D01*
X177425155Y-143521190D01*
X177180104Y-143446855D01*
X176954264Y-143326140D01*
X176756313Y-143163687D01*
X176593860Y-142965736D01*
X176473145Y-142739896D01*
X176398810Y-142494845D01*
X176373710Y-142240000D01*
X176398810Y-141985155D01*
X176473145Y-141740104D01*
X176593860Y-141514264D01*
X176756313Y-141316313D01*
X176954264Y-141153860D01*
X177180104Y-141033145D01*
X177425155Y-140958810D01*
X177616136Y-140940000D01*
X178543864Y-140940000D01*
X178734845Y-140958810D01*
X178734845Y-140958810D01*
G37*
G36*
X168014845Y-140958810D02*
X168259896Y-141033145D01*
X168485736Y-141153860D01*
X168683687Y-141316313D01*
X168846140Y-141514264D01*
X168966855Y-141740104D01*
X169041190Y-141985155D01*
X169066290Y-142240000D01*
X169041190Y-142494845D01*
X168966855Y-142739896D01*
X168846140Y-142965736D01*
X168683687Y-143163687D01*
X168485736Y-143326140D01*
X168259896Y-143446855D01*
X168014845Y-143521190D01*
X167823864Y-143540000D01*
X166896136Y-143540000D01*
X166705155Y-143521190D01*
X166460104Y-143446855D01*
X166234264Y-143326140D01*
X166036313Y-143163687D01*
X165873860Y-142965736D01*
X165753145Y-142739896D01*
X165678810Y-142494845D01*
X165653710Y-142240000D01*
X165678810Y-141985155D01*
X165753145Y-141740104D01*
X165873860Y-141514264D01*
X166036313Y-141316313D01*
X166234264Y-141153860D01*
X166460104Y-141033145D01*
X166705155Y-140958810D01*
X166896136Y-140940000D01*
X167823864Y-140940000D01*
X168014845Y-140958810D01*
X168014845Y-140958810D01*
G37*
G36*
X138094845Y-140958810D02*
X138339896Y-141033145D01*
X138565736Y-141153860D01*
X138763687Y-141316313D01*
X138926140Y-141514264D01*
X139046855Y-141740104D01*
X139121190Y-141985155D01*
X139146290Y-142240000D01*
X139121190Y-142494845D01*
X139046855Y-142739896D01*
X138926140Y-142965736D01*
X138763687Y-143163687D01*
X138565736Y-143326140D01*
X138339896Y-143446855D01*
X138094845Y-143521190D01*
X137903864Y-143540000D01*
X136976136Y-143540000D01*
X136785155Y-143521190D01*
X136540104Y-143446855D01*
X136314264Y-143326140D01*
X136116313Y-143163687D01*
X135953860Y-142965736D01*
X135833145Y-142739896D01*
X135758810Y-142494845D01*
X135733710Y-142240000D01*
X135758810Y-141985155D01*
X135833145Y-141740104D01*
X135953860Y-141514264D01*
X136116313Y-141316313D01*
X136314264Y-141153860D01*
X136540104Y-141033145D01*
X136785155Y-140958810D01*
X136976136Y-140940000D01*
X137903864Y-140940000D01*
X138094845Y-140958810D01*
X138094845Y-140958810D01*
G37*
G36*
X117774845Y-140958810D02*
X118019896Y-141033145D01*
X118245736Y-141153860D01*
X118443687Y-141316313D01*
X118606140Y-141514264D01*
X118726855Y-141740104D01*
X118801190Y-141985155D01*
X118826290Y-142240000D01*
X118801190Y-142494845D01*
X118726855Y-142739896D01*
X118606140Y-142965736D01*
X118443687Y-143163687D01*
X118245736Y-143326140D01*
X118019896Y-143446855D01*
X117774845Y-143521190D01*
X117583864Y-143540000D01*
X116656136Y-143540000D01*
X116465155Y-143521190D01*
X116220104Y-143446855D01*
X115994264Y-143326140D01*
X115796313Y-143163687D01*
X115633860Y-142965736D01*
X115513145Y-142739896D01*
X115438810Y-142494845D01*
X115413710Y-142240000D01*
X115438810Y-141985155D01*
X115513145Y-141740104D01*
X115633860Y-141514264D01*
X115796313Y-141316313D01*
X115994264Y-141153860D01*
X116220104Y-141033145D01*
X116465155Y-140958810D01*
X116656136Y-140940000D01*
X117583864Y-140940000D01*
X117774845Y-140958810D01*
X117774845Y-140958810D01*
G37*
G36*
X158414845Y-140958810D02*
X158659896Y-141033145D01*
X158885736Y-141153860D01*
X159083687Y-141316313D01*
X159246140Y-141514264D01*
X159366855Y-141740104D01*
X159441190Y-141985155D01*
X159466290Y-142240000D01*
X159441190Y-142494845D01*
X159366855Y-142739896D01*
X159246140Y-142965736D01*
X159083687Y-143163687D01*
X158885736Y-143326140D01*
X158659896Y-143446855D01*
X158414845Y-143521190D01*
X158223864Y-143540000D01*
X157296136Y-143540000D01*
X157105155Y-143521190D01*
X156860104Y-143446855D01*
X156634264Y-143326140D01*
X156436313Y-143163687D01*
X156273860Y-142965736D01*
X156153145Y-142739896D01*
X156078810Y-142494845D01*
X156053710Y-142240000D01*
X156078810Y-141985155D01*
X156153145Y-141740104D01*
X156273860Y-141514264D01*
X156436313Y-141316313D01*
X156634264Y-141153860D01*
X156860104Y-141033145D01*
X157105155Y-140958810D01*
X157296136Y-140940000D01*
X158223864Y-140940000D01*
X158414845Y-140958810D01*
X158414845Y-140958810D01*
G37*
G36*
X127374845Y-140958810D02*
X127619896Y-141033145D01*
X127845736Y-141153860D01*
X128043687Y-141316313D01*
X128206140Y-141514264D01*
X128326855Y-141740104D01*
X128401190Y-141985155D01*
X128426290Y-142240000D01*
X128401190Y-142494845D01*
X128326855Y-142739896D01*
X128206140Y-142965736D01*
X128043687Y-143163687D01*
X127845736Y-143326140D01*
X127619896Y-143446855D01*
X127374845Y-143521190D01*
X127183864Y-143540000D01*
X126256136Y-143540000D01*
X126065155Y-143521190D01*
X125820104Y-143446855D01*
X125594264Y-143326140D01*
X125396313Y-143163687D01*
X125233860Y-142965736D01*
X125113145Y-142739896D01*
X125038810Y-142494845D01*
X125013710Y-142240000D01*
X125038810Y-141985155D01*
X125113145Y-141740104D01*
X125233860Y-141514264D01*
X125396313Y-141316313D01*
X125594264Y-141153860D01*
X125820104Y-141033145D01*
X126065155Y-140958810D01*
X126256136Y-140940000D01*
X127183864Y-140940000D01*
X127374845Y-140958810D01*
X127374845Y-140958810D01*
G37*
G36*
X150499586Y-134156995D02*
X150717972Y-134247453D01*
X150914518Y-134378781D01*
X151081659Y-134545922D01*
X151212987Y-134742468D01*
X151303445Y-134960854D01*
X151349560Y-135192689D01*
X151349560Y-135429071D01*
X151303445Y-135660906D01*
X151212987Y-135879292D01*
X151081659Y-136075838D01*
X150914518Y-136242979D01*
X150717972Y-136374307D01*
X150499586Y-136464765D01*
X150267751Y-136510880D01*
X150031369Y-136510880D01*
X149799534Y-136464765D01*
X149581148Y-136374307D01*
X149384602Y-136242979D01*
X149217461Y-136075838D01*
X149086133Y-135879292D01*
X148995675Y-135660906D01*
X148949560Y-135429071D01*
X148949560Y-135192689D01*
X148995675Y-134960854D01*
X149086133Y-134742468D01*
X149217461Y-134545922D01*
X149384602Y-134378781D01*
X149581148Y-134247453D01*
X149799534Y-134156995D01*
X150031369Y-134110880D01*
X150267751Y-134110880D01*
X150499586Y-134156995D01*
X150499586Y-134156995D01*
G37*
G36*
X154999586Y-134156995D02*
X155217972Y-134247453D01*
X155414518Y-134378781D01*
X155581659Y-134545922D01*
X155712987Y-134742468D01*
X155803445Y-134960854D01*
X155849560Y-135192689D01*
X155849560Y-135429071D01*
X155803445Y-135660906D01*
X155712987Y-135879292D01*
X155581659Y-136075838D01*
X155414518Y-136242979D01*
X155217972Y-136374307D01*
X154999586Y-136464765D01*
X154767751Y-136510880D01*
X154531369Y-136510880D01*
X154299534Y-136464765D01*
X154081148Y-136374307D01*
X153884602Y-136242979D01*
X153717461Y-136075838D01*
X153586133Y-135879292D01*
X153495675Y-135660906D01*
X153449560Y-135429071D01*
X153449560Y-135192689D01*
X153495675Y-134960854D01*
X153586133Y-134742468D01*
X153717461Y-134545922D01*
X153884602Y-134378781D01*
X154081148Y-134247453D01*
X154299534Y-134156995D01*
X154531369Y-134110880D01*
X154767751Y-134110880D01*
X154999586Y-134156995D01*
X154999586Y-134156995D01*
G37*
G36*
X124740857Y-128362282D02*
X124941042Y-128445201D01*
X125121213Y-128565588D01*
X125274422Y-128718797D01*
X125394809Y-128898968D01*
X125477728Y-129099153D01*
X125520000Y-129311668D01*
X125520000Y-129528352D01*
X125477728Y-129740867D01*
X125394809Y-129941052D01*
X125274422Y-130121223D01*
X125121213Y-130274432D01*
X124941042Y-130394819D01*
X124740857Y-130477738D01*
X124528342Y-130520010D01*
X124311658Y-130520010D01*
X124099143Y-130477738D01*
X123898958Y-130394819D01*
X123718787Y-130274432D01*
X123565578Y-130121223D01*
X123445191Y-129941052D01*
X123362272Y-129740867D01*
X123320000Y-129528352D01*
X123320000Y-129311668D01*
X123362272Y-129099153D01*
X123445191Y-128898968D01*
X123565578Y-128718797D01*
X123718787Y-128565588D01*
X123898958Y-128445201D01*
X124099143Y-128362282D01*
X124311658Y-128320010D01*
X124528342Y-128320010D01*
X124740857Y-128362282D01*
X124740857Y-128362282D01*
G37*
G36*
X145060857Y-128362282D02*
X145261042Y-128445201D01*
X145441213Y-128565588D01*
X145594422Y-128718797D01*
X145714809Y-128898968D01*
X145797728Y-129099153D01*
X145840000Y-129311668D01*
X145840000Y-129528352D01*
X145797728Y-129740867D01*
X145714809Y-129941052D01*
X145594422Y-130121223D01*
X145441213Y-130274432D01*
X145261042Y-130394819D01*
X145060857Y-130477738D01*
X144848342Y-130520010D01*
X144631658Y-130520010D01*
X144419143Y-130477738D01*
X144218958Y-130394819D01*
X144038787Y-130274432D01*
X143885578Y-130121223D01*
X143765191Y-129941052D01*
X143682272Y-129740867D01*
X143640000Y-129528352D01*
X143640000Y-129311668D01*
X143682272Y-129099153D01*
X143765191Y-128898968D01*
X143885578Y-128718797D01*
X144038787Y-128565588D01*
X144218958Y-128445201D01*
X144419143Y-128362282D01*
X144631658Y-128320010D01*
X144848342Y-128320010D01*
X145060857Y-128362282D01*
X145060857Y-128362282D01*
G37*
G36*
X165380857Y-128362282D02*
X165581042Y-128445201D01*
X165761213Y-128565588D01*
X165914422Y-128718797D01*
X166034809Y-128898968D01*
X166117728Y-129099153D01*
X166160000Y-129311668D01*
X166160000Y-129528352D01*
X166117728Y-129740867D01*
X166034809Y-129941052D01*
X165914422Y-130121223D01*
X165761213Y-130274432D01*
X165581042Y-130394819D01*
X165380857Y-130477738D01*
X165168342Y-130520010D01*
X164951658Y-130520010D01*
X164739143Y-130477738D01*
X164538958Y-130394819D01*
X164358787Y-130274432D01*
X164205578Y-130121223D01*
X164085191Y-129941052D01*
X164002272Y-129740867D01*
X163960000Y-129528352D01*
X163960000Y-129311668D01*
X164002272Y-129099153D01*
X164085191Y-128898968D01*
X164205578Y-128718797D01*
X164358787Y-128565588D01*
X164538958Y-128445201D01*
X164739143Y-128362282D01*
X164951658Y-128320010D01*
X165168342Y-128320010D01*
X165380857Y-128362282D01*
X165380857Y-128362282D01*
G37*
G36*
X140060857Y-128362282D02*
X140261042Y-128445201D01*
X140441213Y-128565588D01*
X140594422Y-128718797D01*
X140714809Y-128898968D01*
X140797728Y-129099153D01*
X140840000Y-129311668D01*
X140840000Y-129528352D01*
X140797728Y-129740867D01*
X140714809Y-129941052D01*
X140594422Y-130121223D01*
X140441213Y-130274432D01*
X140261042Y-130394819D01*
X140060857Y-130477738D01*
X139848342Y-130520010D01*
X139631658Y-130520010D01*
X139419143Y-130477738D01*
X139218958Y-130394819D01*
X139038787Y-130274432D01*
X138885578Y-130121223D01*
X138765191Y-129941052D01*
X138682272Y-129740867D01*
X138640000Y-129528352D01*
X138640000Y-129311668D01*
X138682272Y-129099153D01*
X138765191Y-128898968D01*
X138885578Y-128718797D01*
X139038787Y-128565588D01*
X139218958Y-128445201D01*
X139419143Y-128362282D01*
X139631658Y-128320010D01*
X139848342Y-128320010D01*
X140060857Y-128362282D01*
X140060857Y-128362282D01*
G37*
G36*
X122280857Y-128362282D02*
X122481042Y-128445201D01*
X122661213Y-128565588D01*
X122814422Y-128718797D01*
X122934809Y-128898968D01*
X123017728Y-129099153D01*
X123060000Y-129311668D01*
X123060000Y-129528352D01*
X123017728Y-129740867D01*
X122934809Y-129941052D01*
X122814422Y-130121223D01*
X122661213Y-130274432D01*
X122481042Y-130394819D01*
X122280857Y-130477738D01*
X122068342Y-130520010D01*
X121851658Y-130520010D01*
X121639143Y-130477738D01*
X121438958Y-130394819D01*
X121258787Y-130274432D01*
X121105578Y-130121223D01*
X120985191Y-129941052D01*
X120902272Y-129740867D01*
X120860000Y-129528352D01*
X120860000Y-129311668D01*
X120902272Y-129099153D01*
X120985191Y-128898968D01*
X121105578Y-128718797D01*
X121258787Y-128565588D01*
X121438958Y-128445201D01*
X121639143Y-128362282D01*
X121851658Y-128320010D01*
X122068342Y-128320010D01*
X122280857Y-128362282D01*
X122280857Y-128362282D01*
G37*
G36*
X119740857Y-128362282D02*
X119941042Y-128445201D01*
X120121213Y-128565588D01*
X120274422Y-128718797D01*
X120394809Y-128898968D01*
X120477728Y-129099153D01*
X120520000Y-129311668D01*
X120520000Y-129528352D01*
X120477728Y-129740867D01*
X120394809Y-129941052D01*
X120274422Y-130121223D01*
X120121213Y-130274432D01*
X119941042Y-130394819D01*
X119740857Y-130477738D01*
X119528342Y-130520010D01*
X119311658Y-130520010D01*
X119099143Y-130477738D01*
X118898958Y-130394819D01*
X118718787Y-130274432D01*
X118565578Y-130121223D01*
X118445191Y-129941052D01*
X118362272Y-129740867D01*
X118320000Y-129528352D01*
X118320000Y-129311668D01*
X118362272Y-129099153D01*
X118445191Y-128898968D01*
X118565578Y-128718797D01*
X118718787Y-128565588D01*
X118898958Y-128445201D01*
X119099143Y-128362282D01*
X119311658Y-128320010D01*
X119528342Y-128320010D01*
X119740857Y-128362282D01*
X119740857Y-128362282D01*
G37*
G36*
X180700857Y-128362282D02*
X180901042Y-128445201D01*
X181081213Y-128565588D01*
X181234422Y-128718797D01*
X181354809Y-128898968D01*
X181437728Y-129099153D01*
X181480000Y-129311668D01*
X181480000Y-129528352D01*
X181437728Y-129740867D01*
X181354809Y-129941052D01*
X181234422Y-130121223D01*
X181081213Y-130274432D01*
X180901042Y-130394819D01*
X180700857Y-130477738D01*
X180488342Y-130520010D01*
X180271658Y-130520010D01*
X180059143Y-130477738D01*
X179858958Y-130394819D01*
X179678787Y-130274432D01*
X179525578Y-130121223D01*
X179405191Y-129941052D01*
X179322272Y-129740867D01*
X179280000Y-129528352D01*
X179280000Y-129311668D01*
X179322272Y-129099153D01*
X179405191Y-128898968D01*
X179525578Y-128718797D01*
X179678787Y-128565588D01*
X179858958Y-128445201D01*
X180059143Y-128362282D01*
X180271658Y-128320010D01*
X180488342Y-128320010D01*
X180700857Y-128362282D01*
X180700857Y-128362282D01*
G37*
G36*
X183240857Y-128362282D02*
X183441042Y-128445201D01*
X183621213Y-128565588D01*
X183774422Y-128718797D01*
X183894809Y-128898968D01*
X183977728Y-129099153D01*
X184020000Y-129311668D01*
X184020000Y-129528352D01*
X183977728Y-129740867D01*
X183894809Y-129941052D01*
X183774422Y-130121223D01*
X183621213Y-130274432D01*
X183441042Y-130394819D01*
X183240857Y-130477738D01*
X183028342Y-130520010D01*
X182811658Y-130520010D01*
X182599143Y-130477738D01*
X182398958Y-130394819D01*
X182218787Y-130274432D01*
X182065578Y-130121223D01*
X181945191Y-129941052D01*
X181862272Y-129740867D01*
X181820000Y-129528352D01*
X181820000Y-129311668D01*
X181862272Y-129099153D01*
X181945191Y-128898968D01*
X182065578Y-128718797D01*
X182218787Y-128565588D01*
X182398958Y-128445201D01*
X182599143Y-128362282D01*
X182811658Y-128320010D01*
X183028342Y-128320010D01*
X183240857Y-128362282D01*
X183240857Y-128362282D01*
G37*
G36*
X185700857Y-128362282D02*
X185901042Y-128445201D01*
X186081213Y-128565588D01*
X186234422Y-128718797D01*
X186354809Y-128898968D01*
X186437728Y-129099153D01*
X186480000Y-129311668D01*
X186480000Y-129528352D01*
X186437728Y-129740867D01*
X186354809Y-129941052D01*
X186234422Y-130121223D01*
X186081213Y-130274432D01*
X185901042Y-130394819D01*
X185700857Y-130477738D01*
X185488342Y-130520010D01*
X185271658Y-130520010D01*
X185059143Y-130477738D01*
X184858958Y-130394819D01*
X184678787Y-130274432D01*
X184525578Y-130121223D01*
X184405191Y-129941052D01*
X184322272Y-129740867D01*
X184280000Y-129528352D01*
X184280000Y-129311668D01*
X184322272Y-129099153D01*
X184405191Y-128898968D01*
X184525578Y-128718797D01*
X184678787Y-128565588D01*
X184858958Y-128445201D01*
X185059143Y-128362282D01*
X185271658Y-128320010D01*
X185488342Y-128320010D01*
X185700857Y-128362282D01*
X185700857Y-128362282D01*
G37*
G36*
X162920857Y-128362282D02*
X163121042Y-128445201D01*
X163301213Y-128565588D01*
X163454422Y-128718797D01*
X163574809Y-128898968D01*
X163657728Y-129099153D01*
X163700000Y-129311668D01*
X163700000Y-129528352D01*
X163657728Y-129740867D01*
X163574809Y-129941052D01*
X163454422Y-130121223D01*
X163301213Y-130274432D01*
X163121042Y-130394819D01*
X162920857Y-130477738D01*
X162708342Y-130520010D01*
X162491658Y-130520010D01*
X162279143Y-130477738D01*
X162078958Y-130394819D01*
X161898787Y-130274432D01*
X161745578Y-130121223D01*
X161625191Y-129941052D01*
X161542272Y-129740867D01*
X161500000Y-129528352D01*
X161500000Y-129311668D01*
X161542272Y-129099153D01*
X161625191Y-128898968D01*
X161745578Y-128718797D01*
X161898787Y-128565588D01*
X162078958Y-128445201D01*
X162279143Y-128362282D01*
X162491658Y-128320010D01*
X162708342Y-128320010D01*
X162920857Y-128362282D01*
X162920857Y-128362282D01*
G37*
G36*
X160380857Y-128362282D02*
X160581042Y-128445201D01*
X160761213Y-128565588D01*
X160914422Y-128718797D01*
X161034809Y-128898968D01*
X161117728Y-129099153D01*
X161160000Y-129311668D01*
X161160000Y-129528352D01*
X161117728Y-129740867D01*
X161034809Y-129941052D01*
X160914422Y-130121223D01*
X160761213Y-130274432D01*
X160581042Y-130394819D01*
X160380857Y-130477738D01*
X160168342Y-130520010D01*
X159951658Y-130520010D01*
X159739143Y-130477738D01*
X159538958Y-130394819D01*
X159358787Y-130274432D01*
X159205578Y-130121223D01*
X159085191Y-129941052D01*
X159002272Y-129740867D01*
X158960000Y-129528352D01*
X158960000Y-129311668D01*
X159002272Y-129099153D01*
X159085191Y-128898968D01*
X159205578Y-128718797D01*
X159358787Y-128565588D01*
X159538958Y-128445201D01*
X159739143Y-128362282D01*
X159951658Y-128320010D01*
X160168342Y-128320010D01*
X160380857Y-128362282D01*
X160380857Y-128362282D01*
G37*
G36*
X142600857Y-128362282D02*
X142801042Y-128445201D01*
X142981213Y-128565588D01*
X143134422Y-128718797D01*
X143254809Y-128898968D01*
X143337728Y-129099153D01*
X143380000Y-129311668D01*
X143380000Y-129528352D01*
X143337728Y-129740867D01*
X143254809Y-129941052D01*
X143134422Y-130121223D01*
X142981213Y-130274432D01*
X142801042Y-130394819D01*
X142600857Y-130477738D01*
X142388342Y-130520010D01*
X142171658Y-130520010D01*
X141959143Y-130477738D01*
X141758958Y-130394819D01*
X141578787Y-130274432D01*
X141425578Y-130121223D01*
X141305191Y-129941052D01*
X141222272Y-129740867D01*
X141180000Y-129528352D01*
X141180000Y-129311668D01*
X141222272Y-129099153D01*
X141305191Y-128898968D01*
X141425578Y-128718797D01*
X141578787Y-128565588D01*
X141758958Y-128445201D01*
X141959143Y-128362282D01*
X142171658Y-128320010D01*
X142388342Y-128320010D01*
X142600857Y-128362282D01*
X142600857Y-128362282D01*
G37*
G36*
X150499586Y-127656995D02*
X150717972Y-127747453D01*
X150914518Y-127878781D01*
X151081659Y-128045922D01*
X151212987Y-128242468D01*
X151303445Y-128460854D01*
X151349560Y-128692689D01*
X151349560Y-128929071D01*
X151303445Y-129160906D01*
X151212987Y-129379292D01*
X151081659Y-129575838D01*
X150914518Y-129742979D01*
X150717972Y-129874307D01*
X150499586Y-129964765D01*
X150267751Y-130010880D01*
X150031369Y-130010880D01*
X149799534Y-129964765D01*
X149581148Y-129874307D01*
X149384602Y-129742979D01*
X149217461Y-129575838D01*
X149086133Y-129379292D01*
X148995675Y-129160906D01*
X148949560Y-128929071D01*
X148949560Y-128692689D01*
X148995675Y-128460854D01*
X149086133Y-128242468D01*
X149217461Y-128045922D01*
X149384602Y-127878781D01*
X149581148Y-127747453D01*
X149799534Y-127656995D01*
X150031369Y-127610880D01*
X150267751Y-127610880D01*
X150499586Y-127656995D01*
X150499586Y-127656995D01*
G37*
G36*
X154999586Y-127656995D02*
X155217972Y-127747453D01*
X155414518Y-127878781D01*
X155581659Y-128045922D01*
X155712987Y-128242468D01*
X155803445Y-128460854D01*
X155849560Y-128692689D01*
X155849560Y-128929071D01*
X155803445Y-129160906D01*
X155712987Y-129379292D01*
X155581659Y-129575838D01*
X155414518Y-129742979D01*
X155217972Y-129874307D01*
X154999586Y-129964765D01*
X154767751Y-130010880D01*
X154531369Y-130010880D01*
X154299534Y-129964765D01*
X154081148Y-129874307D01*
X153884602Y-129742979D01*
X153717461Y-129575838D01*
X153586133Y-129379292D01*
X153495675Y-129160906D01*
X153449560Y-128929071D01*
X153449560Y-128692689D01*
X153495675Y-128460854D01*
X153586133Y-128242468D01*
X153717461Y-128045922D01*
X153884602Y-127878781D01*
X154081148Y-127747453D01*
X154299534Y-127656995D01*
X154531369Y-127610880D01*
X154767751Y-127610880D01*
X154999586Y-127656995D01*
X154999586Y-127656995D01*
G37*
G36*
X117774845Y-120638810D02*
X118019896Y-120713145D01*
X118245736Y-120833860D01*
X118443687Y-120996313D01*
X118606140Y-121194264D01*
X118726855Y-121420104D01*
X118801190Y-121665155D01*
X118826290Y-121920000D01*
X118801190Y-122174845D01*
X118726855Y-122419896D01*
X118606140Y-122645736D01*
X118443687Y-122843687D01*
X118245736Y-123006140D01*
X118019896Y-123126855D01*
X117774845Y-123201190D01*
X117583864Y-123220000D01*
X116656136Y-123220000D01*
X116465155Y-123201190D01*
X116220104Y-123126855D01*
X115994264Y-123006140D01*
X115796313Y-122843687D01*
X115633860Y-122645736D01*
X115513145Y-122419896D01*
X115438810Y-122174845D01*
X115413710Y-121920000D01*
X115438810Y-121665155D01*
X115513145Y-121420104D01*
X115633860Y-121194264D01*
X115796313Y-120996313D01*
X115994264Y-120833860D01*
X116220104Y-120713145D01*
X116465155Y-120638810D01*
X116656136Y-120620000D01*
X117583864Y-120620000D01*
X117774845Y-120638810D01*
X117774845Y-120638810D01*
G37*
G36*
X147694845Y-120638810D02*
X147939896Y-120713145D01*
X148165736Y-120833860D01*
X148363687Y-120996313D01*
X148526140Y-121194264D01*
X148646855Y-121420104D01*
X148721190Y-121665155D01*
X148746290Y-121920000D01*
X148721190Y-122174845D01*
X148646855Y-122419896D01*
X148526140Y-122645736D01*
X148363687Y-122843687D01*
X148165736Y-123006140D01*
X147939896Y-123126855D01*
X147694845Y-123201190D01*
X147503864Y-123220000D01*
X146576136Y-123220000D01*
X146385155Y-123201190D01*
X146140104Y-123126855D01*
X145914264Y-123006140D01*
X145716313Y-122843687D01*
X145553860Y-122645736D01*
X145433145Y-122419896D01*
X145358810Y-122174845D01*
X145333710Y-121920000D01*
X145358810Y-121665155D01*
X145433145Y-121420104D01*
X145553860Y-121194264D01*
X145716313Y-120996313D01*
X145914264Y-120833860D01*
X146140104Y-120713145D01*
X146385155Y-120638810D01*
X146576136Y-120620000D01*
X147503864Y-120620000D01*
X147694845Y-120638810D01*
X147694845Y-120638810D01*
G37*
G36*
X168014845Y-120638810D02*
X168259896Y-120713145D01*
X168485736Y-120833860D01*
X168683687Y-120996313D01*
X168846140Y-121194264D01*
X168966855Y-121420104D01*
X169041190Y-121665155D01*
X169066290Y-121920000D01*
X169041190Y-122174845D01*
X168966855Y-122419896D01*
X168846140Y-122645736D01*
X168683687Y-122843687D01*
X168485736Y-123006140D01*
X168259896Y-123126855D01*
X168014845Y-123201190D01*
X167823864Y-123220000D01*
X166896136Y-123220000D01*
X166705155Y-123201190D01*
X166460104Y-123126855D01*
X166234264Y-123006140D01*
X166036313Y-122843687D01*
X165873860Y-122645736D01*
X165753145Y-122419896D01*
X165678810Y-122174845D01*
X165653710Y-121920000D01*
X165678810Y-121665155D01*
X165753145Y-121420104D01*
X165873860Y-121194264D01*
X166036313Y-120996313D01*
X166234264Y-120833860D01*
X166460104Y-120713145D01*
X166705155Y-120638810D01*
X166896136Y-120620000D01*
X167823864Y-120620000D01*
X168014845Y-120638810D01*
X168014845Y-120638810D01*
G37*
G36*
X138094845Y-120638810D02*
X138339896Y-120713145D01*
X138565736Y-120833860D01*
X138763687Y-120996313D01*
X138926140Y-121194264D01*
X139046855Y-121420104D01*
X139121190Y-121665155D01*
X139146290Y-121920000D01*
X139121190Y-122174845D01*
X139046855Y-122419896D01*
X138926140Y-122645736D01*
X138763687Y-122843687D01*
X138565736Y-123006140D01*
X138339896Y-123126855D01*
X138094845Y-123201190D01*
X137903864Y-123220000D01*
X136976136Y-123220000D01*
X136785155Y-123201190D01*
X136540104Y-123126855D01*
X136314264Y-123006140D01*
X136116313Y-122843687D01*
X135953860Y-122645736D01*
X135833145Y-122419896D01*
X135758810Y-122174845D01*
X135733710Y-121920000D01*
X135758810Y-121665155D01*
X135833145Y-121420104D01*
X135953860Y-121194264D01*
X136116313Y-120996313D01*
X136314264Y-120833860D01*
X136540104Y-120713145D01*
X136785155Y-120638810D01*
X136976136Y-120620000D01*
X137903864Y-120620000D01*
X138094845Y-120638810D01*
X138094845Y-120638810D01*
G37*
G36*
X127374845Y-120638810D02*
X127619896Y-120713145D01*
X127845736Y-120833860D01*
X128043687Y-120996313D01*
X128206140Y-121194264D01*
X128326855Y-121420104D01*
X128401190Y-121665155D01*
X128426290Y-121920000D01*
X128401190Y-122174845D01*
X128326855Y-122419896D01*
X128206140Y-122645736D01*
X128043687Y-122843687D01*
X127845736Y-123006140D01*
X127619896Y-123126855D01*
X127374845Y-123201190D01*
X127183864Y-123220000D01*
X126256136Y-123220000D01*
X126065155Y-123201190D01*
X125820104Y-123126855D01*
X125594264Y-123006140D01*
X125396313Y-122843687D01*
X125233860Y-122645736D01*
X125113145Y-122419896D01*
X125038810Y-122174845D01*
X125013710Y-121920000D01*
X125038810Y-121665155D01*
X125113145Y-121420104D01*
X125233860Y-121194264D01*
X125396313Y-120996313D01*
X125594264Y-120833860D01*
X125820104Y-120713145D01*
X126065155Y-120638810D01*
X126256136Y-120620000D01*
X127183864Y-120620000D01*
X127374845Y-120638810D01*
X127374845Y-120638810D01*
G37*
G36*
X188334845Y-120638810D02*
X188579896Y-120713145D01*
X188805736Y-120833860D01*
X189003687Y-120996313D01*
X189166140Y-121194264D01*
X189286855Y-121420104D01*
X189361190Y-121665155D01*
X189386290Y-121920000D01*
X189361190Y-122174845D01*
X189286855Y-122419896D01*
X189166140Y-122645736D01*
X189003687Y-122843687D01*
X188805736Y-123006140D01*
X188579896Y-123126855D01*
X188334845Y-123201190D01*
X188143864Y-123220000D01*
X187216136Y-123220000D01*
X187025155Y-123201190D01*
X186780104Y-123126855D01*
X186554264Y-123006140D01*
X186356313Y-122843687D01*
X186193860Y-122645736D01*
X186073145Y-122419896D01*
X185998810Y-122174845D01*
X185973710Y-121920000D01*
X185998810Y-121665155D01*
X186073145Y-121420104D01*
X186193860Y-121194264D01*
X186356313Y-120996313D01*
X186554264Y-120833860D01*
X186780104Y-120713145D01*
X187025155Y-120638810D01*
X187216136Y-120620000D01*
X188143864Y-120620000D01*
X188334845Y-120638810D01*
X188334845Y-120638810D01*
G37*
G36*
X158414845Y-120638810D02*
X158659896Y-120713145D01*
X158885736Y-120833860D01*
X159083687Y-120996313D01*
X159246140Y-121194264D01*
X159366855Y-121420104D01*
X159441190Y-121665155D01*
X159466290Y-121920000D01*
X159441190Y-122174845D01*
X159366855Y-122419896D01*
X159246140Y-122645736D01*
X159083687Y-122843687D01*
X158885736Y-123006140D01*
X158659896Y-123126855D01*
X158414845Y-123201190D01*
X158223864Y-123220000D01*
X157296136Y-123220000D01*
X157105155Y-123201190D01*
X156860104Y-123126855D01*
X156634264Y-123006140D01*
X156436313Y-122843687D01*
X156273860Y-122645736D01*
X156153145Y-122419896D01*
X156078810Y-122174845D01*
X156053710Y-121920000D01*
X156078810Y-121665155D01*
X156153145Y-121420104D01*
X156273860Y-121194264D01*
X156436313Y-120996313D01*
X156634264Y-120833860D01*
X156860104Y-120713145D01*
X157105155Y-120638810D01*
X157296136Y-120620000D01*
X158223864Y-120620000D01*
X158414845Y-120638810D01*
X158414845Y-120638810D01*
G37*
G36*
X178734845Y-120638810D02*
X178979896Y-120713145D01*
X179205736Y-120833860D01*
X179403687Y-120996313D01*
X179566140Y-121194264D01*
X179686855Y-121420104D01*
X179761190Y-121665155D01*
X179786290Y-121920000D01*
X179761190Y-122174845D01*
X179686855Y-122419896D01*
X179566140Y-122645736D01*
X179403687Y-122843687D01*
X179205736Y-123006140D01*
X178979896Y-123126855D01*
X178734845Y-123201190D01*
X178543864Y-123220000D01*
X177616136Y-123220000D01*
X177425155Y-123201190D01*
X177180104Y-123126855D01*
X176954264Y-123006140D01*
X176756313Y-122843687D01*
X176593860Y-122645736D01*
X176473145Y-122419896D01*
X176398810Y-122174845D01*
X176373710Y-121920000D01*
X176398810Y-121665155D01*
X176473145Y-121420104D01*
X176593860Y-121194264D01*
X176756313Y-120996313D01*
X176954264Y-120833860D01*
X177180104Y-120713145D01*
X177425155Y-120638810D01*
X177616136Y-120620000D01*
X178543864Y-120620000D01*
X178734845Y-120638810D01*
X178734845Y-120638810D01*
G37*
G36*
X143121281Y-107629865D02*
X143240378Y-107641595D01*
X143393189Y-107687950D01*
X143469595Y-107711127D01*
X143526052Y-107741304D01*
X143680842Y-107824041D01*
X143866002Y-107975998D01*
X144017959Y-108161158D01*
X144100696Y-108315948D01*
X144130873Y-108372405D01*
X144130873Y-108372406D01*
X144200405Y-108601622D01*
X144223883Y-108840000D01*
X144200405Y-109078378D01*
X144169095Y-109181594D01*
X144130873Y-109307595D01*
X144100696Y-109364052D01*
X144017959Y-109518842D01*
X143866002Y-109704002D01*
X143680842Y-109855959D01*
X143526052Y-109938696D01*
X143469595Y-109968873D01*
X143393189Y-109992050D01*
X143240378Y-110038405D01*
X143121281Y-110050135D01*
X143061733Y-110056000D01*
X141418267Y-110056000D01*
X141358719Y-110050135D01*
X141239622Y-110038405D01*
X141086811Y-109992050D01*
X141010405Y-109968873D01*
X140953948Y-109938696D01*
X140799158Y-109855959D01*
X140613998Y-109704002D01*
X140462041Y-109518842D01*
X140379304Y-109364052D01*
X140349127Y-109307595D01*
X140310905Y-109181594D01*
X140279595Y-109078378D01*
X140256117Y-108840000D01*
X140279595Y-108601622D01*
X140349127Y-108372406D01*
X140349127Y-108372405D01*
X140379304Y-108315948D01*
X140462041Y-108161158D01*
X140613998Y-107975998D01*
X140799158Y-107824041D01*
X140953948Y-107741304D01*
X141010405Y-107711127D01*
X141086811Y-107687950D01*
X141239622Y-107641595D01*
X141358719Y-107629865D01*
X141418267Y-107624000D01*
X143061733Y-107624000D01*
X143121281Y-107629865D01*
X143121281Y-107629865D01*
G37*
G36*
X183761281Y-107629865D02*
X183880378Y-107641595D01*
X184033189Y-107687950D01*
X184109595Y-107711127D01*
X184166052Y-107741304D01*
X184320842Y-107824041D01*
X184506002Y-107975998D01*
X184657959Y-108161158D01*
X184740696Y-108315948D01*
X184770873Y-108372405D01*
X184770873Y-108372406D01*
X184840405Y-108601622D01*
X184863883Y-108840000D01*
X184840405Y-109078378D01*
X184809095Y-109181594D01*
X184770873Y-109307595D01*
X184740696Y-109364052D01*
X184657959Y-109518842D01*
X184506002Y-109704002D01*
X184320842Y-109855959D01*
X184166052Y-109938696D01*
X184109595Y-109968873D01*
X184033189Y-109992050D01*
X183880378Y-110038405D01*
X183761281Y-110050135D01*
X183701733Y-110056000D01*
X182058267Y-110056000D01*
X181998719Y-110050135D01*
X181879622Y-110038405D01*
X181726811Y-109992050D01*
X181650405Y-109968873D01*
X181593948Y-109938696D01*
X181439158Y-109855959D01*
X181253998Y-109704002D01*
X181102041Y-109518842D01*
X181019304Y-109364052D01*
X180989127Y-109307595D01*
X180950905Y-109181594D01*
X180919595Y-109078378D01*
X180896117Y-108840000D01*
X180919595Y-108601622D01*
X180989127Y-108372406D01*
X180989127Y-108372405D01*
X181019304Y-108315948D01*
X181102041Y-108161158D01*
X181253998Y-107975998D01*
X181439158Y-107824041D01*
X181593948Y-107741304D01*
X181650405Y-107711127D01*
X181726811Y-107687950D01*
X181879622Y-107641595D01*
X181998719Y-107629865D01*
X182058267Y-107624000D01*
X183701733Y-107624000D01*
X183761281Y-107629865D01*
X183761281Y-107629865D01*
G37*
G36*
X163441281Y-107629865D02*
X163560378Y-107641595D01*
X163713189Y-107687950D01*
X163789595Y-107711127D01*
X163846052Y-107741304D01*
X164000842Y-107824041D01*
X164186002Y-107975998D01*
X164337959Y-108161158D01*
X164420696Y-108315948D01*
X164450873Y-108372405D01*
X164450873Y-108372406D01*
X164520405Y-108601622D01*
X164543883Y-108840000D01*
X164520405Y-109078378D01*
X164489095Y-109181594D01*
X164450873Y-109307595D01*
X164420696Y-109364052D01*
X164337959Y-109518842D01*
X164186002Y-109704002D01*
X164000842Y-109855959D01*
X163846052Y-109938696D01*
X163789595Y-109968873D01*
X163713189Y-109992050D01*
X163560378Y-110038405D01*
X163441281Y-110050135D01*
X163381733Y-110056000D01*
X161738267Y-110056000D01*
X161678719Y-110050135D01*
X161559622Y-110038405D01*
X161406811Y-109992050D01*
X161330405Y-109968873D01*
X161273948Y-109938696D01*
X161119158Y-109855959D01*
X160933998Y-109704002D01*
X160782041Y-109518842D01*
X160699304Y-109364052D01*
X160669127Y-109307595D01*
X160630905Y-109181594D01*
X160599595Y-109078378D01*
X160576117Y-108840000D01*
X160599595Y-108601622D01*
X160669127Y-108372406D01*
X160669127Y-108372405D01*
X160699304Y-108315948D01*
X160782041Y-108161158D01*
X160933998Y-107975998D01*
X161119158Y-107824041D01*
X161273948Y-107741304D01*
X161330405Y-107711127D01*
X161406811Y-107687950D01*
X161559622Y-107641595D01*
X161678719Y-107629865D01*
X161738267Y-107624000D01*
X163381733Y-107624000D01*
X163441281Y-107629865D01*
X163441281Y-107629865D01*
G37*
G36*
X122719281Y-107503865D02*
X122838378Y-107515595D01*
X122991189Y-107561950D01*
X123067595Y-107585127D01*
X123124052Y-107615304D01*
X123278842Y-107698041D01*
X123464002Y-107849998D01*
X123615959Y-108035158D01*
X123683307Y-108161158D01*
X123728873Y-108246405D01*
X123728873Y-108246406D01*
X123798405Y-108475622D01*
X123821883Y-108714000D01*
X123798405Y-108952378D01*
X123760184Y-109078376D01*
X123728873Y-109181595D01*
X123698696Y-109238052D01*
X123615959Y-109392842D01*
X123464002Y-109578002D01*
X123278842Y-109729959D01*
X123124052Y-109812696D01*
X123067595Y-109842873D01*
X122991189Y-109866050D01*
X122838378Y-109912405D01*
X122719281Y-109924135D01*
X122659733Y-109930000D01*
X121016267Y-109930000D01*
X120956719Y-109924135D01*
X120837622Y-109912405D01*
X120684811Y-109866050D01*
X120608405Y-109842873D01*
X120551948Y-109812696D01*
X120397158Y-109729959D01*
X120211998Y-109578002D01*
X120060041Y-109392842D01*
X119977304Y-109238052D01*
X119947127Y-109181595D01*
X119915816Y-109078376D01*
X119877595Y-108952378D01*
X119854117Y-108714000D01*
X119877595Y-108475622D01*
X119947127Y-108246406D01*
X119947127Y-108246405D01*
X119992693Y-108161158D01*
X120060041Y-108035158D01*
X120211998Y-107849998D01*
X120397158Y-107698041D01*
X120551948Y-107615304D01*
X120608405Y-107585127D01*
X120684811Y-107561950D01*
X120837622Y-107515595D01*
X120956719Y-107503865D01*
X121016267Y-107498000D01*
X122659733Y-107498000D01*
X122719281Y-107503865D01*
X122719281Y-107503865D01*
G37*
G36*
X143121281Y-102929865D02*
X143240378Y-102941595D01*
X143393189Y-102987950D01*
X143469595Y-103011127D01*
X143526052Y-103041304D01*
X143680842Y-103124041D01*
X143866002Y-103275998D01*
X144017959Y-103461158D01*
X144100696Y-103615948D01*
X144130873Y-103672405D01*
X144130873Y-103672406D01*
X144200405Y-103901622D01*
X144223883Y-104140000D01*
X144200405Y-104378378D01*
X144169095Y-104481594D01*
X144130873Y-104607595D01*
X144100696Y-104664052D01*
X144017959Y-104818842D01*
X143866002Y-105004002D01*
X143680842Y-105155959D01*
X143526052Y-105238696D01*
X143469595Y-105268873D01*
X143393189Y-105292050D01*
X143240378Y-105338405D01*
X143121281Y-105350135D01*
X143061733Y-105356000D01*
X141418267Y-105356000D01*
X141358719Y-105350135D01*
X141239622Y-105338405D01*
X141086811Y-105292050D01*
X141010405Y-105268873D01*
X140953948Y-105238696D01*
X140799158Y-105155959D01*
X140613998Y-105004002D01*
X140462041Y-104818842D01*
X140379304Y-104664052D01*
X140349127Y-104607595D01*
X140310905Y-104481594D01*
X140279595Y-104378378D01*
X140256117Y-104140000D01*
X140279595Y-103901622D01*
X140349127Y-103672406D01*
X140349127Y-103672405D01*
X140379304Y-103615948D01*
X140462041Y-103461158D01*
X140613998Y-103275998D01*
X140799158Y-103124041D01*
X140953948Y-103041304D01*
X141010405Y-103011127D01*
X141086811Y-102987950D01*
X141239622Y-102941595D01*
X141358719Y-102929865D01*
X141418267Y-102924000D01*
X143061733Y-102924000D01*
X143121281Y-102929865D01*
X143121281Y-102929865D01*
G37*
G36*
X183761281Y-102929865D02*
X183880378Y-102941595D01*
X184033189Y-102987950D01*
X184109595Y-103011127D01*
X184166052Y-103041304D01*
X184320842Y-103124041D01*
X184506002Y-103275998D01*
X184657959Y-103461158D01*
X184740696Y-103615948D01*
X184770873Y-103672405D01*
X184770873Y-103672406D01*
X184840405Y-103901622D01*
X184863883Y-104140000D01*
X184840405Y-104378378D01*
X184809095Y-104481594D01*
X184770873Y-104607595D01*
X184740696Y-104664052D01*
X184657959Y-104818842D01*
X184506002Y-105004002D01*
X184320842Y-105155959D01*
X184166052Y-105238696D01*
X184109595Y-105268873D01*
X184033189Y-105292050D01*
X183880378Y-105338405D01*
X183761281Y-105350135D01*
X183701733Y-105356000D01*
X182058267Y-105356000D01*
X181998719Y-105350135D01*
X181879622Y-105338405D01*
X181726811Y-105292050D01*
X181650405Y-105268873D01*
X181593948Y-105238696D01*
X181439158Y-105155959D01*
X181253998Y-105004002D01*
X181102041Y-104818842D01*
X181019304Y-104664052D01*
X180989127Y-104607595D01*
X180950905Y-104481594D01*
X180919595Y-104378378D01*
X180896117Y-104140000D01*
X180919595Y-103901622D01*
X180989127Y-103672406D01*
X180989127Y-103672405D01*
X181019304Y-103615948D01*
X181102041Y-103461158D01*
X181253998Y-103275998D01*
X181439158Y-103124041D01*
X181593948Y-103041304D01*
X181650405Y-103011127D01*
X181726811Y-102987950D01*
X181879622Y-102941595D01*
X181998719Y-102929865D01*
X182058267Y-102924000D01*
X183701733Y-102924000D01*
X183761281Y-102929865D01*
X183761281Y-102929865D01*
G37*
G36*
X163441281Y-102929865D02*
X163560378Y-102941595D01*
X163713189Y-102987950D01*
X163789595Y-103011127D01*
X163846052Y-103041304D01*
X164000842Y-103124041D01*
X164186002Y-103275998D01*
X164337959Y-103461158D01*
X164420696Y-103615948D01*
X164450873Y-103672405D01*
X164450873Y-103672406D01*
X164520405Y-103901622D01*
X164543883Y-104140000D01*
X164520405Y-104378378D01*
X164489095Y-104481594D01*
X164450873Y-104607595D01*
X164420696Y-104664052D01*
X164337959Y-104818842D01*
X164186002Y-105004002D01*
X164000842Y-105155959D01*
X163846052Y-105238696D01*
X163789595Y-105268873D01*
X163713189Y-105292050D01*
X163560378Y-105338405D01*
X163441281Y-105350135D01*
X163381733Y-105356000D01*
X161738267Y-105356000D01*
X161678719Y-105350135D01*
X161559622Y-105338405D01*
X161406811Y-105292050D01*
X161330405Y-105268873D01*
X161273948Y-105238696D01*
X161119158Y-105155959D01*
X160933998Y-105004002D01*
X160782041Y-104818842D01*
X160699304Y-104664052D01*
X160669127Y-104607595D01*
X160630905Y-104481594D01*
X160599595Y-104378378D01*
X160576117Y-104140000D01*
X160599595Y-103901622D01*
X160669127Y-103672406D01*
X160669127Y-103672405D01*
X160699304Y-103615948D01*
X160782041Y-103461158D01*
X160933998Y-103275998D01*
X161119158Y-103124041D01*
X161273948Y-103041304D01*
X161330405Y-103011127D01*
X161406811Y-102987950D01*
X161559622Y-102941595D01*
X161678719Y-102929865D01*
X161738267Y-102924000D01*
X163381733Y-102924000D01*
X163441281Y-102929865D01*
X163441281Y-102929865D01*
G37*
G36*
X122719281Y-102803865D02*
X122838378Y-102815595D01*
X122991189Y-102861950D01*
X123067595Y-102885127D01*
X123124052Y-102915304D01*
X123278842Y-102998041D01*
X123464002Y-103149998D01*
X123615959Y-103335158D01*
X123683307Y-103461158D01*
X123728873Y-103546405D01*
X123728873Y-103546406D01*
X123798405Y-103775622D01*
X123821883Y-104014000D01*
X123798405Y-104252378D01*
X123760184Y-104378376D01*
X123728873Y-104481595D01*
X123698696Y-104538052D01*
X123615959Y-104692842D01*
X123464002Y-104878002D01*
X123278842Y-105029959D01*
X123124052Y-105112696D01*
X123067595Y-105142873D01*
X122991189Y-105166050D01*
X122838378Y-105212405D01*
X122719281Y-105224135D01*
X122659733Y-105230000D01*
X121016267Y-105230000D01*
X120956719Y-105224135D01*
X120837622Y-105212405D01*
X120684811Y-105166050D01*
X120608405Y-105142873D01*
X120551948Y-105112696D01*
X120397158Y-105029959D01*
X120211998Y-104878002D01*
X120060041Y-104692842D01*
X119977304Y-104538052D01*
X119947127Y-104481595D01*
X119915816Y-104378376D01*
X119877595Y-104252378D01*
X119854117Y-104014000D01*
X119877595Y-103775622D01*
X119947127Y-103546406D01*
X119947127Y-103546405D01*
X119992693Y-103461158D01*
X120060041Y-103335158D01*
X120211998Y-103149998D01*
X120397158Y-102998041D01*
X120551948Y-102915304D01*
X120608405Y-102885127D01*
X120684811Y-102861950D01*
X120837622Y-102815595D01*
X120956719Y-102803865D01*
X121016267Y-102798000D01*
X122659733Y-102798000D01*
X122719281Y-102803865D01*
X122719281Y-102803865D01*
G37*
G36*
X163441281Y-98229865D02*
X163560378Y-98241595D01*
X163713189Y-98287950D01*
X163789595Y-98311127D01*
X163846052Y-98341304D01*
X164000842Y-98424041D01*
X164186002Y-98575998D01*
X164337959Y-98761158D01*
X164420696Y-98915948D01*
X164450873Y-98972405D01*
X164450873Y-98972406D01*
X164520405Y-99201622D01*
X164543883Y-99440000D01*
X164520405Y-99678378D01*
X164489095Y-99781594D01*
X164450873Y-99907595D01*
X164420696Y-99964052D01*
X164337959Y-100118842D01*
X164186002Y-100304002D01*
X164000842Y-100455959D01*
X163846052Y-100538696D01*
X163789595Y-100568873D01*
X163713189Y-100592050D01*
X163560378Y-100638405D01*
X163441281Y-100650135D01*
X163381733Y-100656000D01*
X161738267Y-100656000D01*
X161678719Y-100650135D01*
X161559622Y-100638405D01*
X161406811Y-100592050D01*
X161330405Y-100568873D01*
X161273948Y-100538696D01*
X161119158Y-100455959D01*
X160933998Y-100304002D01*
X160782041Y-100118842D01*
X160699304Y-99964052D01*
X160669127Y-99907595D01*
X160630905Y-99781594D01*
X160599595Y-99678378D01*
X160576117Y-99440000D01*
X160599595Y-99201622D01*
X160669127Y-98972406D01*
X160669127Y-98972405D01*
X160699304Y-98915948D01*
X160782041Y-98761158D01*
X160933998Y-98575998D01*
X161119158Y-98424041D01*
X161273948Y-98341304D01*
X161330405Y-98311127D01*
X161406811Y-98287950D01*
X161559622Y-98241595D01*
X161678719Y-98229865D01*
X161738267Y-98224000D01*
X163381733Y-98224000D01*
X163441281Y-98229865D01*
X163441281Y-98229865D01*
G37*
G36*
X143121281Y-98229865D02*
X143240378Y-98241595D01*
X143393189Y-98287950D01*
X143469595Y-98311127D01*
X143526052Y-98341304D01*
X143680842Y-98424041D01*
X143866002Y-98575998D01*
X144017959Y-98761158D01*
X144100696Y-98915948D01*
X144130873Y-98972405D01*
X144130873Y-98972406D01*
X144200405Y-99201622D01*
X144223883Y-99440000D01*
X144200405Y-99678378D01*
X144169095Y-99781594D01*
X144130873Y-99907595D01*
X144100696Y-99964052D01*
X144017959Y-100118842D01*
X143866002Y-100304002D01*
X143680842Y-100455959D01*
X143526052Y-100538696D01*
X143469595Y-100568873D01*
X143393189Y-100592050D01*
X143240378Y-100638405D01*
X143121281Y-100650135D01*
X143061733Y-100656000D01*
X141418267Y-100656000D01*
X141358719Y-100650135D01*
X141239622Y-100638405D01*
X141086811Y-100592050D01*
X141010405Y-100568873D01*
X140953948Y-100538696D01*
X140799158Y-100455959D01*
X140613998Y-100304002D01*
X140462041Y-100118842D01*
X140379304Y-99964052D01*
X140349127Y-99907595D01*
X140310905Y-99781594D01*
X140279595Y-99678378D01*
X140256117Y-99440000D01*
X140279595Y-99201622D01*
X140349127Y-98972406D01*
X140349127Y-98972405D01*
X140379304Y-98915948D01*
X140462041Y-98761158D01*
X140613998Y-98575998D01*
X140799158Y-98424041D01*
X140953948Y-98341304D01*
X141010405Y-98311127D01*
X141086811Y-98287950D01*
X141239622Y-98241595D01*
X141358719Y-98229865D01*
X141418267Y-98224000D01*
X143061733Y-98224000D01*
X143121281Y-98229865D01*
X143121281Y-98229865D01*
G37*
G36*
X183761281Y-98229865D02*
X183880378Y-98241595D01*
X184033189Y-98287950D01*
X184109595Y-98311127D01*
X184166052Y-98341304D01*
X184320842Y-98424041D01*
X184506002Y-98575998D01*
X184657959Y-98761158D01*
X184740696Y-98915948D01*
X184770873Y-98972405D01*
X184770873Y-98972406D01*
X184840405Y-99201622D01*
X184863883Y-99440000D01*
X184840405Y-99678378D01*
X184809095Y-99781594D01*
X184770873Y-99907595D01*
X184740696Y-99964052D01*
X184657959Y-100118842D01*
X184506002Y-100304002D01*
X184320842Y-100455959D01*
X184166052Y-100538696D01*
X184109595Y-100568873D01*
X184033189Y-100592050D01*
X183880378Y-100638405D01*
X183761281Y-100650135D01*
X183701733Y-100656000D01*
X182058267Y-100656000D01*
X181998719Y-100650135D01*
X181879622Y-100638405D01*
X181726811Y-100592050D01*
X181650405Y-100568873D01*
X181593948Y-100538696D01*
X181439158Y-100455959D01*
X181253998Y-100304002D01*
X181102041Y-100118842D01*
X181019304Y-99964052D01*
X180989127Y-99907595D01*
X180950905Y-99781594D01*
X180919595Y-99678378D01*
X180896117Y-99440000D01*
X180919595Y-99201622D01*
X180989127Y-98972406D01*
X180989127Y-98972405D01*
X181019304Y-98915948D01*
X181102041Y-98761158D01*
X181253998Y-98575998D01*
X181439158Y-98424041D01*
X181593948Y-98341304D01*
X181650405Y-98311127D01*
X181726811Y-98287950D01*
X181879622Y-98241595D01*
X181998719Y-98229865D01*
X182058267Y-98224000D01*
X183701733Y-98224000D01*
X183761281Y-98229865D01*
X183761281Y-98229865D01*
G37*
G36*
X122719281Y-98103865D02*
X122838378Y-98115595D01*
X122991189Y-98161950D01*
X123067595Y-98185127D01*
X123124052Y-98215304D01*
X123278842Y-98298041D01*
X123464002Y-98449998D01*
X123615959Y-98635158D01*
X123683307Y-98761158D01*
X123728873Y-98846405D01*
X123728873Y-98846406D01*
X123798405Y-99075622D01*
X123821883Y-99314000D01*
X123798405Y-99552378D01*
X123760184Y-99678376D01*
X123728873Y-99781595D01*
X123698696Y-99838052D01*
X123615959Y-99992842D01*
X123464002Y-100178002D01*
X123278842Y-100329959D01*
X123124052Y-100412696D01*
X123067595Y-100442873D01*
X122991189Y-100466050D01*
X122838378Y-100512405D01*
X122719281Y-100524135D01*
X122659733Y-100530000D01*
X121016267Y-100530000D01*
X120956719Y-100524135D01*
X120837622Y-100512405D01*
X120684811Y-100466050D01*
X120608405Y-100442873D01*
X120551948Y-100412696D01*
X120397158Y-100329959D01*
X120211998Y-100178002D01*
X120060041Y-99992842D01*
X119977304Y-99838052D01*
X119947127Y-99781595D01*
X119915816Y-99678376D01*
X119877595Y-99552378D01*
X119854117Y-99314000D01*
X119877595Y-99075622D01*
X119947127Y-98846406D01*
X119947127Y-98846405D01*
X119992693Y-98761158D01*
X120060041Y-98635158D01*
X120211998Y-98449998D01*
X120397158Y-98298041D01*
X120551948Y-98215304D01*
X120608405Y-98185127D01*
X120684811Y-98161950D01*
X120837622Y-98115595D01*
X120956719Y-98103865D01*
X121016267Y-98098000D01*
X122659733Y-98098000D01*
X122719281Y-98103865D01*
X122719281Y-98103865D01*
G37*
G36*
X171578707Y-96747596D02*
X171655836Y-96755193D01*
X171787787Y-96795220D01*
X171853763Y-96815233D01*
X172036172Y-96912733D01*
X172196054Y-97043946D01*
X172327267Y-97203828D01*
X172424767Y-97386237D01*
X172424767Y-97386238D01*
X172484807Y-97584164D01*
X172505080Y-97790000D01*
X172484807Y-97995836D01*
X172453816Y-98098000D01*
X172424767Y-98193763D01*
X172327267Y-98376172D01*
X172196054Y-98536054D01*
X172036172Y-98667267D01*
X171853763Y-98764767D01*
X171787787Y-98784780D01*
X171655836Y-98824807D01*
X171578707Y-98832403D01*
X171501580Y-98840000D01*
X171398420Y-98840000D01*
X171321293Y-98832403D01*
X171244164Y-98824807D01*
X171112213Y-98784780D01*
X171046237Y-98764767D01*
X170863828Y-98667267D01*
X170703946Y-98536054D01*
X170572733Y-98376172D01*
X170475233Y-98193763D01*
X170446184Y-98098000D01*
X170415193Y-97995836D01*
X170394920Y-97790000D01*
X170415193Y-97584164D01*
X170475233Y-97386238D01*
X170475233Y-97386237D01*
X170572733Y-97203828D01*
X170703946Y-97043946D01*
X170863828Y-96912733D01*
X171046237Y-96815233D01*
X171112213Y-96795220D01*
X171244164Y-96755193D01*
X171321293Y-96747596D01*
X171398420Y-96740000D01*
X171501580Y-96740000D01*
X171578707Y-96747596D01*
X171578707Y-96747596D01*
G37*
G36*
X174118707Y-96747596D02*
X174195836Y-96755193D01*
X174327787Y-96795220D01*
X174393763Y-96815233D01*
X174576172Y-96912733D01*
X174736054Y-97043946D01*
X174867267Y-97203828D01*
X174964767Y-97386237D01*
X174964767Y-97386238D01*
X175024807Y-97584164D01*
X175045080Y-97790000D01*
X175024807Y-97995836D01*
X174993816Y-98098000D01*
X174964767Y-98193763D01*
X174867267Y-98376172D01*
X174736054Y-98536054D01*
X174576172Y-98667267D01*
X174393763Y-98764767D01*
X174327787Y-98784780D01*
X174195836Y-98824807D01*
X174118707Y-98832403D01*
X174041580Y-98840000D01*
X173938420Y-98840000D01*
X173861293Y-98832403D01*
X173784164Y-98824807D01*
X173652213Y-98784780D01*
X173586237Y-98764767D01*
X173403828Y-98667267D01*
X173243946Y-98536054D01*
X173112733Y-98376172D01*
X173015233Y-98193763D01*
X172986184Y-98098000D01*
X172955193Y-97995836D01*
X172934920Y-97790000D01*
X172955193Y-97584164D01*
X173015233Y-97386238D01*
X173015233Y-97386237D01*
X173112733Y-97203828D01*
X173243946Y-97043946D01*
X173403828Y-96912733D01*
X173586237Y-96815233D01*
X173652213Y-96795220D01*
X173784164Y-96755193D01*
X173861293Y-96747596D01*
X173938420Y-96740000D01*
X174041580Y-96740000D01*
X174118707Y-96747596D01*
X174118707Y-96747596D01*
G37*
G36*
X132208707Y-96747596D02*
X132285836Y-96755193D01*
X132417787Y-96795220D01*
X132483763Y-96815233D01*
X132666172Y-96912733D01*
X132826054Y-97043946D01*
X132957267Y-97203828D01*
X133054767Y-97386237D01*
X133054767Y-97386238D01*
X133114807Y-97584164D01*
X133135080Y-97790000D01*
X133114807Y-97995836D01*
X133083816Y-98098000D01*
X133054767Y-98193763D01*
X132957267Y-98376172D01*
X132826054Y-98536054D01*
X132666172Y-98667267D01*
X132483763Y-98764767D01*
X132417787Y-98784780D01*
X132285836Y-98824807D01*
X132208707Y-98832403D01*
X132131580Y-98840000D01*
X132028420Y-98840000D01*
X131951293Y-98832403D01*
X131874164Y-98824807D01*
X131742213Y-98784780D01*
X131676237Y-98764767D01*
X131493828Y-98667267D01*
X131333946Y-98536054D01*
X131202733Y-98376172D01*
X131105233Y-98193763D01*
X131076184Y-98098000D01*
X131045193Y-97995836D01*
X131024920Y-97790000D01*
X131045193Y-97584164D01*
X131105233Y-97386238D01*
X131105233Y-97386237D01*
X131202733Y-97203828D01*
X131333946Y-97043946D01*
X131493828Y-96912733D01*
X131676237Y-96815233D01*
X131742213Y-96795220D01*
X131874164Y-96755193D01*
X131951293Y-96747596D01*
X132028420Y-96740000D01*
X132131580Y-96740000D01*
X132208707Y-96747596D01*
X132208707Y-96747596D01*
G37*
G36*
X154495000Y-97204000D02*
X152845000Y-97204000D01*
X152845000Y-95804000D01*
X154495000Y-95804000D01*
X154495000Y-97204000D01*
X154495000Y-97204000D01*
G37*
G36*
X151955000Y-97204000D02*
X150305000Y-97204000D01*
X150305000Y-95804000D01*
X151955000Y-95804000D01*
X151955000Y-97204000D01*
X151955000Y-97204000D01*
G37*
G36*
X174118707Y-94207596D02*
X174195836Y-94215193D01*
X174327787Y-94255220D01*
X174393763Y-94275233D01*
X174576172Y-94372733D01*
X174736054Y-94503946D01*
X174867267Y-94663828D01*
X174964767Y-94846237D01*
X174964767Y-94846238D01*
X175024807Y-95044164D01*
X175045080Y-95250000D01*
X175024807Y-95455836D01*
X174984780Y-95587787D01*
X174964767Y-95653763D01*
X174867267Y-95836172D01*
X174736054Y-95996054D01*
X174576172Y-96127267D01*
X174393763Y-96224767D01*
X174327787Y-96244780D01*
X174195836Y-96284807D01*
X174118707Y-96292403D01*
X174041580Y-96300000D01*
X173938420Y-96300000D01*
X173861293Y-96292403D01*
X173784164Y-96284807D01*
X173652213Y-96244780D01*
X173586237Y-96224767D01*
X173403828Y-96127267D01*
X173243946Y-95996054D01*
X173112733Y-95836172D01*
X173015233Y-95653763D01*
X172995220Y-95587787D01*
X172955193Y-95455836D01*
X172934920Y-95250000D01*
X172955193Y-95044164D01*
X173015233Y-94846238D01*
X173015233Y-94846237D01*
X173112733Y-94663828D01*
X173243946Y-94503946D01*
X173403828Y-94372733D01*
X173586237Y-94275233D01*
X173652213Y-94255220D01*
X173784164Y-94215193D01*
X173861293Y-94207597D01*
X173938420Y-94200000D01*
X174041580Y-94200000D01*
X174118707Y-94207596D01*
X174118707Y-94207596D01*
G37*
G36*
X171578707Y-94207596D02*
X171655836Y-94215193D01*
X171787787Y-94255220D01*
X171853763Y-94275233D01*
X172036172Y-94372733D01*
X172196054Y-94503946D01*
X172327267Y-94663828D01*
X172424767Y-94846237D01*
X172424767Y-94846238D01*
X172484807Y-95044164D01*
X172505080Y-95250000D01*
X172484807Y-95455836D01*
X172444780Y-95587787D01*
X172424767Y-95653763D01*
X172327267Y-95836172D01*
X172196054Y-95996054D01*
X172036172Y-96127267D01*
X171853763Y-96224767D01*
X171787787Y-96244780D01*
X171655836Y-96284807D01*
X171578707Y-96292403D01*
X171501580Y-96300000D01*
X171398420Y-96300000D01*
X171321293Y-96292403D01*
X171244164Y-96284807D01*
X171112213Y-96244780D01*
X171046237Y-96224767D01*
X170863828Y-96127267D01*
X170703946Y-95996054D01*
X170572733Y-95836172D01*
X170475233Y-95653763D01*
X170455220Y-95587787D01*
X170415193Y-95455836D01*
X170394920Y-95250000D01*
X170415193Y-95044164D01*
X170475233Y-94846238D01*
X170475233Y-94846237D01*
X170572733Y-94663828D01*
X170703946Y-94503946D01*
X170863828Y-94372733D01*
X171046237Y-94275233D01*
X171112213Y-94255220D01*
X171244164Y-94215193D01*
X171321293Y-94207597D01*
X171398420Y-94200000D01*
X171501580Y-94200000D01*
X171578707Y-94207596D01*
X171578707Y-94207596D01*
G37*
G36*
X132208707Y-94207596D02*
X132285836Y-94215193D01*
X132417787Y-94255220D01*
X132483763Y-94275233D01*
X132666172Y-94372733D01*
X132826054Y-94503946D01*
X132957267Y-94663828D01*
X133054767Y-94846237D01*
X133054767Y-94846238D01*
X133114807Y-95044164D01*
X133135080Y-95250000D01*
X133114807Y-95455836D01*
X133074780Y-95587787D01*
X133054767Y-95653763D01*
X132957267Y-95836172D01*
X132826054Y-95996054D01*
X132666172Y-96127267D01*
X132483763Y-96224767D01*
X132417787Y-96244780D01*
X132285836Y-96284807D01*
X132208707Y-96292403D01*
X132131580Y-96300000D01*
X132028420Y-96300000D01*
X131951293Y-96292403D01*
X131874164Y-96284807D01*
X131742213Y-96244780D01*
X131676237Y-96224767D01*
X131493828Y-96127267D01*
X131333946Y-95996054D01*
X131202733Y-95836172D01*
X131105233Y-95653763D01*
X131085220Y-95587787D01*
X131045193Y-95455836D01*
X131024920Y-95250000D01*
X131045193Y-95044164D01*
X131105233Y-94846238D01*
X131105233Y-94846237D01*
X131202733Y-94663828D01*
X131333946Y-94503946D01*
X131493828Y-94372733D01*
X131676237Y-94275233D01*
X131742213Y-94255220D01*
X131874164Y-94215193D01*
X131951293Y-94207597D01*
X132028420Y-94200000D01*
X132131580Y-94200000D01*
X132208707Y-94207596D01*
X132208707Y-94207596D01*
G37*
G36*
X151955000Y-95204000D02*
X150305000Y-95204000D01*
X150305000Y-93804000D01*
X151955000Y-93804000D01*
X151955000Y-95204000D01*
X151955000Y-95204000D01*
G37*
G36*
X154495000Y-95204000D02*
X152845000Y-95204000D01*
X152845000Y-93804000D01*
X154495000Y-93804000D01*
X154495000Y-95204000D01*
X154495000Y-95204000D01*
G37*
G36*
X175040000Y-93760000D02*
X172940000Y-93760000D01*
X172940000Y-91660000D01*
X175040000Y-91660000D01*
X175040000Y-93760000D01*
X175040000Y-93760000D01*
G37*
G36*
X133130000Y-93760000D02*
X131030000Y-93760000D01*
X131030000Y-91660000D01*
X133130000Y-91660000D01*
X133130000Y-93760000D01*
X133130000Y-93760000D01*
G37*
G36*
X171578707Y-91667597D02*
X171655836Y-91675193D01*
X171787787Y-91715220D01*
X171853763Y-91735233D01*
X172036172Y-91832733D01*
X172196054Y-91963946D01*
X172327267Y-92123828D01*
X172424767Y-92306237D01*
X172424767Y-92306238D01*
X172484807Y-92504164D01*
X172505080Y-92710000D01*
X172484807Y-92915836D01*
X172444780Y-93047787D01*
X172424767Y-93113763D01*
X172327267Y-93296172D01*
X172196054Y-93456054D01*
X172036172Y-93587267D01*
X171853763Y-93684767D01*
X171787787Y-93704780D01*
X171655836Y-93744807D01*
X171578707Y-93752403D01*
X171501580Y-93760000D01*
X171398420Y-93760000D01*
X171321293Y-93752403D01*
X171244164Y-93744807D01*
X171112213Y-93704780D01*
X171046237Y-93684767D01*
X170863828Y-93587267D01*
X170703946Y-93456054D01*
X170572733Y-93296172D01*
X170475233Y-93113763D01*
X170455220Y-93047787D01*
X170415193Y-92915836D01*
X170394920Y-92710000D01*
X170415193Y-92504164D01*
X170475233Y-92306238D01*
X170475233Y-92306237D01*
X170572733Y-92123828D01*
X170703946Y-91963946D01*
X170863828Y-91832733D01*
X171046237Y-91735233D01*
X171112213Y-91715220D01*
X171244164Y-91675193D01*
X171321293Y-91667596D01*
X171398420Y-91660000D01*
X171501580Y-91660000D01*
X171578707Y-91667597D01*
X171578707Y-91667597D01*
G37*
G36*
X183761281Y-89849865D02*
X183880378Y-89861595D01*
X184033189Y-89907950D01*
X184109595Y-89931127D01*
X184166052Y-89961304D01*
X184320842Y-90044041D01*
X184506002Y-90195998D01*
X184657959Y-90381158D01*
X184740696Y-90535948D01*
X184770873Y-90592405D01*
X184770873Y-90592406D01*
X184840405Y-90821622D01*
X184863883Y-91060000D01*
X184840405Y-91298378D01*
X184794050Y-91451189D01*
X184770873Y-91527595D01*
X184740696Y-91584052D01*
X184657959Y-91738842D01*
X184506002Y-91924002D01*
X184320842Y-92075959D01*
X184166052Y-92158696D01*
X184109595Y-92188873D01*
X184033189Y-92212050D01*
X183880378Y-92258405D01*
X183761281Y-92270135D01*
X183701733Y-92276000D01*
X182058267Y-92276000D01*
X181998719Y-92270135D01*
X181879622Y-92258405D01*
X181726811Y-92212050D01*
X181650405Y-92188873D01*
X181593948Y-92158696D01*
X181439158Y-92075959D01*
X181253998Y-91924002D01*
X181102041Y-91738842D01*
X181019304Y-91584052D01*
X180989127Y-91527595D01*
X180965950Y-91451189D01*
X180919595Y-91298378D01*
X180896117Y-91060000D01*
X180919595Y-90821622D01*
X180989127Y-90592406D01*
X180989127Y-90592405D01*
X181019304Y-90535948D01*
X181102041Y-90381158D01*
X181253998Y-90195998D01*
X181439158Y-90044041D01*
X181593948Y-89961304D01*
X181650405Y-89931127D01*
X181726811Y-89907950D01*
X181879622Y-89861595D01*
X181998719Y-89849865D01*
X182058267Y-89844000D01*
X183701733Y-89844000D01*
X183761281Y-89849865D01*
X183761281Y-89849865D01*
G37*
G36*
X163441281Y-89849865D02*
X163560378Y-89861595D01*
X163713189Y-89907950D01*
X163789595Y-89931127D01*
X163846052Y-89961304D01*
X164000842Y-90044041D01*
X164186002Y-90195998D01*
X164337959Y-90381158D01*
X164420696Y-90535948D01*
X164450873Y-90592405D01*
X164450873Y-90592406D01*
X164520405Y-90821622D01*
X164543883Y-91060000D01*
X164520405Y-91298378D01*
X164474050Y-91451189D01*
X164450873Y-91527595D01*
X164420696Y-91584052D01*
X164337959Y-91738842D01*
X164186002Y-91924002D01*
X164000842Y-92075959D01*
X163846052Y-92158696D01*
X163789595Y-92188873D01*
X163713189Y-92212050D01*
X163560378Y-92258405D01*
X163441281Y-92270135D01*
X163381733Y-92276000D01*
X161738267Y-92276000D01*
X161678719Y-92270135D01*
X161559622Y-92258405D01*
X161406811Y-92212050D01*
X161330405Y-92188873D01*
X161273948Y-92158696D01*
X161119158Y-92075959D01*
X160933998Y-91924002D01*
X160782041Y-91738842D01*
X160699304Y-91584052D01*
X160669127Y-91527595D01*
X160645950Y-91451189D01*
X160599595Y-91298378D01*
X160576117Y-91060000D01*
X160599595Y-90821622D01*
X160669127Y-90592406D01*
X160669127Y-90592405D01*
X160699304Y-90535948D01*
X160782041Y-90381158D01*
X160933998Y-90195998D01*
X161119158Y-90044041D01*
X161273948Y-89961304D01*
X161330405Y-89931127D01*
X161406811Y-89907950D01*
X161559622Y-89861595D01*
X161678719Y-89849865D01*
X161738267Y-89844000D01*
X163381733Y-89844000D01*
X163441281Y-89849865D01*
X163441281Y-89849865D01*
G37*
G36*
X122801281Y-89849865D02*
X122920378Y-89861595D01*
X123073189Y-89907950D01*
X123149595Y-89931127D01*
X123206052Y-89961304D01*
X123360842Y-90044041D01*
X123546002Y-90195998D01*
X123697959Y-90381158D01*
X123780696Y-90535948D01*
X123810873Y-90592405D01*
X123810873Y-90592406D01*
X123880405Y-90821622D01*
X123903883Y-91060000D01*
X123880405Y-91298378D01*
X123834050Y-91451189D01*
X123810873Y-91527595D01*
X123780696Y-91584052D01*
X123697959Y-91738842D01*
X123546002Y-91924002D01*
X123360842Y-92075959D01*
X123206052Y-92158696D01*
X123149595Y-92188873D01*
X123073189Y-92212050D01*
X122920378Y-92258405D01*
X122801281Y-92270135D01*
X122741733Y-92276000D01*
X121098267Y-92276000D01*
X121038719Y-92270135D01*
X120919622Y-92258405D01*
X120766811Y-92212050D01*
X120690405Y-92188873D01*
X120633948Y-92158696D01*
X120479158Y-92075959D01*
X120293998Y-91924002D01*
X120142041Y-91738842D01*
X120059304Y-91584052D01*
X120029127Y-91527595D01*
X120005950Y-91451189D01*
X119959595Y-91298378D01*
X119936117Y-91060000D01*
X119959595Y-90821622D01*
X120029127Y-90592406D01*
X120029127Y-90592405D01*
X120059304Y-90535948D01*
X120142041Y-90381158D01*
X120293998Y-90195998D01*
X120479158Y-90044041D01*
X120633948Y-89961304D01*
X120690405Y-89931127D01*
X120766811Y-89907950D01*
X120919622Y-89861595D01*
X121038719Y-89849865D01*
X121098267Y-89844000D01*
X122741733Y-89844000D01*
X122801281Y-89849865D01*
X122801281Y-89849865D01*
G37*
G36*
X143121281Y-89849865D02*
X143240378Y-89861595D01*
X143393189Y-89907950D01*
X143469595Y-89931127D01*
X143526052Y-89961304D01*
X143680842Y-90044041D01*
X143866002Y-90195998D01*
X144017959Y-90381158D01*
X144100696Y-90535948D01*
X144130873Y-90592405D01*
X144130873Y-90592406D01*
X144200405Y-90821622D01*
X144223883Y-91060000D01*
X144200405Y-91298378D01*
X144154050Y-91451189D01*
X144130873Y-91527595D01*
X144100696Y-91584052D01*
X144017959Y-91738842D01*
X143866002Y-91924002D01*
X143680842Y-92075959D01*
X143526052Y-92158696D01*
X143469595Y-92188873D01*
X143393189Y-92212050D01*
X143240378Y-92258405D01*
X143121281Y-92270135D01*
X143061733Y-92276000D01*
X141418267Y-92276000D01*
X141358719Y-92270135D01*
X141239622Y-92258405D01*
X141086811Y-92212050D01*
X141010405Y-92188873D01*
X140953948Y-92158696D01*
X140799158Y-92075959D01*
X140613998Y-91924002D01*
X140462041Y-91738842D01*
X140379304Y-91584052D01*
X140349127Y-91527595D01*
X140325950Y-91451189D01*
X140279595Y-91298378D01*
X140256117Y-91060000D01*
X140279595Y-90821622D01*
X140349127Y-90592406D01*
X140349127Y-90592405D01*
X140379304Y-90535948D01*
X140462041Y-90381158D01*
X140613998Y-90195998D01*
X140799158Y-90044041D01*
X140953948Y-89961304D01*
X141010405Y-89931127D01*
X141086811Y-89907950D01*
X141239622Y-89861595D01*
X141358719Y-89849865D01*
X141418267Y-89844000D01*
X143061733Y-89844000D01*
X143121281Y-89849865D01*
X143121281Y-89849865D01*
G37*
G36*
X183761281Y-85149865D02*
X183880378Y-85161595D01*
X184033189Y-85207950D01*
X184109595Y-85231127D01*
X184166052Y-85261304D01*
X184320842Y-85344041D01*
X184506002Y-85495998D01*
X184657959Y-85681158D01*
X184740696Y-85835948D01*
X184770873Y-85892405D01*
X184770873Y-85892406D01*
X184840405Y-86121622D01*
X184863883Y-86360000D01*
X184840405Y-86598378D01*
X184794050Y-86751189D01*
X184770873Y-86827595D01*
X184740696Y-86884052D01*
X184657959Y-87038842D01*
X184506002Y-87224002D01*
X184320842Y-87375959D01*
X184166052Y-87458696D01*
X184109595Y-87488873D01*
X184033189Y-87512050D01*
X183880378Y-87558405D01*
X183761281Y-87570135D01*
X183701733Y-87576000D01*
X182058267Y-87576000D01*
X181998719Y-87570135D01*
X181879622Y-87558405D01*
X181726811Y-87512050D01*
X181650405Y-87488873D01*
X181593948Y-87458696D01*
X181439158Y-87375959D01*
X181253998Y-87224002D01*
X181102041Y-87038842D01*
X181019304Y-86884052D01*
X180989127Y-86827595D01*
X180965950Y-86751189D01*
X180919595Y-86598378D01*
X180896117Y-86360000D01*
X180919595Y-86121622D01*
X180989127Y-85892406D01*
X180989127Y-85892405D01*
X181019304Y-85835948D01*
X181102041Y-85681158D01*
X181253998Y-85495998D01*
X181439158Y-85344041D01*
X181593948Y-85261304D01*
X181650405Y-85231127D01*
X181726811Y-85207950D01*
X181879622Y-85161595D01*
X181998719Y-85149865D01*
X182058267Y-85144000D01*
X183701733Y-85144000D01*
X183761281Y-85149865D01*
X183761281Y-85149865D01*
G37*
G36*
X163441281Y-85149865D02*
X163560378Y-85161595D01*
X163713189Y-85207950D01*
X163789595Y-85231127D01*
X163846052Y-85261304D01*
X164000842Y-85344041D01*
X164186002Y-85495998D01*
X164337959Y-85681158D01*
X164420696Y-85835948D01*
X164450873Y-85892405D01*
X164450873Y-85892406D01*
X164520405Y-86121622D01*
X164543883Y-86360000D01*
X164520405Y-86598378D01*
X164474050Y-86751189D01*
X164450873Y-86827595D01*
X164420696Y-86884052D01*
X164337959Y-87038842D01*
X164186002Y-87224002D01*
X164000842Y-87375959D01*
X163846052Y-87458696D01*
X163789595Y-87488873D01*
X163713189Y-87512050D01*
X163560378Y-87558405D01*
X163441281Y-87570135D01*
X163381733Y-87576000D01*
X161738267Y-87576000D01*
X161678719Y-87570135D01*
X161559622Y-87558405D01*
X161406811Y-87512050D01*
X161330405Y-87488873D01*
X161273948Y-87458696D01*
X161119158Y-87375959D01*
X160933998Y-87224002D01*
X160782041Y-87038842D01*
X160699304Y-86884052D01*
X160669127Y-86827595D01*
X160645950Y-86751189D01*
X160599595Y-86598378D01*
X160576117Y-86360000D01*
X160599595Y-86121622D01*
X160669127Y-85892406D01*
X160669127Y-85892405D01*
X160699304Y-85835948D01*
X160782041Y-85681158D01*
X160933998Y-85495998D01*
X161119158Y-85344041D01*
X161273948Y-85261304D01*
X161330405Y-85231127D01*
X161406811Y-85207950D01*
X161559622Y-85161595D01*
X161678719Y-85149865D01*
X161738267Y-85144000D01*
X163381733Y-85144000D01*
X163441281Y-85149865D01*
X163441281Y-85149865D01*
G37*
G36*
X143121281Y-85149865D02*
X143240378Y-85161595D01*
X143393189Y-85207950D01*
X143469595Y-85231127D01*
X143526052Y-85261304D01*
X143680842Y-85344041D01*
X143866002Y-85495998D01*
X144017959Y-85681158D01*
X144100696Y-85835948D01*
X144130873Y-85892405D01*
X144130873Y-85892406D01*
X144200405Y-86121622D01*
X144223883Y-86360000D01*
X144200405Y-86598378D01*
X144154050Y-86751189D01*
X144130873Y-86827595D01*
X144100696Y-86884052D01*
X144017959Y-87038842D01*
X143866002Y-87224002D01*
X143680842Y-87375959D01*
X143526052Y-87458696D01*
X143469595Y-87488873D01*
X143393189Y-87512050D01*
X143240378Y-87558405D01*
X143121281Y-87570135D01*
X143061733Y-87576000D01*
X141418267Y-87576000D01*
X141358719Y-87570135D01*
X141239622Y-87558405D01*
X141086811Y-87512050D01*
X141010405Y-87488873D01*
X140953948Y-87458696D01*
X140799158Y-87375959D01*
X140613998Y-87224002D01*
X140462041Y-87038842D01*
X140379304Y-86884052D01*
X140349127Y-86827595D01*
X140325950Y-86751189D01*
X140279595Y-86598378D01*
X140256117Y-86360000D01*
X140279595Y-86121622D01*
X140349127Y-85892406D01*
X140349127Y-85892405D01*
X140379304Y-85835948D01*
X140462041Y-85681158D01*
X140613998Y-85495998D01*
X140799158Y-85344041D01*
X140953948Y-85261304D01*
X141010405Y-85231127D01*
X141086811Y-85207950D01*
X141239622Y-85161595D01*
X141358719Y-85149865D01*
X141418267Y-85144000D01*
X143061733Y-85144000D01*
X143121281Y-85149865D01*
X143121281Y-85149865D01*
G37*
G36*
X122801281Y-85149865D02*
X122920378Y-85161595D01*
X123073189Y-85207950D01*
X123149595Y-85231127D01*
X123206052Y-85261304D01*
X123360842Y-85344041D01*
X123546002Y-85495998D01*
X123697959Y-85681158D01*
X123780696Y-85835948D01*
X123810873Y-85892405D01*
X123810873Y-85892406D01*
X123880405Y-86121622D01*
X123903883Y-86360000D01*
X123880405Y-86598378D01*
X123834050Y-86751189D01*
X123810873Y-86827595D01*
X123780696Y-86884052D01*
X123697959Y-87038842D01*
X123546002Y-87224002D01*
X123360842Y-87375959D01*
X123206052Y-87458696D01*
X123149595Y-87488873D01*
X123073189Y-87512050D01*
X122920378Y-87558405D01*
X122801281Y-87570135D01*
X122741733Y-87576000D01*
X121098267Y-87576000D01*
X121038719Y-87570135D01*
X120919622Y-87558405D01*
X120766811Y-87512050D01*
X120690405Y-87488873D01*
X120633948Y-87458696D01*
X120479158Y-87375959D01*
X120293998Y-87224002D01*
X120142041Y-87038842D01*
X120059304Y-86884052D01*
X120029127Y-86827595D01*
X120005950Y-86751189D01*
X119959595Y-86598378D01*
X119936117Y-86360000D01*
X119959595Y-86121622D01*
X120029127Y-85892406D01*
X120029127Y-85892405D01*
X120059304Y-85835948D01*
X120142041Y-85681158D01*
X120293998Y-85495998D01*
X120479158Y-85344041D01*
X120633948Y-85261304D01*
X120690405Y-85231127D01*
X120766811Y-85207950D01*
X120919622Y-85161595D01*
X121038719Y-85149865D01*
X121098267Y-85144000D01*
X122741733Y-85144000D01*
X122801281Y-85149865D01*
X122801281Y-85149865D01*
G37*
G36*
X143121281Y-80449865D02*
X143240378Y-80461595D01*
X143393189Y-80507950D01*
X143469595Y-80531127D01*
X143526052Y-80561304D01*
X143680842Y-80644041D01*
X143866002Y-80795998D01*
X144017959Y-80981158D01*
X144100696Y-81135948D01*
X144130873Y-81192405D01*
X144130873Y-81192406D01*
X144200405Y-81421622D01*
X144223883Y-81660000D01*
X144200405Y-81898378D01*
X144154050Y-82051189D01*
X144130873Y-82127595D01*
X144100696Y-82184052D01*
X144017959Y-82338842D01*
X143866002Y-82524002D01*
X143680842Y-82675959D01*
X143526052Y-82758696D01*
X143469595Y-82788873D01*
X143393189Y-82812050D01*
X143240378Y-82858405D01*
X143121281Y-82870135D01*
X143061733Y-82876000D01*
X141418267Y-82876000D01*
X141358719Y-82870135D01*
X141239622Y-82858405D01*
X141086811Y-82812050D01*
X141010405Y-82788873D01*
X140953948Y-82758696D01*
X140799158Y-82675959D01*
X140613998Y-82524002D01*
X140462041Y-82338842D01*
X140379304Y-82184052D01*
X140349127Y-82127595D01*
X140325950Y-82051189D01*
X140279595Y-81898378D01*
X140256117Y-81660000D01*
X140279595Y-81421622D01*
X140349127Y-81192406D01*
X140349127Y-81192405D01*
X140379304Y-81135948D01*
X140462041Y-80981158D01*
X140613998Y-80795998D01*
X140799158Y-80644041D01*
X140953948Y-80561304D01*
X141010405Y-80531127D01*
X141086811Y-80507950D01*
X141239622Y-80461595D01*
X141358719Y-80449865D01*
X141418267Y-80444000D01*
X143061733Y-80444000D01*
X143121281Y-80449865D01*
X143121281Y-80449865D01*
G37*
G36*
X163441281Y-80449865D02*
X163560378Y-80461595D01*
X163713189Y-80507950D01*
X163789595Y-80531127D01*
X163846052Y-80561304D01*
X164000842Y-80644041D01*
X164186002Y-80795998D01*
X164337959Y-80981158D01*
X164420696Y-81135948D01*
X164450873Y-81192405D01*
X164450873Y-81192406D01*
X164520405Y-81421622D01*
X164543883Y-81660000D01*
X164520405Y-81898378D01*
X164474050Y-82051189D01*
X164450873Y-82127595D01*
X164420696Y-82184052D01*
X164337959Y-82338842D01*
X164186002Y-82524002D01*
X164000842Y-82675959D01*
X163846052Y-82758696D01*
X163789595Y-82788873D01*
X163713189Y-82812050D01*
X163560378Y-82858405D01*
X163441281Y-82870135D01*
X163381733Y-82876000D01*
X161738267Y-82876000D01*
X161678719Y-82870135D01*
X161559622Y-82858405D01*
X161406811Y-82812050D01*
X161330405Y-82788873D01*
X161273948Y-82758696D01*
X161119158Y-82675959D01*
X160933998Y-82524002D01*
X160782041Y-82338842D01*
X160699304Y-82184052D01*
X160669127Y-82127595D01*
X160645950Y-82051189D01*
X160599595Y-81898378D01*
X160576117Y-81660000D01*
X160599595Y-81421622D01*
X160669127Y-81192406D01*
X160669127Y-81192405D01*
X160699304Y-81135948D01*
X160782041Y-80981158D01*
X160933998Y-80795998D01*
X161119158Y-80644041D01*
X161273948Y-80561304D01*
X161330405Y-80531127D01*
X161406811Y-80507950D01*
X161559622Y-80461595D01*
X161678719Y-80449865D01*
X161738267Y-80444000D01*
X163381733Y-80444000D01*
X163441281Y-80449865D01*
X163441281Y-80449865D01*
G37*
G36*
X183761281Y-80449865D02*
X183880378Y-80461595D01*
X184033189Y-80507950D01*
X184109595Y-80531127D01*
X184166052Y-80561304D01*
X184320842Y-80644041D01*
X184506002Y-80795998D01*
X184657959Y-80981158D01*
X184740696Y-81135948D01*
X184770873Y-81192405D01*
X184770873Y-81192406D01*
X184840405Y-81421622D01*
X184863883Y-81660000D01*
X184840405Y-81898378D01*
X184794050Y-82051189D01*
X184770873Y-82127595D01*
X184740696Y-82184052D01*
X184657959Y-82338842D01*
X184506002Y-82524002D01*
X184320842Y-82675959D01*
X184166052Y-82758696D01*
X184109595Y-82788873D01*
X184033189Y-82812050D01*
X183880378Y-82858405D01*
X183761281Y-82870135D01*
X183701733Y-82876000D01*
X182058267Y-82876000D01*
X181998719Y-82870135D01*
X181879622Y-82858405D01*
X181726811Y-82812050D01*
X181650405Y-82788873D01*
X181593948Y-82758696D01*
X181439158Y-82675959D01*
X181253998Y-82524002D01*
X181102041Y-82338842D01*
X181019304Y-82184052D01*
X180989127Y-82127595D01*
X180965950Y-82051189D01*
X180919595Y-81898378D01*
X180896117Y-81660000D01*
X180919595Y-81421622D01*
X180989127Y-81192406D01*
X180989127Y-81192405D01*
X181019304Y-81135948D01*
X181102041Y-80981158D01*
X181253998Y-80795998D01*
X181439158Y-80644041D01*
X181593948Y-80561304D01*
X181650405Y-80531127D01*
X181726811Y-80507950D01*
X181879622Y-80461595D01*
X181998719Y-80449865D01*
X182058267Y-80444000D01*
X183701733Y-80444000D01*
X183761281Y-80449865D01*
X183761281Y-80449865D01*
G37*
G36*
X122801281Y-80449865D02*
X122920378Y-80461595D01*
X123073189Y-80507950D01*
X123149595Y-80531127D01*
X123206052Y-80561304D01*
X123360842Y-80644041D01*
X123546002Y-80795998D01*
X123697959Y-80981158D01*
X123780696Y-81135948D01*
X123810873Y-81192405D01*
X123810873Y-81192406D01*
X123880405Y-81421622D01*
X123903883Y-81660000D01*
X123880405Y-81898378D01*
X123834050Y-82051189D01*
X123810873Y-82127595D01*
X123780696Y-82184052D01*
X123697959Y-82338842D01*
X123546002Y-82524002D01*
X123360842Y-82675959D01*
X123206052Y-82758696D01*
X123149595Y-82788873D01*
X123073189Y-82812050D01*
X122920378Y-82858405D01*
X122801281Y-82870135D01*
X122741733Y-82876000D01*
X121098267Y-82876000D01*
X121038719Y-82870135D01*
X120919622Y-82858405D01*
X120766811Y-82812050D01*
X120690405Y-82788873D01*
X120633948Y-82758696D01*
X120479158Y-82675959D01*
X120293998Y-82524002D01*
X120142041Y-82338842D01*
X120059304Y-82184052D01*
X120029127Y-82127595D01*
X120005950Y-82051189D01*
X119959595Y-81898378D01*
X119936117Y-81660000D01*
X119959595Y-81421622D01*
X120029127Y-81192406D01*
X120029127Y-81192405D01*
X120059304Y-81135948D01*
X120142041Y-80981158D01*
X120293998Y-80795998D01*
X120479158Y-80644041D01*
X120633948Y-80561304D01*
X120690405Y-80531127D01*
X120766811Y-80507950D01*
X120919622Y-80461595D01*
X121038719Y-80449865D01*
X121098267Y-80444000D01*
X122741733Y-80444000D01*
X122801281Y-80449865D01*
X122801281Y-80449865D01*
G37*
G36*
X183200857Y-73872272D02*
X183401042Y-73955191D01*
X183581213Y-74075578D01*
X183734422Y-74228787D01*
X183854809Y-74408958D01*
X183937728Y-74609143D01*
X183980000Y-74821658D01*
X183980000Y-75038342D01*
X183937728Y-75250857D01*
X183854809Y-75451042D01*
X183734422Y-75631213D01*
X183581213Y-75784422D01*
X183401042Y-75904809D01*
X183200857Y-75987728D01*
X182988342Y-76030000D01*
X182771658Y-76030000D01*
X182559143Y-75987728D01*
X182358958Y-75904809D01*
X182178787Y-75784422D01*
X182025578Y-75631213D01*
X181905191Y-75451042D01*
X181822272Y-75250857D01*
X181780000Y-75038342D01*
X181780000Y-74821658D01*
X181822272Y-74609143D01*
X181905191Y-74408958D01*
X182025578Y-74228787D01*
X182178787Y-74075578D01*
X182358958Y-73955191D01*
X182559143Y-73872272D01*
X182771658Y-73830000D01*
X182988342Y-73830000D01*
X183200857Y-73872272D01*
X183200857Y-73872272D01*
G37*
G36*
X162880857Y-73872272D02*
X163081042Y-73955191D01*
X163261213Y-74075578D01*
X163414422Y-74228787D01*
X163534809Y-74408958D01*
X163617728Y-74609143D01*
X163660000Y-74821658D01*
X163660000Y-75038342D01*
X163617728Y-75250857D01*
X163534809Y-75451042D01*
X163414422Y-75631213D01*
X163261213Y-75784422D01*
X163081042Y-75904809D01*
X162880857Y-75987728D01*
X162668342Y-76030000D01*
X162451658Y-76030000D01*
X162239143Y-75987728D01*
X162038958Y-75904809D01*
X161858787Y-75784422D01*
X161705578Y-75631213D01*
X161585191Y-75451042D01*
X161502272Y-75250857D01*
X161460000Y-75038342D01*
X161460000Y-74821658D01*
X161502272Y-74609143D01*
X161585191Y-74408958D01*
X161705578Y-74228787D01*
X161858787Y-74075578D01*
X162038958Y-73955191D01*
X162239143Y-73872272D01*
X162451658Y-73830000D01*
X162668342Y-73830000D01*
X162880857Y-73872272D01*
X162880857Y-73872272D01*
G37*
G36*
X142560857Y-73872272D02*
X142761042Y-73955191D01*
X142941213Y-74075578D01*
X143094422Y-74228787D01*
X143214809Y-74408958D01*
X143297728Y-74609143D01*
X143340000Y-74821658D01*
X143340000Y-75038342D01*
X143297728Y-75250857D01*
X143214809Y-75451042D01*
X143094422Y-75631213D01*
X142941213Y-75784422D01*
X142761042Y-75904809D01*
X142560857Y-75987728D01*
X142348342Y-76030000D01*
X142131658Y-76030000D01*
X141919143Y-75987728D01*
X141718958Y-75904809D01*
X141538787Y-75784422D01*
X141385578Y-75631213D01*
X141265191Y-75451042D01*
X141182272Y-75250857D01*
X141140000Y-75038342D01*
X141140000Y-74821658D01*
X141182272Y-74609143D01*
X141265191Y-74408958D01*
X141385578Y-74228787D01*
X141538787Y-74075578D01*
X141718958Y-73955191D01*
X141919143Y-73872272D01*
X142131658Y-73830000D01*
X142348342Y-73830000D01*
X142560857Y-73872272D01*
X142560857Y-73872272D01*
G37*
G36*
X122240857Y-73872272D02*
X122441042Y-73955191D01*
X122621213Y-74075578D01*
X122774422Y-74228787D01*
X122894809Y-74408958D01*
X122977728Y-74609143D01*
X123020000Y-74821658D01*
X123020000Y-75038342D01*
X122977728Y-75250857D01*
X122894809Y-75451042D01*
X122774422Y-75631213D01*
X122621213Y-75784422D01*
X122441042Y-75904809D01*
X122240857Y-75987728D01*
X122028342Y-76030000D01*
X121811658Y-76030000D01*
X121599143Y-75987728D01*
X121398958Y-75904809D01*
X121218787Y-75784422D01*
X121065578Y-75631213D01*
X120945191Y-75451042D01*
X120862272Y-75250857D01*
X120820000Y-75038342D01*
X120820000Y-74821658D01*
X120862272Y-74609143D01*
X120945191Y-74408958D01*
X121065578Y-74228787D01*
X121218787Y-74075578D01*
X121398958Y-73955191D01*
X121599143Y-73872272D01*
X121811658Y-73830000D01*
X122028342Y-73830000D01*
X122240857Y-73872272D01*
X122240857Y-73872272D01*
G37*
G36*
X183980000Y-73490000D02*
X181780000Y-73490000D01*
X181780000Y-71290000D01*
X183980000Y-71290000D01*
X183980000Y-73490000D01*
X183980000Y-73490000D01*
G37*
G36*
X163660000Y-73490000D02*
X161460000Y-73490000D01*
X161460000Y-71290000D01*
X163660000Y-71290000D01*
X163660000Y-73490000D01*
X163660000Y-73490000D01*
G37*
G36*
X143340000Y-73490000D02*
X141140000Y-73490000D01*
X141140000Y-71290000D01*
X143340000Y-71290000D01*
X143340000Y-73490000D01*
X143340000Y-73490000D01*
G37*
G36*
X123020000Y-73490000D02*
X120820000Y-73490000D01*
X120820000Y-71290000D01*
X123020000Y-71290000D01*
X123020000Y-73490000D01*
X123020000Y-73490000D01*
G37*
G36*
X131860000Y-70900000D02*
X129760000Y-70900000D01*
X129760000Y-68800000D01*
X131860000Y-68800000D01*
X131860000Y-70900000D01*
X131860000Y-70900000D01*
G37*
G36*
X133478707Y-68807596D02*
X133555836Y-68815193D01*
X133687787Y-68855220D01*
X133753763Y-68875233D01*
X133936172Y-68972733D01*
X134096054Y-69103946D01*
X134227267Y-69263828D01*
X134324767Y-69446237D01*
X134324767Y-69446238D01*
X134384807Y-69644164D01*
X134405080Y-69850000D01*
X134384807Y-70055836D01*
X134344780Y-70187787D01*
X134324767Y-70253763D01*
X134227267Y-70436172D01*
X134096054Y-70596054D01*
X133936172Y-70727267D01*
X133753763Y-70824767D01*
X133687787Y-70844780D01*
X133555836Y-70884807D01*
X133478707Y-70892404D01*
X133401580Y-70900000D01*
X133298420Y-70900000D01*
X133221293Y-70892404D01*
X133144164Y-70884807D01*
X133012213Y-70844780D01*
X132946237Y-70824767D01*
X132763828Y-70727267D01*
X132603946Y-70596054D01*
X132472733Y-70436172D01*
X132375233Y-70253763D01*
X132355220Y-70187787D01*
X132315193Y-70055836D01*
X132294920Y-69850000D01*
X132315193Y-69644164D01*
X132375233Y-69446238D01*
X132375233Y-69446237D01*
X132472733Y-69263828D01*
X132603946Y-69103946D01*
X132763828Y-68972733D01*
X132946237Y-68875233D01*
X133012213Y-68855220D01*
X133144164Y-68815193D01*
X133221293Y-68807596D01*
X133298420Y-68800000D01*
X133401580Y-68800000D01*
X133478707Y-68807596D01*
X133478707Y-68807596D01*
G37*
G36*
X130938707Y-66267596D02*
X131015836Y-66275193D01*
X131147787Y-66315220D01*
X131213763Y-66335233D01*
X131396172Y-66432733D01*
X131556054Y-66563946D01*
X131687267Y-66723828D01*
X131784767Y-66906237D01*
X131784767Y-66906238D01*
X131844807Y-67104164D01*
X131865080Y-67310000D01*
X131844807Y-67515836D01*
X131804780Y-67647787D01*
X131784767Y-67713763D01*
X131687267Y-67896172D01*
X131556054Y-68056054D01*
X131396172Y-68187267D01*
X131213763Y-68284767D01*
X131147787Y-68304780D01*
X131015836Y-68344807D01*
X130938707Y-68352404D01*
X130861580Y-68360000D01*
X130758420Y-68360000D01*
X130681293Y-68352404D01*
X130604164Y-68344807D01*
X130472213Y-68304780D01*
X130406237Y-68284767D01*
X130223828Y-68187267D01*
X130063946Y-68056054D01*
X129932733Y-67896172D01*
X129835233Y-67713763D01*
X129815220Y-67647787D01*
X129775193Y-67515836D01*
X129754920Y-67310000D01*
X129775193Y-67104164D01*
X129835233Y-66906238D01*
X129835233Y-66906237D01*
X129932733Y-66723828D01*
X130063946Y-66563946D01*
X130223828Y-66432733D01*
X130406237Y-66335233D01*
X130472213Y-66315220D01*
X130604164Y-66275193D01*
X130681293Y-66267596D01*
X130758420Y-66260000D01*
X130861580Y-66260000D01*
X130938707Y-66267596D01*
X130938707Y-66267596D01*
G37*
G36*
X133478707Y-66267596D02*
X133555836Y-66275193D01*
X133687787Y-66315220D01*
X133753763Y-66335233D01*
X133936172Y-66432733D01*
X134096054Y-66563946D01*
X134227267Y-66723828D01*
X134324767Y-66906237D01*
X134324767Y-66906238D01*
X134384807Y-67104164D01*
X134405080Y-67310000D01*
X134384807Y-67515836D01*
X134344780Y-67647787D01*
X134324767Y-67713763D01*
X134227267Y-67896172D01*
X134096054Y-68056054D01*
X133936172Y-68187267D01*
X133753763Y-68284767D01*
X133687787Y-68304780D01*
X133555836Y-68344807D01*
X133478707Y-68352404D01*
X133401580Y-68360000D01*
X133298420Y-68360000D01*
X133221293Y-68352404D01*
X133144164Y-68344807D01*
X133012213Y-68304780D01*
X132946237Y-68284767D01*
X132763828Y-68187267D01*
X132603946Y-68056054D01*
X132472733Y-67896172D01*
X132375233Y-67713763D01*
X132355220Y-67647787D01*
X132315193Y-67515836D01*
X132294920Y-67310000D01*
X132315193Y-67104164D01*
X132375233Y-66906238D01*
X132375233Y-66906237D01*
X132472733Y-66723828D01*
X132603946Y-66563946D01*
X132763828Y-66432733D01*
X132946237Y-66335233D01*
X133012213Y-66315220D01*
X133144164Y-66275193D01*
X133221293Y-66267596D01*
X133298420Y-66260000D01*
X133401580Y-66260000D01*
X133478707Y-66267596D01*
X133478707Y-66267596D01*
G37*
G36*
X133478707Y-63727597D02*
X133555836Y-63735193D01*
X133687787Y-63775220D01*
X133753763Y-63795233D01*
X133936172Y-63892733D01*
X134096054Y-64023946D01*
X134227267Y-64183828D01*
X134324767Y-64366237D01*
X134324767Y-64366238D01*
X134384807Y-64564164D01*
X134405080Y-64770000D01*
X134384807Y-64975836D01*
X134344780Y-65107787D01*
X134324767Y-65173763D01*
X134227267Y-65356172D01*
X134096054Y-65516054D01*
X133936172Y-65647267D01*
X133753763Y-65744767D01*
X133687787Y-65764780D01*
X133555836Y-65804807D01*
X133478707Y-65812403D01*
X133401580Y-65820000D01*
X133298420Y-65820000D01*
X133221293Y-65812403D01*
X133144164Y-65804807D01*
X133012213Y-65764780D01*
X132946237Y-65744767D01*
X132763828Y-65647267D01*
X132603946Y-65516054D01*
X132472733Y-65356172D01*
X132375233Y-65173763D01*
X132355220Y-65107787D01*
X132315193Y-64975836D01*
X132294920Y-64770000D01*
X132315193Y-64564164D01*
X132375233Y-64366238D01*
X132375233Y-64366237D01*
X132472733Y-64183828D01*
X132603946Y-64023946D01*
X132763828Y-63892733D01*
X132946237Y-63795233D01*
X133012213Y-63775220D01*
X133144164Y-63735193D01*
X133221293Y-63727597D01*
X133298420Y-63720000D01*
X133401580Y-63720000D01*
X133478707Y-63727597D01*
X133478707Y-63727597D01*
G37*
G36*
X130938707Y-63727597D02*
X131015836Y-63735193D01*
X131147787Y-63775220D01*
X131213763Y-63795233D01*
X131396172Y-63892733D01*
X131556054Y-64023946D01*
X131687267Y-64183828D01*
X131784767Y-64366237D01*
X131784767Y-64366238D01*
X131844807Y-64564164D01*
X131865080Y-64770000D01*
X131844807Y-64975836D01*
X131804780Y-65107787D01*
X131784767Y-65173763D01*
X131687267Y-65356172D01*
X131556054Y-65516054D01*
X131396172Y-65647267D01*
X131213763Y-65744767D01*
X131147787Y-65764780D01*
X131015836Y-65804807D01*
X130938707Y-65812403D01*
X130861580Y-65820000D01*
X130758420Y-65820000D01*
X130681293Y-65812403D01*
X130604164Y-65804807D01*
X130472213Y-65764780D01*
X130406237Y-65744767D01*
X130223828Y-65647267D01*
X130063946Y-65516054D01*
X129932733Y-65356172D01*
X129835233Y-65173763D01*
X129815220Y-65107787D01*
X129775193Y-64975836D01*
X129754920Y-64770000D01*
X129775193Y-64564164D01*
X129835233Y-64366238D01*
X129835233Y-64366237D01*
X129932733Y-64183828D01*
X130063946Y-64023946D01*
X130223828Y-63892733D01*
X130406237Y-63795233D01*
X130472213Y-63775220D01*
X130604164Y-63735193D01*
X130681293Y-63727597D01*
X130758420Y-63720000D01*
X130861580Y-63720000D01*
X130938707Y-63727597D01*
X130938707Y-63727597D01*
G37*
G36*
X183200857Y-61172272D02*
X183401042Y-61255191D01*
X183581213Y-61375578D01*
X183734422Y-61528787D01*
X183854809Y-61708958D01*
X183937728Y-61909143D01*
X183980000Y-62121658D01*
X183980000Y-62338342D01*
X183937728Y-62550857D01*
X183854809Y-62751042D01*
X183734422Y-62931213D01*
X183581213Y-63084422D01*
X183401042Y-63204809D01*
X183200857Y-63287728D01*
X182988342Y-63330000D01*
X182771658Y-63330000D01*
X182559143Y-63287728D01*
X182358958Y-63204809D01*
X182178787Y-63084422D01*
X182025578Y-62931213D01*
X181905191Y-62751042D01*
X181822272Y-62550857D01*
X181780000Y-62338342D01*
X181780000Y-62121658D01*
X181822272Y-61909143D01*
X181905191Y-61708958D01*
X182025578Y-61528787D01*
X182178787Y-61375578D01*
X182358958Y-61255191D01*
X182559143Y-61172272D01*
X182771658Y-61130000D01*
X182988342Y-61130000D01*
X183200857Y-61172272D01*
X183200857Y-61172272D01*
G37*
G36*
X162880857Y-61172272D02*
X163081042Y-61255191D01*
X163261213Y-61375578D01*
X163414422Y-61528787D01*
X163534809Y-61708958D01*
X163617728Y-61909143D01*
X163660000Y-62121658D01*
X163660000Y-62338342D01*
X163617728Y-62550857D01*
X163534809Y-62751042D01*
X163414422Y-62931213D01*
X163261213Y-63084422D01*
X163081042Y-63204809D01*
X162880857Y-63287728D01*
X162668342Y-63330000D01*
X162451658Y-63330000D01*
X162239143Y-63287728D01*
X162038958Y-63204809D01*
X161858787Y-63084422D01*
X161705578Y-62931213D01*
X161585191Y-62751042D01*
X161502272Y-62550857D01*
X161460000Y-62338342D01*
X161460000Y-62121658D01*
X161502272Y-61909143D01*
X161585191Y-61708958D01*
X161705578Y-61528787D01*
X161858787Y-61375578D01*
X162038958Y-61255191D01*
X162239143Y-61172272D01*
X162451658Y-61130000D01*
X162668342Y-61130000D01*
X162880857Y-61172272D01*
X162880857Y-61172272D01*
G37*
G36*
X142560857Y-61172272D02*
X142761042Y-61255191D01*
X142941213Y-61375578D01*
X143094422Y-61528787D01*
X143214809Y-61708958D01*
X143297728Y-61909143D01*
X143340000Y-62121658D01*
X143340000Y-62338342D01*
X143297728Y-62550857D01*
X143214809Y-62751042D01*
X143094422Y-62931213D01*
X142941213Y-63084422D01*
X142761042Y-63204809D01*
X142560857Y-63287728D01*
X142348342Y-63330000D01*
X142131658Y-63330000D01*
X141919143Y-63287728D01*
X141718958Y-63204809D01*
X141538787Y-63084422D01*
X141385578Y-62931213D01*
X141265191Y-62751042D01*
X141182272Y-62550857D01*
X141140000Y-62338342D01*
X141140000Y-62121658D01*
X141182272Y-61909143D01*
X141265191Y-61708958D01*
X141385578Y-61528787D01*
X141538787Y-61375578D01*
X141718958Y-61255191D01*
X141919143Y-61172272D01*
X142131658Y-61130000D01*
X142348342Y-61130000D01*
X142560857Y-61172272D01*
X142560857Y-61172272D01*
G37*
G36*
X122240857Y-61172272D02*
X122441042Y-61255191D01*
X122621213Y-61375578D01*
X122774422Y-61528787D01*
X122894809Y-61708958D01*
X122977728Y-61909143D01*
X123020000Y-62121658D01*
X123020000Y-62338342D01*
X122977728Y-62550857D01*
X122894809Y-62751042D01*
X122774422Y-62931213D01*
X122621213Y-63084422D01*
X122441042Y-63204809D01*
X122240857Y-63287728D01*
X122028342Y-63330000D01*
X121811658Y-63330000D01*
X121599143Y-63287728D01*
X121398958Y-63204809D01*
X121218787Y-63084422D01*
X121065578Y-62931213D01*
X120945191Y-62751042D01*
X120862272Y-62550857D01*
X120820000Y-62338342D01*
X120820000Y-62121658D01*
X120862272Y-61909143D01*
X120945191Y-61708958D01*
X121065578Y-61528787D01*
X121218787Y-61375578D01*
X121398958Y-61255191D01*
X121599143Y-61172272D01*
X121811658Y-61130000D01*
X122028342Y-61130000D01*
X122240857Y-61172272D01*
X122240857Y-61172272D01*
G37*
G36*
X183980000Y-60790000D02*
X181780000Y-60790000D01*
X181780000Y-58590000D01*
X183980000Y-58590000D01*
X183980000Y-60790000D01*
X183980000Y-60790000D01*
G37*
G36*
X163660000Y-60790000D02*
X161460000Y-60790000D01*
X161460000Y-58590000D01*
X163660000Y-58590000D01*
X163660000Y-60790000D01*
X163660000Y-60790000D01*
G37*
G36*
X143340000Y-60790000D02*
X141140000Y-60790000D01*
X141140000Y-58590000D01*
X143340000Y-58590000D01*
X143340000Y-60790000D01*
X143340000Y-60790000D01*
G37*
G36*
X123020000Y-60790000D02*
X120820000Y-60790000D01*
X120820000Y-58590000D01*
X123020000Y-58590000D01*
X123020000Y-60790000D01*
X123020000Y-60790000D01*
G37*
M02*
