G04 #@! TF.GenerationSoftware,KiCad,Pcbnew,5.0.0-fee4fd1~66~ubuntu16.04.1*
G04 #@! TF.CreationDate,2018-10-02T23:40:20+08:00*
G04 #@! TF.ProjectId,SubSequence,53756253657175656E63652E6B696361,rev?*
G04 #@! TF.SameCoordinates,Original*
G04 #@! TF.FileFunction,Soldermask,Top*
G04 #@! TF.FilePolarity,Negative*
%FSLAX46Y46*%
G04 Gerber Fmt 4.6, Leading zero omitted, Abs format (unit mm)*
G04 Created by KiCad (PCBNEW 5.0.0-fee4fd1~66~ubuntu16.04.1) date Tue Oct  2 23:40:20 2018*
%MOMM*%
%LPD*%
G01*
G04 APERTURE LIST*
%ADD10C,2.400000*%
%ADD11R,1.650000X1.400000*%
%ADD12R,2.200000X2.200000*%
%ADD13C,2.200000*%
%ADD14O,3.400000X2.600000*%
%ADD15O,3.956000X2.432000*%
%ADD16O,2.100000X2.100000*%
%ADD17R,2.100000X2.100000*%
G04 APERTURE END LIST*
D10*
G04 #@! TO.C,SW1*
X150149560Y-128810880D03*
X154649560Y-128810880D03*
X150149560Y-135310880D03*
X154649560Y-135310880D03*
G04 #@! TD*
D11*
G04 #@! TO.C,C1*
X151130000Y-94504000D03*
X151130000Y-96504000D03*
G04 #@! TD*
G04 #@! TO.C,C2*
X153670000Y-96504000D03*
X153670000Y-94504000D03*
G04 #@! TD*
D12*
G04 #@! TO.C,D8*
X142240000Y-72390000D03*
D13*
X142240000Y-74930000D03*
G04 #@! TD*
G04 #@! TO.C,D7*
X142240000Y-62230000D03*
D12*
X142240000Y-59690000D03*
G04 #@! TD*
G04 #@! TO.C,D6*
X121920000Y-72390000D03*
D13*
X121920000Y-74930000D03*
G04 #@! TD*
G04 #@! TO.C,D5*
X121920000Y-62230000D03*
D12*
X121920000Y-59690000D03*
G04 #@! TD*
G04 #@! TO.C,D3*
X182880000Y-72390000D03*
D13*
X182880000Y-74930000D03*
G04 #@! TD*
G04 #@! TO.C,D2*
X162560000Y-74930000D03*
D12*
X162560000Y-72390000D03*
G04 #@! TD*
G04 #@! TO.C,D1*
X162560000Y-59690000D03*
D13*
X162560000Y-62230000D03*
G04 #@! TD*
G04 #@! TO.C,D4*
X182880000Y-62230000D03*
D12*
X182880000Y-59690000D03*
G04 #@! TD*
D14*
G04 #@! TO.C,RV3*
X147040000Y-142240000D03*
D13*
X139740000Y-149740010D03*
X142280000Y-149740010D03*
X144740000Y-149740010D03*
D14*
X137440000Y-142240000D03*
G04 #@! TD*
G04 #@! TO.C,RV5*
X117120000Y-142240000D03*
D13*
X124420000Y-149740010D03*
X121960000Y-149740010D03*
X119420000Y-149740010D03*
D14*
X126720000Y-142240000D03*
G04 #@! TD*
G04 #@! TO.C,RV1*
X167360000Y-121920000D03*
D13*
X160060000Y-129420010D03*
X162600000Y-129420010D03*
X165060000Y-129420010D03*
D14*
X157760000Y-121920000D03*
G04 #@! TD*
G04 #@! TO.C,RV2*
X157760000Y-142240000D03*
D13*
X165060000Y-149740010D03*
X162600000Y-149740010D03*
X160060000Y-149740010D03*
D14*
X167360000Y-142240000D03*
G04 #@! TD*
G04 #@! TO.C,RV4*
X147040000Y-121920000D03*
D13*
X139740000Y-129420010D03*
X142280000Y-129420010D03*
X144740000Y-129420010D03*
D14*
X137440000Y-121920000D03*
G04 #@! TD*
G04 #@! TO.C,RV6*
X117120000Y-121920000D03*
D13*
X124420000Y-129420010D03*
X121960000Y-129420010D03*
X119420000Y-129420010D03*
D14*
X126720000Y-121920000D03*
G04 #@! TD*
G04 #@! TO.C,RV7*
X187680000Y-121920000D03*
D13*
X180380000Y-129420010D03*
X182920000Y-129420010D03*
X185380000Y-129420010D03*
D14*
X178080000Y-121920000D03*
G04 #@! TD*
G04 #@! TO.C,RV8*
X178080000Y-142240000D03*
D13*
X185380000Y-149740010D03*
X182920000Y-149740010D03*
X180380000Y-149740010D03*
D14*
X187680000Y-142240000D03*
G04 #@! TD*
D15*
G04 #@! TO.C,SW2*
X142240000Y-108840000D03*
X142240000Y-104140000D03*
X142240000Y-99440000D03*
G04 #@! TD*
G04 #@! TO.C,SW3*
X142240000Y-81660000D03*
X142240000Y-86360000D03*
X142240000Y-91060000D03*
G04 #@! TD*
G04 #@! TO.C,SW4*
X121838000Y-108714000D03*
X121838000Y-104014000D03*
X121838000Y-99314000D03*
G04 #@! TD*
G04 #@! TO.C,SW5*
X121920000Y-81660000D03*
X121920000Y-86360000D03*
X121920000Y-91060000D03*
G04 #@! TD*
G04 #@! TO.C,SW7*
X182880000Y-108840000D03*
X182880000Y-104140000D03*
X182880000Y-99440000D03*
G04 #@! TD*
G04 #@! TO.C,SW8*
X162560000Y-99440000D03*
X162560000Y-104140000D03*
X162560000Y-108840000D03*
G04 #@! TD*
G04 #@! TO.C,SW9*
X162560000Y-91060000D03*
X162560000Y-86360000D03*
X162560000Y-81660000D03*
G04 #@! TD*
G04 #@! TO.C,SW6*
X182880000Y-81660000D03*
X182880000Y-86360000D03*
X182880000Y-91060000D03*
G04 #@! TD*
D16*
G04 #@! TO.C,J3*
X132080000Y-97790000D03*
X132080000Y-95250000D03*
D17*
X132080000Y-92710000D03*
G04 #@! TD*
G04 #@! TO.C,J1*
X130810000Y-69850000D03*
D16*
X133350000Y-69850000D03*
X130810000Y-67310000D03*
X133350000Y-67310000D03*
X130810000Y-64770000D03*
X133350000Y-64770000D03*
G04 #@! TD*
G04 #@! TO.C,J2*
X171450000Y-97790000D03*
X173990000Y-97790000D03*
X171450000Y-95250000D03*
X173990000Y-95250000D03*
X171450000Y-92710000D03*
D17*
X173990000Y-92710000D03*
G04 #@! TD*
M02*
