G04 #@! TF.GenerationSoftware,KiCad,Pcbnew,(5.0.1-3-g963ef8bb5)*
G04 #@! TF.CreationDate,2018-11-04T19:12:54+08:00*
G04 #@! TF.ProjectId,SubSequence,53756253657175656E63652E6B696361,rev?*
G04 #@! TF.SameCoordinates,Original*
G04 #@! TF.FileFunction,Paste,Bot*
G04 #@! TF.FilePolarity,Positive*
%FSLAX46Y46*%
G04 Gerber Fmt 4.6, Leading zero omitted, Abs format (unit mm)*
G04 Created by KiCad (PCBNEW (5.0.1-3-g963ef8bb5)) date 2018 November 04, Sunday 19:12:54*
%MOMM*%
%LPD*%
G01*
G04 APERTURE LIST*
%ADD10C,0.100000*%
%ADD11C,0.975000*%
%ADD12R,1.600000X2.600000*%
%ADD13R,1.250000X1.000000*%
%ADD14R,1.100000X1.100000*%
%ADD15C,0.550000*%
%ADD16R,1.300000X0.700000*%
G04 APERTURE END LIST*
D10*
G04 #@! TO.C,R10*
G36*
X149832142Y-79191174D02*
X149855803Y-79194684D01*
X149879007Y-79200496D01*
X149901529Y-79208554D01*
X149923153Y-79218782D01*
X149943670Y-79231079D01*
X149962883Y-79245329D01*
X149980607Y-79261393D01*
X149996671Y-79279117D01*
X150010921Y-79298330D01*
X150023218Y-79318847D01*
X150033446Y-79340471D01*
X150041504Y-79362993D01*
X150047316Y-79386197D01*
X150050826Y-79409858D01*
X150052000Y-79433750D01*
X150052000Y-79921250D01*
X150050826Y-79945142D01*
X150047316Y-79968803D01*
X150041504Y-79992007D01*
X150033446Y-80014529D01*
X150023218Y-80036153D01*
X150010921Y-80056670D01*
X149996671Y-80075883D01*
X149980607Y-80093607D01*
X149962883Y-80109671D01*
X149943670Y-80123921D01*
X149923153Y-80136218D01*
X149901529Y-80146446D01*
X149879007Y-80154504D01*
X149855803Y-80160316D01*
X149832142Y-80163826D01*
X149808250Y-80165000D01*
X148895750Y-80165000D01*
X148871858Y-80163826D01*
X148848197Y-80160316D01*
X148824993Y-80154504D01*
X148802471Y-80146446D01*
X148780847Y-80136218D01*
X148760330Y-80123921D01*
X148741117Y-80109671D01*
X148723393Y-80093607D01*
X148707329Y-80075883D01*
X148693079Y-80056670D01*
X148680782Y-80036153D01*
X148670554Y-80014529D01*
X148662496Y-79992007D01*
X148656684Y-79968803D01*
X148653174Y-79945142D01*
X148652000Y-79921250D01*
X148652000Y-79433750D01*
X148653174Y-79409858D01*
X148656684Y-79386197D01*
X148662496Y-79362993D01*
X148670554Y-79340471D01*
X148680782Y-79318847D01*
X148693079Y-79298330D01*
X148707329Y-79279117D01*
X148723393Y-79261393D01*
X148741117Y-79245329D01*
X148760330Y-79231079D01*
X148780847Y-79218782D01*
X148802471Y-79208554D01*
X148824993Y-79200496D01*
X148848197Y-79194684D01*
X148871858Y-79191174D01*
X148895750Y-79190000D01*
X149808250Y-79190000D01*
X149832142Y-79191174D01*
X149832142Y-79191174D01*
G37*
D11*
X149352000Y-79677500D03*
D10*
G36*
X149832142Y-77316174D02*
X149855803Y-77319684D01*
X149879007Y-77325496D01*
X149901529Y-77333554D01*
X149923153Y-77343782D01*
X149943670Y-77356079D01*
X149962883Y-77370329D01*
X149980607Y-77386393D01*
X149996671Y-77404117D01*
X150010921Y-77423330D01*
X150023218Y-77443847D01*
X150033446Y-77465471D01*
X150041504Y-77487993D01*
X150047316Y-77511197D01*
X150050826Y-77534858D01*
X150052000Y-77558750D01*
X150052000Y-78046250D01*
X150050826Y-78070142D01*
X150047316Y-78093803D01*
X150041504Y-78117007D01*
X150033446Y-78139529D01*
X150023218Y-78161153D01*
X150010921Y-78181670D01*
X149996671Y-78200883D01*
X149980607Y-78218607D01*
X149962883Y-78234671D01*
X149943670Y-78248921D01*
X149923153Y-78261218D01*
X149901529Y-78271446D01*
X149879007Y-78279504D01*
X149855803Y-78285316D01*
X149832142Y-78288826D01*
X149808250Y-78290000D01*
X148895750Y-78290000D01*
X148871858Y-78288826D01*
X148848197Y-78285316D01*
X148824993Y-78279504D01*
X148802471Y-78271446D01*
X148780847Y-78261218D01*
X148760330Y-78248921D01*
X148741117Y-78234671D01*
X148723393Y-78218607D01*
X148707329Y-78200883D01*
X148693079Y-78181670D01*
X148680782Y-78161153D01*
X148670554Y-78139529D01*
X148662496Y-78117007D01*
X148656684Y-78093803D01*
X148653174Y-78070142D01*
X148652000Y-78046250D01*
X148652000Y-77558750D01*
X148653174Y-77534858D01*
X148656684Y-77511197D01*
X148662496Y-77487993D01*
X148670554Y-77465471D01*
X148680782Y-77443847D01*
X148693079Y-77423330D01*
X148707329Y-77404117D01*
X148723393Y-77386393D01*
X148741117Y-77370329D01*
X148760330Y-77356079D01*
X148780847Y-77343782D01*
X148802471Y-77333554D01*
X148824993Y-77325496D01*
X148848197Y-77319684D01*
X148871858Y-77316174D01*
X148895750Y-77315000D01*
X149808250Y-77315000D01*
X149832142Y-77316174D01*
X149832142Y-77316174D01*
G37*
D11*
X149352000Y-77802500D03*
G04 #@! TD*
D10*
G04 #@! TO.C,R11*
G36*
X183360142Y-121863174D02*
X183383803Y-121866684D01*
X183407007Y-121872496D01*
X183429529Y-121880554D01*
X183451153Y-121890782D01*
X183471670Y-121903079D01*
X183490883Y-121917329D01*
X183508607Y-121933393D01*
X183524671Y-121951117D01*
X183538921Y-121970330D01*
X183551218Y-121990847D01*
X183561446Y-122012471D01*
X183569504Y-122034993D01*
X183575316Y-122058197D01*
X183578826Y-122081858D01*
X183580000Y-122105750D01*
X183580000Y-122593250D01*
X183578826Y-122617142D01*
X183575316Y-122640803D01*
X183569504Y-122664007D01*
X183561446Y-122686529D01*
X183551218Y-122708153D01*
X183538921Y-122728670D01*
X183524671Y-122747883D01*
X183508607Y-122765607D01*
X183490883Y-122781671D01*
X183471670Y-122795921D01*
X183451153Y-122808218D01*
X183429529Y-122818446D01*
X183407007Y-122826504D01*
X183383803Y-122832316D01*
X183360142Y-122835826D01*
X183336250Y-122837000D01*
X182423750Y-122837000D01*
X182399858Y-122835826D01*
X182376197Y-122832316D01*
X182352993Y-122826504D01*
X182330471Y-122818446D01*
X182308847Y-122808218D01*
X182288330Y-122795921D01*
X182269117Y-122781671D01*
X182251393Y-122765607D01*
X182235329Y-122747883D01*
X182221079Y-122728670D01*
X182208782Y-122708153D01*
X182198554Y-122686529D01*
X182190496Y-122664007D01*
X182184684Y-122640803D01*
X182181174Y-122617142D01*
X182180000Y-122593250D01*
X182180000Y-122105750D01*
X182181174Y-122081858D01*
X182184684Y-122058197D01*
X182190496Y-122034993D01*
X182198554Y-122012471D01*
X182208782Y-121990847D01*
X182221079Y-121970330D01*
X182235329Y-121951117D01*
X182251393Y-121933393D01*
X182269117Y-121917329D01*
X182288330Y-121903079D01*
X182308847Y-121890782D01*
X182330471Y-121880554D01*
X182352993Y-121872496D01*
X182376197Y-121866684D01*
X182399858Y-121863174D01*
X182423750Y-121862000D01*
X183336250Y-121862000D01*
X183360142Y-121863174D01*
X183360142Y-121863174D01*
G37*
D11*
X182880000Y-122349500D03*
D10*
G36*
X183360142Y-119988174D02*
X183383803Y-119991684D01*
X183407007Y-119997496D01*
X183429529Y-120005554D01*
X183451153Y-120015782D01*
X183471670Y-120028079D01*
X183490883Y-120042329D01*
X183508607Y-120058393D01*
X183524671Y-120076117D01*
X183538921Y-120095330D01*
X183551218Y-120115847D01*
X183561446Y-120137471D01*
X183569504Y-120159993D01*
X183575316Y-120183197D01*
X183578826Y-120206858D01*
X183580000Y-120230750D01*
X183580000Y-120718250D01*
X183578826Y-120742142D01*
X183575316Y-120765803D01*
X183569504Y-120789007D01*
X183561446Y-120811529D01*
X183551218Y-120833153D01*
X183538921Y-120853670D01*
X183524671Y-120872883D01*
X183508607Y-120890607D01*
X183490883Y-120906671D01*
X183471670Y-120920921D01*
X183451153Y-120933218D01*
X183429529Y-120943446D01*
X183407007Y-120951504D01*
X183383803Y-120957316D01*
X183360142Y-120960826D01*
X183336250Y-120962000D01*
X182423750Y-120962000D01*
X182399858Y-120960826D01*
X182376197Y-120957316D01*
X182352993Y-120951504D01*
X182330471Y-120943446D01*
X182308847Y-120933218D01*
X182288330Y-120920921D01*
X182269117Y-120906671D01*
X182251393Y-120890607D01*
X182235329Y-120872883D01*
X182221079Y-120853670D01*
X182208782Y-120833153D01*
X182198554Y-120811529D01*
X182190496Y-120789007D01*
X182184684Y-120765803D01*
X182181174Y-120742142D01*
X182180000Y-120718250D01*
X182180000Y-120230750D01*
X182181174Y-120206858D01*
X182184684Y-120183197D01*
X182190496Y-120159993D01*
X182198554Y-120137471D01*
X182208782Y-120115847D01*
X182221079Y-120095330D01*
X182235329Y-120076117D01*
X182251393Y-120058393D01*
X182269117Y-120042329D01*
X182288330Y-120028079D01*
X182308847Y-120015782D01*
X182330471Y-120005554D01*
X182352993Y-119997496D01*
X182376197Y-119991684D01*
X182399858Y-119988174D01*
X182423750Y-119987000D01*
X183336250Y-119987000D01*
X183360142Y-119988174D01*
X183360142Y-119988174D01*
G37*
D11*
X182880000Y-120474500D03*
G04 #@! TD*
D12*
G04 #@! TO.C,C4*
X152400000Y-69110000D03*
X152400000Y-65510000D03*
G04 #@! TD*
D13*
G04 #@! TO.C,C3*
X157480000Y-103140000D03*
X157480000Y-105140000D03*
G04 #@! TD*
D14*
G04 #@! TO.C,D15*
X158750000Y-72260000D03*
X158750000Y-75060000D03*
G04 #@! TD*
G04 #@! TO.C,D14*
X179070000Y-75060000D03*
X179070000Y-72260000D03*
G04 #@! TD*
G04 #@! TO.C,D13*
X179070000Y-59560000D03*
X179070000Y-62360000D03*
G04 #@! TD*
G04 #@! TO.C,D12*
X118110000Y-62360000D03*
X118110000Y-59560000D03*
G04 #@! TD*
G04 #@! TO.C,D11*
X118110000Y-72260000D03*
X118110000Y-75060000D03*
G04 #@! TD*
G04 #@! TO.C,D10*
X138430000Y-62360000D03*
X138430000Y-59560000D03*
G04 #@! TD*
G04 #@! TO.C,D9*
X138430000Y-72260000D03*
X138430000Y-75060000D03*
G04 #@! TD*
G04 #@! TO.C,D16*
X158750000Y-62360000D03*
X158750000Y-59560000D03*
G04 #@! TD*
D15*
G04 #@! TO.C,U1*
X147414897Y-96275305D03*
D10*
G36*
X147786128Y-95515165D02*
X148175037Y-95904074D01*
X147043666Y-97035445D01*
X146654757Y-96646536D01*
X147786128Y-95515165D01*
X147786128Y-95515165D01*
G37*
D15*
X147980583Y-96840990D03*
D10*
G36*
X148351814Y-96080850D02*
X148740723Y-96469759D01*
X147609352Y-97601130D01*
X147220443Y-97212221D01*
X148351814Y-96080850D01*
X148351814Y-96080850D01*
G37*
D15*
X148546268Y-97406676D03*
D10*
G36*
X148917499Y-96646536D02*
X149306408Y-97035445D01*
X148175037Y-98166816D01*
X147786128Y-97777907D01*
X148917499Y-96646536D01*
X148917499Y-96646536D01*
G37*
D15*
X149111953Y-97972361D03*
D10*
G36*
X149483184Y-97212221D02*
X149872093Y-97601130D01*
X148740722Y-98732501D01*
X148351813Y-98343592D01*
X149483184Y-97212221D01*
X149483184Y-97212221D01*
G37*
D15*
X149677639Y-98538047D03*
D10*
G36*
X150048870Y-97777907D02*
X150437779Y-98166816D01*
X149306408Y-99298187D01*
X148917499Y-98909278D01*
X150048870Y-97777907D01*
X150048870Y-97777907D01*
G37*
D15*
X150243324Y-99103732D03*
D10*
G36*
X150614555Y-98343592D02*
X151003464Y-98732501D01*
X149872093Y-99863872D01*
X149483184Y-99474963D01*
X150614555Y-98343592D01*
X150614555Y-98343592D01*
G37*
D15*
X150809010Y-99669417D03*
D10*
G36*
X151180241Y-98909277D02*
X151569150Y-99298186D01*
X150437779Y-100429557D01*
X150048870Y-100040648D01*
X151180241Y-98909277D01*
X151180241Y-98909277D01*
G37*
D15*
X151374695Y-100235103D03*
D10*
G36*
X151745926Y-99474963D02*
X152134835Y-99863872D01*
X151003464Y-100995243D01*
X150614555Y-100606334D01*
X151745926Y-99474963D01*
X151745926Y-99474963D01*
G37*
D15*
X153425305Y-100235103D03*
D10*
G36*
X152665165Y-99863872D02*
X153054074Y-99474963D01*
X154185445Y-100606334D01*
X153796536Y-100995243D01*
X152665165Y-99863872D01*
X152665165Y-99863872D01*
G37*
D15*
X153990990Y-99669417D03*
D10*
G36*
X153230850Y-99298186D02*
X153619759Y-98909277D01*
X154751130Y-100040648D01*
X154362221Y-100429557D01*
X153230850Y-99298186D01*
X153230850Y-99298186D01*
G37*
D15*
X154556676Y-99103732D03*
D10*
G36*
X153796536Y-98732501D02*
X154185445Y-98343592D01*
X155316816Y-99474963D01*
X154927907Y-99863872D01*
X153796536Y-98732501D01*
X153796536Y-98732501D01*
G37*
D15*
X155122361Y-98538047D03*
D10*
G36*
X154362221Y-98166816D02*
X154751130Y-97777907D01*
X155882501Y-98909278D01*
X155493592Y-99298187D01*
X154362221Y-98166816D01*
X154362221Y-98166816D01*
G37*
D15*
X155688047Y-97972361D03*
D10*
G36*
X154927907Y-97601130D02*
X155316816Y-97212221D01*
X156448187Y-98343592D01*
X156059278Y-98732501D01*
X154927907Y-97601130D01*
X154927907Y-97601130D01*
G37*
D15*
X156253732Y-97406676D03*
D10*
G36*
X155493592Y-97035445D02*
X155882501Y-96646536D01*
X157013872Y-97777907D01*
X156624963Y-98166816D01*
X155493592Y-97035445D01*
X155493592Y-97035445D01*
G37*
D15*
X156819417Y-96840990D03*
D10*
G36*
X156059277Y-96469759D02*
X156448186Y-96080850D01*
X157579557Y-97212221D01*
X157190648Y-97601130D01*
X156059277Y-96469759D01*
X156059277Y-96469759D01*
G37*
D15*
X157385103Y-96275305D03*
D10*
G36*
X156624963Y-95904074D02*
X157013872Y-95515165D01*
X158145243Y-96646536D01*
X157756334Y-97035445D01*
X156624963Y-95904074D01*
X156624963Y-95904074D01*
G37*
D15*
X157385103Y-94224695D03*
D10*
G36*
X157756334Y-93464555D02*
X158145243Y-93853464D01*
X157013872Y-94984835D01*
X156624963Y-94595926D01*
X157756334Y-93464555D01*
X157756334Y-93464555D01*
G37*
D15*
X156819417Y-93659010D03*
D10*
G36*
X157190648Y-92898870D02*
X157579557Y-93287779D01*
X156448186Y-94419150D01*
X156059277Y-94030241D01*
X157190648Y-92898870D01*
X157190648Y-92898870D01*
G37*
D15*
X156253732Y-93093324D03*
D10*
G36*
X156624963Y-92333184D02*
X157013872Y-92722093D01*
X155882501Y-93853464D01*
X155493592Y-93464555D01*
X156624963Y-92333184D01*
X156624963Y-92333184D01*
G37*
D15*
X155688047Y-92527639D03*
D10*
G36*
X156059278Y-91767499D02*
X156448187Y-92156408D01*
X155316816Y-93287779D01*
X154927907Y-92898870D01*
X156059278Y-91767499D01*
X156059278Y-91767499D01*
G37*
D15*
X155122361Y-91961953D03*
D10*
G36*
X155493592Y-91201813D02*
X155882501Y-91590722D01*
X154751130Y-92722093D01*
X154362221Y-92333184D01*
X155493592Y-91201813D01*
X155493592Y-91201813D01*
G37*
D15*
X154556676Y-91396268D03*
D10*
G36*
X154927907Y-90636128D02*
X155316816Y-91025037D01*
X154185445Y-92156408D01*
X153796536Y-91767499D01*
X154927907Y-90636128D01*
X154927907Y-90636128D01*
G37*
D15*
X153990990Y-90830583D03*
D10*
G36*
X154362221Y-90070443D02*
X154751130Y-90459352D01*
X153619759Y-91590723D01*
X153230850Y-91201814D01*
X154362221Y-90070443D01*
X154362221Y-90070443D01*
G37*
D15*
X153425305Y-90264897D03*
D10*
G36*
X153796536Y-89504757D02*
X154185445Y-89893666D01*
X153054074Y-91025037D01*
X152665165Y-90636128D01*
X153796536Y-89504757D01*
X153796536Y-89504757D01*
G37*
D15*
X151374695Y-90264897D03*
D10*
G36*
X150614555Y-89893666D02*
X151003464Y-89504757D01*
X152134835Y-90636128D01*
X151745926Y-91025037D01*
X150614555Y-89893666D01*
X150614555Y-89893666D01*
G37*
D15*
X150809010Y-90830583D03*
D10*
G36*
X150048870Y-90459352D02*
X150437779Y-90070443D01*
X151569150Y-91201814D01*
X151180241Y-91590723D01*
X150048870Y-90459352D01*
X150048870Y-90459352D01*
G37*
D15*
X150243324Y-91396268D03*
D10*
G36*
X149483184Y-91025037D02*
X149872093Y-90636128D01*
X151003464Y-91767499D01*
X150614555Y-92156408D01*
X149483184Y-91025037D01*
X149483184Y-91025037D01*
G37*
D15*
X149677639Y-91961953D03*
D10*
G36*
X148917499Y-91590722D02*
X149306408Y-91201813D01*
X150437779Y-92333184D01*
X150048870Y-92722093D01*
X148917499Y-91590722D01*
X148917499Y-91590722D01*
G37*
D15*
X149111953Y-92527639D03*
D10*
G36*
X148351813Y-92156408D02*
X148740722Y-91767499D01*
X149872093Y-92898870D01*
X149483184Y-93287779D01*
X148351813Y-92156408D01*
X148351813Y-92156408D01*
G37*
D15*
X148546268Y-93093324D03*
D10*
G36*
X147786128Y-92722093D02*
X148175037Y-92333184D01*
X149306408Y-93464555D01*
X148917499Y-93853464D01*
X147786128Y-92722093D01*
X147786128Y-92722093D01*
G37*
D15*
X147980583Y-93659010D03*
D10*
G36*
X147220443Y-93287779D02*
X147609352Y-92898870D01*
X148740723Y-94030241D01*
X148351814Y-94419150D01*
X147220443Y-93287779D01*
X147220443Y-93287779D01*
G37*
D15*
X147414897Y-94224695D03*
D10*
G36*
X146654757Y-93853464D02*
X147043666Y-93464555D01*
X148175037Y-94595926D01*
X147786128Y-94984835D01*
X146654757Y-93853464D01*
X146654757Y-93853464D01*
G37*
G04 #@! TD*
D16*
G04 #@! TO.C,R2*
X166370000Y-61910000D03*
X166370000Y-60010000D03*
G04 #@! TD*
G04 #@! TO.C,R5*
X186690000Y-60010000D03*
X186690000Y-61910000D03*
G04 #@! TD*
G04 #@! TO.C,R6*
X125730000Y-61910000D03*
X125730000Y-60010000D03*
G04 #@! TD*
G04 #@! TO.C,R7*
X125730000Y-72710000D03*
X125730000Y-74610000D03*
G04 #@! TD*
G04 #@! TO.C,R8*
X146050000Y-61910000D03*
X146050000Y-60010000D03*
G04 #@! TD*
G04 #@! TO.C,R9*
X146050000Y-72710000D03*
X146050000Y-74610000D03*
G04 #@! TD*
G04 #@! TO.C,R4*
X186690000Y-74610000D03*
X186690000Y-72710000D03*
G04 #@! TD*
G04 #@! TO.C,R3*
X166370000Y-72710000D03*
X166370000Y-74610000D03*
G04 #@! TD*
G04 #@! TO.C,R1*
X152420320Y-131112220D03*
X152420320Y-133012220D03*
G04 #@! TD*
M02*
