G04 #@! TF.GenerationSoftware,KiCad,Pcbnew,5.0.0-fee4fd1~66~ubuntu16.04.1*
G04 #@! TF.CreationDate,2018-10-02T23:40:20+08:00*
G04 #@! TF.ProjectId,SubSequence,53756253657175656E63652E6B696361,rev?*
G04 #@! TF.SameCoordinates,Original*
G04 #@! TF.FileFunction,Legend,Bot*
G04 #@! TF.FilePolarity,Positive*
%FSLAX46Y46*%
G04 Gerber Fmt 4.6, Leading zero omitted, Abs format (unit mm)*
G04 Created by KiCad (PCBNEW 5.0.0-fee4fd1~66~ubuntu16.04.1) date Tue Oct  2 23:40:20 2018*
%MOMM*%
%LPD*%
G01*
G04 APERTURE LIST*
%ADD10C,0.300000*%
%ADD11C,0.120000*%
%ADD12C,0.150000*%
G04 APERTURE END LIST*
D10*
X190670571Y-131893714D02*
X189956285Y-131393714D01*
X190670571Y-131036571D02*
X189170571Y-131036571D01*
X189170571Y-131608000D01*
X189242000Y-131750857D01*
X189313428Y-131822285D01*
X189456285Y-131893714D01*
X189670571Y-131893714D01*
X189813428Y-131822285D01*
X189884857Y-131750857D01*
X189956285Y-131608000D01*
X189956285Y-131036571D01*
X190599142Y-133108000D02*
X190670571Y-132965142D01*
X190670571Y-132679428D01*
X190599142Y-132536571D01*
X190456285Y-132465142D01*
X189884857Y-132465142D01*
X189742000Y-132536571D01*
X189670571Y-132679428D01*
X189670571Y-132965142D01*
X189742000Y-133108000D01*
X189884857Y-133179428D01*
X190027714Y-133179428D01*
X190170571Y-132465142D01*
X189670571Y-133679428D02*
X190670571Y-134036571D01*
X189670571Y-134393714D01*
X190242000Y-136036571D02*
X190242000Y-136750857D01*
X190670571Y-135893714D02*
X189170571Y-136393714D01*
X190670571Y-136893714D01*
X189527714Y-79586571D02*
X189456285Y-79443714D01*
X189456285Y-79158000D01*
X189527714Y-79015142D01*
X189670571Y-78872285D01*
X189813428Y-78800857D01*
X190099142Y-78800857D01*
X190242000Y-78872285D01*
X190384857Y-79015142D01*
X190456285Y-79158000D01*
X190456285Y-79443714D01*
X190384857Y-79586571D01*
X188956285Y-79300857D02*
X189027714Y-78943714D01*
X189242000Y-78586571D01*
X189599142Y-78372285D01*
X189956285Y-78300857D01*
X190313428Y-78372285D01*
X190670571Y-78586571D01*
X190884857Y-78943714D01*
X190956285Y-79300857D01*
X190884857Y-79658000D01*
X190670571Y-80015142D01*
X190313428Y-80229428D01*
X189956285Y-80300857D01*
X189599142Y-80229428D01*
X189242000Y-80015142D01*
X189027714Y-79658000D01*
X188956285Y-79300857D01*
X190670571Y-82086571D02*
X189170571Y-82086571D01*
X190242000Y-82586571D01*
X189170571Y-83086571D01*
X190670571Y-83086571D01*
X190670571Y-84443714D02*
X189884857Y-84443714D01*
X189742000Y-84372285D01*
X189670571Y-84229428D01*
X189670571Y-83943714D01*
X189742000Y-83800857D01*
X190599142Y-84443714D02*
X190670571Y-84300857D01*
X190670571Y-83943714D01*
X190599142Y-83800857D01*
X190456285Y-83729428D01*
X190313428Y-83729428D01*
X190170571Y-83800857D01*
X190099142Y-83943714D01*
X190099142Y-84300857D01*
X190027714Y-84443714D01*
X190670571Y-85157999D02*
X189670571Y-85157999D01*
X189956285Y-85157999D02*
X189813428Y-85229428D01*
X189742000Y-85300857D01*
X189670571Y-85443714D01*
X189670571Y-85586571D01*
X190670571Y-86729428D02*
X189884857Y-86729428D01*
X189742000Y-86657999D01*
X189670571Y-86515142D01*
X189670571Y-86229428D01*
X189742000Y-86086571D01*
X190599142Y-86729428D02*
X190670571Y-86586571D01*
X190670571Y-86229428D01*
X190599142Y-86086571D01*
X190456285Y-86015142D01*
X190313428Y-86015142D01*
X190170571Y-86086571D01*
X190099142Y-86229428D01*
X190099142Y-86586571D01*
X190027714Y-86729428D01*
X189670571Y-87443714D02*
X190670571Y-87443714D01*
X189813428Y-87443714D02*
X189742000Y-87515142D01*
X189670571Y-87657999D01*
X189670571Y-87872285D01*
X189742000Y-88015142D01*
X189884857Y-88086571D01*
X190670571Y-88086571D01*
X189670571Y-89443714D02*
X190884857Y-89443714D01*
X191027714Y-89372285D01*
X191099142Y-89300857D01*
X191170571Y-89157999D01*
X191170571Y-88943714D01*
X191099142Y-88800857D01*
X190599142Y-89443714D02*
X190670571Y-89300857D01*
X190670571Y-89015142D01*
X190599142Y-88872285D01*
X190527714Y-88800857D01*
X190384857Y-88729428D01*
X189956285Y-88729428D01*
X189813428Y-88800857D01*
X189742000Y-88872285D01*
X189670571Y-89015142D01*
X189670571Y-89300857D01*
X189742000Y-89443714D01*
X190670571Y-90157999D02*
X189670571Y-90157999D01*
X189170571Y-90157999D02*
X189242000Y-90086571D01*
X189313428Y-90157999D01*
X189242000Y-90229428D01*
X189170571Y-90157999D01*
X189313428Y-90157999D01*
X190599142Y-90800857D02*
X190670571Y-90943714D01*
X190670571Y-91229428D01*
X190599142Y-91372285D01*
X190456285Y-91443714D01*
X190384857Y-91443714D01*
X190242000Y-91372285D01*
X190170571Y-91229428D01*
X190170571Y-91015142D01*
X190099142Y-90872285D01*
X189956285Y-90800857D01*
X189884857Y-90800857D01*
X189742000Y-90872285D01*
X189670571Y-91015142D01*
X189670571Y-91229428D01*
X189742000Y-91372285D01*
X189670571Y-91872285D02*
X189670571Y-92443714D01*
X189170571Y-92086571D02*
X190456285Y-92086571D01*
X190599142Y-92157999D01*
X190670571Y-92300857D01*
X190670571Y-92443714D01*
X190670571Y-93157999D02*
X190599142Y-93015142D01*
X190527714Y-92943714D01*
X190384857Y-92872285D01*
X189956285Y-92872285D01*
X189813428Y-92943714D01*
X189742000Y-93015142D01*
X189670571Y-93157999D01*
X189670571Y-93372285D01*
X189742000Y-93515142D01*
X189813428Y-93586571D01*
X189956285Y-93657999D01*
X190384857Y-93657999D01*
X190527714Y-93586571D01*
X190599142Y-93515142D01*
X190670571Y-93372285D01*
X190670571Y-93157999D01*
X189313428Y-95372285D02*
X189242000Y-95443714D01*
X189170571Y-95586571D01*
X189170571Y-95943714D01*
X189242000Y-96086571D01*
X189313428Y-96157999D01*
X189456285Y-96229428D01*
X189599142Y-96229428D01*
X189813428Y-96157999D01*
X190670571Y-95300857D01*
X190670571Y-96229428D01*
X189170571Y-97157999D02*
X189170571Y-97300857D01*
X189242000Y-97443714D01*
X189313428Y-97515142D01*
X189456285Y-97586571D01*
X189742000Y-97657999D01*
X190099142Y-97657999D01*
X190384857Y-97586571D01*
X190527714Y-97515142D01*
X190599142Y-97443714D01*
X190670571Y-97300857D01*
X190670571Y-97157999D01*
X190599142Y-97015142D01*
X190527714Y-96943714D01*
X190384857Y-96872285D01*
X190099142Y-96800857D01*
X189742000Y-96800857D01*
X189456285Y-96872285D01*
X189313428Y-96943714D01*
X189242000Y-97015142D01*
X189170571Y-97157999D01*
X190670571Y-99086571D02*
X190670571Y-98229428D01*
X190670571Y-98657999D02*
X189170571Y-98657999D01*
X189384857Y-98515142D01*
X189527714Y-98372285D01*
X189599142Y-98229428D01*
X189813428Y-99943714D02*
X189742000Y-99800857D01*
X189670571Y-99729428D01*
X189527714Y-99657999D01*
X189456285Y-99657999D01*
X189313428Y-99729428D01*
X189242000Y-99800857D01*
X189170571Y-99943714D01*
X189170571Y-100229428D01*
X189242000Y-100372285D01*
X189313428Y-100443714D01*
X189456285Y-100515142D01*
X189527714Y-100515142D01*
X189670571Y-100443714D01*
X189742000Y-100372285D01*
X189813428Y-100229428D01*
X189813428Y-99943714D01*
X189884857Y-99800857D01*
X189956285Y-99729428D01*
X190099142Y-99657999D01*
X190384857Y-99657999D01*
X190527714Y-99729428D01*
X190599142Y-99800857D01*
X190670571Y-99943714D01*
X190670571Y-100229428D01*
X190599142Y-100372285D01*
X190527714Y-100443714D01*
X190384857Y-100515142D01*
X190099142Y-100515142D01*
X189956285Y-100443714D01*
X189884857Y-100372285D01*
X189813428Y-100229428D01*
X116935047Y-78837619D02*
X117125523Y-79409047D01*
X117125523Y-80361428D01*
X116935047Y-80742380D01*
X116744571Y-80932857D01*
X116363619Y-81123333D01*
X115982666Y-81123333D01*
X115601714Y-80932857D01*
X115411238Y-80742380D01*
X115220761Y-80361428D01*
X115030285Y-79599523D01*
X114839809Y-79218571D01*
X114649333Y-79028095D01*
X114268380Y-78837619D01*
X113887428Y-78837619D01*
X113506476Y-79028095D01*
X113316000Y-79218571D01*
X113125523Y-79599523D01*
X113125523Y-80551904D01*
X113316000Y-81123333D01*
X114458857Y-84551904D02*
X117125523Y-84551904D01*
X114458857Y-82837619D02*
X116554095Y-82837619D01*
X116935047Y-83028095D01*
X117125523Y-83409047D01*
X117125523Y-83980476D01*
X116935047Y-84361428D01*
X116744571Y-84551904D01*
X117125523Y-86456666D02*
X113125523Y-86456666D01*
X114649333Y-86456666D02*
X114458857Y-86837619D01*
X114458857Y-87599523D01*
X114649333Y-87980476D01*
X114839809Y-88170952D01*
X115220761Y-88361428D01*
X116363619Y-88361428D01*
X116744571Y-88170952D01*
X116935047Y-87980476D01*
X117125523Y-87599523D01*
X117125523Y-86837619D01*
X116935047Y-86456666D01*
X116935047Y-89885238D02*
X117125523Y-90456666D01*
X117125523Y-91409047D01*
X116935047Y-91790000D01*
X116744571Y-91980476D01*
X116363619Y-92170952D01*
X115982666Y-92170952D01*
X115601714Y-91980476D01*
X115411238Y-91790000D01*
X115220761Y-91409047D01*
X115030285Y-90647142D01*
X114839809Y-90266190D01*
X114649333Y-90075714D01*
X114268380Y-89885238D01*
X113887428Y-89885238D01*
X113506476Y-90075714D01*
X113316000Y-90266190D01*
X113125523Y-90647142D01*
X113125523Y-91599523D01*
X113316000Y-92170952D01*
X116935047Y-95409047D02*
X117125523Y-95028095D01*
X117125523Y-94266190D01*
X116935047Y-93885238D01*
X116554095Y-93694761D01*
X115030285Y-93694761D01*
X114649333Y-93885238D01*
X114458857Y-94266190D01*
X114458857Y-95028095D01*
X114649333Y-95409047D01*
X115030285Y-95599523D01*
X115411238Y-95599523D01*
X115792190Y-93694761D01*
X114458857Y-99028095D02*
X118458857Y-99028095D01*
X116935047Y-99028095D02*
X117125523Y-98647142D01*
X117125523Y-97885238D01*
X116935047Y-97504285D01*
X116744571Y-97313809D01*
X116363619Y-97123333D01*
X115220761Y-97123333D01*
X114839809Y-97313809D01*
X114649333Y-97504285D01*
X114458857Y-97885238D01*
X114458857Y-98647142D01*
X114649333Y-99028095D01*
X114458857Y-102647142D02*
X117125523Y-102647142D01*
X114458857Y-100932857D02*
X116554095Y-100932857D01*
X116935047Y-101123333D01*
X117125523Y-101504285D01*
X117125523Y-102075714D01*
X116935047Y-102456666D01*
X116744571Y-102647142D01*
X116935047Y-106075714D02*
X117125523Y-105694761D01*
X117125523Y-104932857D01*
X116935047Y-104551904D01*
X116554095Y-104361428D01*
X115030285Y-104361428D01*
X114649333Y-104551904D01*
X114458857Y-104932857D01*
X114458857Y-105694761D01*
X114649333Y-106075714D01*
X115030285Y-106266190D01*
X115411238Y-106266190D01*
X115792190Y-104361428D01*
X114458857Y-107980476D02*
X117125523Y-107980476D01*
X114839809Y-107980476D02*
X114649333Y-108170952D01*
X114458857Y-108551904D01*
X114458857Y-109123333D01*
X114649333Y-109504285D01*
X115030285Y-109694761D01*
X117125523Y-109694761D01*
X116935047Y-113313809D02*
X117125523Y-112932857D01*
X117125523Y-112170952D01*
X116935047Y-111790000D01*
X116744571Y-111599523D01*
X116363619Y-111409047D01*
X115220761Y-111409047D01*
X114839809Y-111599523D01*
X114649333Y-111790000D01*
X114458857Y-112170952D01*
X114458857Y-112932857D01*
X114649333Y-113313809D01*
X116935047Y-116551904D02*
X117125523Y-116170952D01*
X117125523Y-115409047D01*
X116935047Y-115028095D01*
X116554095Y-114837619D01*
X115030285Y-114837619D01*
X114649333Y-115028095D01*
X114458857Y-115409047D01*
X114458857Y-116170952D01*
X114649333Y-116551904D01*
X115030285Y-116742380D01*
X115411238Y-116742380D01*
X115792190Y-114837619D01*
D11*
G04 #@! TO.C,C4*
X150110000Y-65790000D02*
X150880000Y-65020000D01*
X150110000Y-65790000D02*
X150110000Y-69600000D01*
X154690000Y-65790000D02*
X153920000Y-65020000D01*
X154690000Y-65790000D02*
X154690000Y-69600000D01*
X150880000Y-65020000D02*
X151280000Y-65020000D01*
X150110000Y-69600000D02*
X151280000Y-69600000D01*
X154690000Y-69600000D02*
X153520000Y-69600000D01*
X153920000Y-65020000D02*
X153520000Y-65020000D01*
G04 #@! TO.C,C3*
X156630000Y-104640000D02*
X156630000Y-103640000D01*
X158330000Y-103640000D02*
X158330000Y-104640000D01*
G04 #@! TO.C,D15*
X157750000Y-71460000D02*
X159750000Y-71460000D01*
X159750000Y-71460000D02*
X159750000Y-75310000D01*
X157750000Y-71460000D02*
X157750000Y-75310000D01*
G04 #@! TO.C,D14*
X178070000Y-71460000D02*
X178070000Y-75310000D01*
X180070000Y-71460000D02*
X180070000Y-75310000D01*
X178070000Y-71460000D02*
X180070000Y-71460000D01*
G04 #@! TO.C,D13*
X178070000Y-58760000D02*
X180070000Y-58760000D01*
X180070000Y-58760000D02*
X180070000Y-62610000D01*
X178070000Y-58760000D02*
X178070000Y-62610000D01*
G04 #@! TO.C,D12*
X117110000Y-58760000D02*
X117110000Y-62610000D01*
X119110000Y-58760000D02*
X119110000Y-62610000D01*
X117110000Y-58760000D02*
X119110000Y-58760000D01*
G04 #@! TO.C,D11*
X117110000Y-71460000D02*
X119110000Y-71460000D01*
X119110000Y-71460000D02*
X119110000Y-75310000D01*
X117110000Y-71460000D02*
X117110000Y-75310000D01*
G04 #@! TO.C,D10*
X137430000Y-58760000D02*
X137430000Y-62610000D01*
X139430000Y-58760000D02*
X139430000Y-62610000D01*
X137430000Y-58760000D02*
X139430000Y-58760000D01*
G04 #@! TO.C,D9*
X137430000Y-71460000D02*
X139430000Y-71460000D01*
X139430000Y-71460000D02*
X139430000Y-75310000D01*
X137430000Y-71460000D02*
X137430000Y-75310000D01*
G04 #@! TO.C,D16*
X157750000Y-58760000D02*
X157750000Y-62610000D01*
X159750000Y-58760000D02*
X159750000Y-62610000D01*
X157750000Y-58760000D02*
X159750000Y-58760000D01*
D12*
G04 #@! TO.C,U1*
X147432575Y-95090901D02*
X146424948Y-94083274D01*
X152400000Y-100376524D02*
X152170190Y-100146714D01*
X157526524Y-95250000D02*
X157296714Y-95020190D01*
X152400000Y-90123476D02*
X152629810Y-90353286D01*
X147273476Y-95250000D02*
X147503286Y-95479810D01*
X152400000Y-90123476D02*
X152170190Y-90353286D01*
X157526524Y-95250000D02*
X157296714Y-95479810D01*
X152400000Y-100376524D02*
X152629810Y-100146714D01*
X147273476Y-95250000D02*
X147432575Y-95090901D01*
D11*
G04 #@! TO.C,J3*
X133410000Y-91380000D02*
X132080000Y-91380000D01*
X133410000Y-92710000D02*
X133410000Y-91380000D01*
X133410000Y-93980000D02*
X130750000Y-93980000D01*
X130750000Y-93980000D02*
X130750000Y-99120000D01*
X133410000Y-93980000D02*
X133410000Y-99120000D01*
X133410000Y-99120000D02*
X130750000Y-99120000D01*
G04 #@! TO.C,J1*
X129480000Y-63440000D02*
X134680000Y-63440000D01*
X129480000Y-68580000D02*
X129480000Y-63440000D01*
X134680000Y-71180000D02*
X134680000Y-63440000D01*
X129480000Y-68580000D02*
X132080000Y-68580000D01*
X132080000Y-68580000D02*
X132080000Y-71180000D01*
X132080000Y-71180000D02*
X134680000Y-71180000D01*
X129480000Y-69850000D02*
X129480000Y-71180000D01*
X129480000Y-71180000D02*
X130810000Y-71180000D01*
G04 #@! TO.C,J2*
X175320000Y-91380000D02*
X173990000Y-91380000D01*
X175320000Y-92710000D02*
X175320000Y-91380000D01*
X172720000Y-91380000D02*
X170120000Y-91380000D01*
X172720000Y-93980000D02*
X172720000Y-91380000D01*
X175320000Y-93980000D02*
X172720000Y-93980000D01*
X170120000Y-91380000D02*
X170120000Y-99120000D01*
X175320000Y-93980000D02*
X175320000Y-99120000D01*
X175320000Y-99120000D02*
X170120000Y-99120000D01*
G04 #@! TO.C,R2*
X165490000Y-60360000D02*
X165490000Y-61560000D01*
X167250000Y-61560000D02*
X167250000Y-60360000D01*
G04 #@! TO.C,R5*
X187570000Y-61560000D02*
X187570000Y-60360000D01*
X185810000Y-60360000D02*
X185810000Y-61560000D01*
G04 #@! TO.C,R6*
X124850000Y-60360000D02*
X124850000Y-61560000D01*
X126610000Y-61560000D02*
X126610000Y-60360000D01*
G04 #@! TO.C,R7*
X126610000Y-74260000D02*
X126610000Y-73060000D01*
X124850000Y-73060000D02*
X124850000Y-74260000D01*
G04 #@! TO.C,R8*
X145170000Y-60360000D02*
X145170000Y-61560000D01*
X146930000Y-61560000D02*
X146930000Y-60360000D01*
G04 #@! TO.C,R9*
X146930000Y-74260000D02*
X146930000Y-73060000D01*
X145170000Y-73060000D02*
X145170000Y-74260000D01*
G04 #@! TO.C,R4*
X185810000Y-73060000D02*
X185810000Y-74260000D01*
X187570000Y-74260000D02*
X187570000Y-73060000D01*
G04 #@! TO.C,R3*
X167250000Y-74260000D02*
X167250000Y-73060000D01*
X165490000Y-73060000D02*
X165490000Y-74260000D01*
G04 #@! TO.C,R1*
X153300320Y-132662220D02*
X153300320Y-131462220D01*
X151540320Y-131462220D02*
X151540320Y-132662220D01*
G04 #@! TO.C,C4*
D12*
X156297142Y-67143333D02*
X156344761Y-67095714D01*
X156392380Y-66952857D01*
X156392380Y-66857619D01*
X156344761Y-66714761D01*
X156249523Y-66619523D01*
X156154285Y-66571904D01*
X155963809Y-66524285D01*
X155820952Y-66524285D01*
X155630476Y-66571904D01*
X155535238Y-66619523D01*
X155440000Y-66714761D01*
X155392380Y-66857619D01*
X155392380Y-66952857D01*
X155440000Y-67095714D01*
X155487619Y-67143333D01*
X155725714Y-68000476D02*
X156392380Y-68000476D01*
X155344761Y-67762380D02*
X156059047Y-67524285D01*
X156059047Y-68143333D01*
X154481428Y-64149047D02*
X154481428Y-64910952D01*
X154862380Y-64530000D02*
X154100476Y-64530000D01*
G04 #@! TO.C,C3*
X159337142Y-103973333D02*
X159384761Y-103925714D01*
X159432380Y-103782857D01*
X159432380Y-103687619D01*
X159384761Y-103544761D01*
X159289523Y-103449523D01*
X159194285Y-103401904D01*
X159003809Y-103354285D01*
X158860952Y-103354285D01*
X158670476Y-103401904D01*
X158575238Y-103449523D01*
X158480000Y-103544761D01*
X158432380Y-103687619D01*
X158432380Y-103782857D01*
X158480000Y-103925714D01*
X158527619Y-103973333D01*
X158432380Y-104306666D02*
X158432380Y-104925714D01*
X158813333Y-104592380D01*
X158813333Y-104735238D01*
X158860952Y-104830476D01*
X158908571Y-104878095D01*
X159003809Y-104925714D01*
X159241904Y-104925714D01*
X159337142Y-104878095D01*
X159384761Y-104830476D01*
X159432380Y-104735238D01*
X159432380Y-104449523D01*
X159384761Y-104354285D01*
X159337142Y-104306666D01*
G04 #@! TO.C,D15*
X161361380Y-72318714D02*
X160361380Y-72318714D01*
X160361380Y-72556809D01*
X160409000Y-72699666D01*
X160504238Y-72794904D01*
X160599476Y-72842523D01*
X160789952Y-72890142D01*
X160932809Y-72890142D01*
X161123285Y-72842523D01*
X161218523Y-72794904D01*
X161313761Y-72699666D01*
X161361380Y-72556809D01*
X161361380Y-72318714D01*
X161361380Y-73842523D02*
X161361380Y-73271095D01*
X161361380Y-73556809D02*
X160361380Y-73556809D01*
X160504238Y-73461571D01*
X160599476Y-73366333D01*
X160647095Y-73271095D01*
X160361380Y-74747285D02*
X160361380Y-74271095D01*
X160837571Y-74223476D01*
X160789952Y-74271095D01*
X160742333Y-74366333D01*
X160742333Y-74604428D01*
X160789952Y-74699666D01*
X160837571Y-74747285D01*
X160932809Y-74794904D01*
X161170904Y-74794904D01*
X161266142Y-74747285D01*
X161313761Y-74699666D01*
X161361380Y-74604428D01*
X161361380Y-74366333D01*
X161313761Y-74271095D01*
X161266142Y-74223476D01*
G04 #@! TO.C,D14*
X181681380Y-72318714D02*
X180681380Y-72318714D01*
X180681380Y-72556809D01*
X180729000Y-72699666D01*
X180824238Y-72794904D01*
X180919476Y-72842523D01*
X181109952Y-72890142D01*
X181252809Y-72890142D01*
X181443285Y-72842523D01*
X181538523Y-72794904D01*
X181633761Y-72699666D01*
X181681380Y-72556809D01*
X181681380Y-72318714D01*
X181681380Y-73842523D02*
X181681380Y-73271095D01*
X181681380Y-73556809D02*
X180681380Y-73556809D01*
X180824238Y-73461571D01*
X180919476Y-73366333D01*
X180967095Y-73271095D01*
X181014714Y-74699666D02*
X181681380Y-74699666D01*
X180633761Y-74461571D02*
X181348047Y-74223476D01*
X181348047Y-74842523D01*
G04 #@! TO.C,D13*
X181681380Y-59618714D02*
X180681380Y-59618714D01*
X180681380Y-59856809D01*
X180729000Y-59999666D01*
X180824238Y-60094904D01*
X180919476Y-60142523D01*
X181109952Y-60190142D01*
X181252809Y-60190142D01*
X181443285Y-60142523D01*
X181538523Y-60094904D01*
X181633761Y-59999666D01*
X181681380Y-59856809D01*
X181681380Y-59618714D01*
X181681380Y-61142523D02*
X181681380Y-60571095D01*
X181681380Y-60856809D02*
X180681380Y-60856809D01*
X180824238Y-60761571D01*
X180919476Y-60666333D01*
X180967095Y-60571095D01*
X180681380Y-61475857D02*
X180681380Y-62094904D01*
X181062333Y-61761571D01*
X181062333Y-61904428D01*
X181109952Y-61999666D01*
X181157571Y-62047285D01*
X181252809Y-62094904D01*
X181490904Y-62094904D01*
X181586142Y-62047285D01*
X181633761Y-61999666D01*
X181681380Y-61904428D01*
X181681380Y-61618714D01*
X181633761Y-61523476D01*
X181586142Y-61475857D01*
G04 #@! TO.C,D12*
X120721380Y-59618714D02*
X119721380Y-59618714D01*
X119721380Y-59856809D01*
X119769000Y-59999666D01*
X119864238Y-60094904D01*
X119959476Y-60142523D01*
X120149952Y-60190142D01*
X120292809Y-60190142D01*
X120483285Y-60142523D01*
X120578523Y-60094904D01*
X120673761Y-59999666D01*
X120721380Y-59856809D01*
X120721380Y-59618714D01*
X120721380Y-61142523D02*
X120721380Y-60571095D01*
X120721380Y-60856809D02*
X119721380Y-60856809D01*
X119864238Y-60761571D01*
X119959476Y-60666333D01*
X120007095Y-60571095D01*
X119816619Y-61523476D02*
X119769000Y-61571095D01*
X119721380Y-61666333D01*
X119721380Y-61904428D01*
X119769000Y-61999666D01*
X119816619Y-62047285D01*
X119911857Y-62094904D01*
X120007095Y-62094904D01*
X120149952Y-62047285D01*
X120721380Y-61475857D01*
X120721380Y-62094904D01*
G04 #@! TO.C,D11*
X120721380Y-72318714D02*
X119721380Y-72318714D01*
X119721380Y-72556809D01*
X119769000Y-72699666D01*
X119864238Y-72794904D01*
X119959476Y-72842523D01*
X120149952Y-72890142D01*
X120292809Y-72890142D01*
X120483285Y-72842523D01*
X120578523Y-72794904D01*
X120673761Y-72699666D01*
X120721380Y-72556809D01*
X120721380Y-72318714D01*
X120721380Y-73842523D02*
X120721380Y-73271095D01*
X120721380Y-73556809D02*
X119721380Y-73556809D01*
X119864238Y-73461571D01*
X119959476Y-73366333D01*
X120007095Y-73271095D01*
X120721380Y-74794904D02*
X120721380Y-74223476D01*
X120721380Y-74509190D02*
X119721380Y-74509190D01*
X119864238Y-74413952D01*
X119959476Y-74318714D01*
X120007095Y-74223476D01*
G04 #@! TO.C,D10*
X141041380Y-59618714D02*
X140041380Y-59618714D01*
X140041380Y-59856809D01*
X140089000Y-59999666D01*
X140184238Y-60094904D01*
X140279476Y-60142523D01*
X140469952Y-60190142D01*
X140612809Y-60190142D01*
X140803285Y-60142523D01*
X140898523Y-60094904D01*
X140993761Y-59999666D01*
X141041380Y-59856809D01*
X141041380Y-59618714D01*
X141041380Y-61142523D02*
X141041380Y-60571095D01*
X141041380Y-60856809D02*
X140041380Y-60856809D01*
X140184238Y-60761571D01*
X140279476Y-60666333D01*
X140327095Y-60571095D01*
X140041380Y-61761571D02*
X140041380Y-61856809D01*
X140089000Y-61952047D01*
X140136619Y-61999666D01*
X140231857Y-62047285D01*
X140422333Y-62094904D01*
X140660428Y-62094904D01*
X140850904Y-62047285D01*
X140946142Y-61999666D01*
X140993761Y-61952047D01*
X141041380Y-61856809D01*
X141041380Y-61761571D01*
X140993761Y-61666333D01*
X140946142Y-61618714D01*
X140850904Y-61571095D01*
X140660428Y-61523476D01*
X140422333Y-61523476D01*
X140231857Y-61571095D01*
X140136619Y-61618714D01*
X140089000Y-61666333D01*
X140041380Y-61761571D01*
G04 #@! TO.C,D9*
X141041380Y-72794904D02*
X140041380Y-72794904D01*
X140041380Y-73033000D01*
X140089000Y-73175857D01*
X140184238Y-73271095D01*
X140279476Y-73318714D01*
X140469952Y-73366333D01*
X140612809Y-73366333D01*
X140803285Y-73318714D01*
X140898523Y-73271095D01*
X140993761Y-73175857D01*
X141041380Y-73033000D01*
X141041380Y-72794904D01*
X141041380Y-73842523D02*
X141041380Y-74033000D01*
X140993761Y-74128238D01*
X140946142Y-74175857D01*
X140803285Y-74271095D01*
X140612809Y-74318714D01*
X140231857Y-74318714D01*
X140136619Y-74271095D01*
X140089000Y-74223476D01*
X140041380Y-74128238D01*
X140041380Y-73937761D01*
X140089000Y-73842523D01*
X140136619Y-73794904D01*
X140231857Y-73747285D01*
X140469952Y-73747285D01*
X140565190Y-73794904D01*
X140612809Y-73842523D01*
X140660428Y-73937761D01*
X140660428Y-74128238D01*
X140612809Y-74223476D01*
X140565190Y-74271095D01*
X140469952Y-74318714D01*
G04 #@! TO.C,D16*
X161361380Y-59618714D02*
X160361380Y-59618714D01*
X160361380Y-59856809D01*
X160409000Y-59999666D01*
X160504238Y-60094904D01*
X160599476Y-60142523D01*
X160789952Y-60190142D01*
X160932809Y-60190142D01*
X161123285Y-60142523D01*
X161218523Y-60094904D01*
X161313761Y-59999666D01*
X161361380Y-59856809D01*
X161361380Y-59618714D01*
X161361380Y-61142523D02*
X161361380Y-60571095D01*
X161361380Y-60856809D02*
X160361380Y-60856809D01*
X160504238Y-60761571D01*
X160599476Y-60666333D01*
X160647095Y-60571095D01*
X160361380Y-61999666D02*
X160361380Y-61809190D01*
X160409000Y-61713952D01*
X160456619Y-61666333D01*
X160599476Y-61571095D01*
X160789952Y-61523476D01*
X161170904Y-61523476D01*
X161266142Y-61571095D01*
X161313761Y-61618714D01*
X161361380Y-61713952D01*
X161361380Y-61904428D01*
X161313761Y-61999666D01*
X161266142Y-62047285D01*
X161170904Y-62094904D01*
X160932809Y-62094904D01*
X160837571Y-62047285D01*
X160789952Y-61999666D01*
X160742333Y-61904428D01*
X160742333Y-61713952D01*
X160789952Y-61618714D01*
X160837571Y-61571095D01*
X160932809Y-61523476D01*
G04 #@! TO.C,U1*
X157948380Y-98552095D02*
X158757904Y-98552095D01*
X158853142Y-98599714D01*
X158900761Y-98647333D01*
X158948380Y-98742571D01*
X158948380Y-98933047D01*
X158900761Y-99028285D01*
X158853142Y-99075904D01*
X158757904Y-99123523D01*
X157948380Y-99123523D01*
X158948380Y-100123523D02*
X158948380Y-99552095D01*
X158948380Y-99837809D02*
X157948380Y-99837809D01*
X158091238Y-99742571D01*
X158186476Y-99647333D01*
X158234095Y-99552095D01*
G04 #@! TO.C,J3*
X134072380Y-94662666D02*
X134786666Y-94662666D01*
X134929523Y-94615047D01*
X135024761Y-94519809D01*
X135072380Y-94376952D01*
X135072380Y-94281714D01*
X134072380Y-95043619D02*
X134072380Y-95662666D01*
X134453333Y-95329333D01*
X134453333Y-95472190D01*
X134500952Y-95567428D01*
X134548571Y-95615047D01*
X134643809Y-95662666D01*
X134881904Y-95662666D01*
X134977142Y-95615047D01*
X135024761Y-95567428D01*
X135072380Y-95472190D01*
X135072380Y-95186476D01*
X135024761Y-95091238D01*
X134977142Y-95043619D01*
G04 #@! TO.C,J1*
X132413333Y-71632380D02*
X132413333Y-72346666D01*
X132460952Y-72489523D01*
X132556190Y-72584761D01*
X132699047Y-72632380D01*
X132794285Y-72632380D01*
X131413333Y-72632380D02*
X131984761Y-72632380D01*
X131699047Y-72632380D02*
X131699047Y-71632380D01*
X131794285Y-71775238D01*
X131889523Y-71870476D01*
X131984761Y-71918095D01*
G04 #@! TO.C,J2*
X175982380Y-94916666D02*
X176696666Y-94916666D01*
X176839523Y-94869047D01*
X176934761Y-94773809D01*
X176982380Y-94630952D01*
X176982380Y-94535714D01*
X176077619Y-95345238D02*
X176030000Y-95392857D01*
X175982380Y-95488095D01*
X175982380Y-95726190D01*
X176030000Y-95821428D01*
X176077619Y-95869047D01*
X176172857Y-95916666D01*
X176268095Y-95916666D01*
X176410952Y-95869047D01*
X176982380Y-95297619D01*
X176982380Y-95916666D01*
G04 #@! TO.C,R2*
X169236380Y-60793333D02*
X168760190Y-60460000D01*
X169236380Y-60221904D02*
X168236380Y-60221904D01*
X168236380Y-60602857D01*
X168284000Y-60698095D01*
X168331619Y-60745714D01*
X168426857Y-60793333D01*
X168569714Y-60793333D01*
X168664952Y-60745714D01*
X168712571Y-60698095D01*
X168760190Y-60602857D01*
X168760190Y-60221904D01*
X168331619Y-61174285D02*
X168284000Y-61221904D01*
X168236380Y-61317142D01*
X168236380Y-61555238D01*
X168284000Y-61650476D01*
X168331619Y-61698095D01*
X168426857Y-61745714D01*
X168522095Y-61745714D01*
X168664952Y-61698095D01*
X169236380Y-61126666D01*
X169236380Y-61745714D01*
G04 #@! TO.C,R5*
X189556380Y-60793333D02*
X189080190Y-60460000D01*
X189556380Y-60221904D02*
X188556380Y-60221904D01*
X188556380Y-60602857D01*
X188604000Y-60698095D01*
X188651619Y-60745714D01*
X188746857Y-60793333D01*
X188889714Y-60793333D01*
X188984952Y-60745714D01*
X189032571Y-60698095D01*
X189080190Y-60602857D01*
X189080190Y-60221904D01*
X188556380Y-61698095D02*
X188556380Y-61221904D01*
X189032571Y-61174285D01*
X188984952Y-61221904D01*
X188937333Y-61317142D01*
X188937333Y-61555238D01*
X188984952Y-61650476D01*
X189032571Y-61698095D01*
X189127809Y-61745714D01*
X189365904Y-61745714D01*
X189461142Y-61698095D01*
X189508761Y-61650476D01*
X189556380Y-61555238D01*
X189556380Y-61317142D01*
X189508761Y-61221904D01*
X189461142Y-61174285D01*
G04 #@! TO.C,R6*
X128596380Y-60793333D02*
X128120190Y-60460000D01*
X128596380Y-60221904D02*
X127596380Y-60221904D01*
X127596380Y-60602857D01*
X127644000Y-60698095D01*
X127691619Y-60745714D01*
X127786857Y-60793333D01*
X127929714Y-60793333D01*
X128024952Y-60745714D01*
X128072571Y-60698095D01*
X128120190Y-60602857D01*
X128120190Y-60221904D01*
X127596380Y-61650476D02*
X127596380Y-61460000D01*
X127644000Y-61364761D01*
X127691619Y-61317142D01*
X127834476Y-61221904D01*
X128024952Y-61174285D01*
X128405904Y-61174285D01*
X128501142Y-61221904D01*
X128548761Y-61269523D01*
X128596380Y-61364761D01*
X128596380Y-61555238D01*
X128548761Y-61650476D01*
X128501142Y-61698095D01*
X128405904Y-61745714D01*
X128167809Y-61745714D01*
X128072571Y-61698095D01*
X128024952Y-61650476D01*
X127977333Y-61555238D01*
X127977333Y-61364761D01*
X128024952Y-61269523D01*
X128072571Y-61221904D01*
X128167809Y-61174285D01*
G04 #@! TO.C,R7*
X128596380Y-73493333D02*
X128120190Y-73160000D01*
X128596380Y-72921904D02*
X127596380Y-72921904D01*
X127596380Y-73302857D01*
X127644000Y-73398095D01*
X127691619Y-73445714D01*
X127786857Y-73493333D01*
X127929714Y-73493333D01*
X128024952Y-73445714D01*
X128072571Y-73398095D01*
X128120190Y-73302857D01*
X128120190Y-72921904D01*
X127596380Y-73826666D02*
X127596380Y-74493333D01*
X128596380Y-74064761D01*
G04 #@! TO.C,R8*
X148916380Y-60793333D02*
X148440190Y-60460000D01*
X148916380Y-60221904D02*
X147916380Y-60221904D01*
X147916380Y-60602857D01*
X147964000Y-60698095D01*
X148011619Y-60745714D01*
X148106857Y-60793333D01*
X148249714Y-60793333D01*
X148344952Y-60745714D01*
X148392571Y-60698095D01*
X148440190Y-60602857D01*
X148440190Y-60221904D01*
X148344952Y-61364761D02*
X148297333Y-61269523D01*
X148249714Y-61221904D01*
X148154476Y-61174285D01*
X148106857Y-61174285D01*
X148011619Y-61221904D01*
X147964000Y-61269523D01*
X147916380Y-61364761D01*
X147916380Y-61555238D01*
X147964000Y-61650476D01*
X148011619Y-61698095D01*
X148106857Y-61745714D01*
X148154476Y-61745714D01*
X148249714Y-61698095D01*
X148297333Y-61650476D01*
X148344952Y-61555238D01*
X148344952Y-61364761D01*
X148392571Y-61269523D01*
X148440190Y-61221904D01*
X148535428Y-61174285D01*
X148725904Y-61174285D01*
X148821142Y-61221904D01*
X148868761Y-61269523D01*
X148916380Y-61364761D01*
X148916380Y-61555238D01*
X148868761Y-61650476D01*
X148821142Y-61698095D01*
X148725904Y-61745714D01*
X148535428Y-61745714D01*
X148440190Y-61698095D01*
X148392571Y-61650476D01*
X148344952Y-61555238D01*
G04 #@! TO.C,R9*
X148916380Y-73493333D02*
X148440190Y-73160000D01*
X148916380Y-72921904D02*
X147916380Y-72921904D01*
X147916380Y-73302857D01*
X147964000Y-73398095D01*
X148011619Y-73445714D01*
X148106857Y-73493333D01*
X148249714Y-73493333D01*
X148344952Y-73445714D01*
X148392571Y-73398095D01*
X148440190Y-73302857D01*
X148440190Y-72921904D01*
X148916380Y-73969523D02*
X148916380Y-74160000D01*
X148868761Y-74255238D01*
X148821142Y-74302857D01*
X148678285Y-74398095D01*
X148487809Y-74445714D01*
X148106857Y-74445714D01*
X148011619Y-74398095D01*
X147964000Y-74350476D01*
X147916380Y-74255238D01*
X147916380Y-74064761D01*
X147964000Y-73969523D01*
X148011619Y-73921904D01*
X148106857Y-73874285D01*
X148344952Y-73874285D01*
X148440190Y-73921904D01*
X148487809Y-73969523D01*
X148535428Y-74064761D01*
X148535428Y-74255238D01*
X148487809Y-74350476D01*
X148440190Y-74398095D01*
X148344952Y-74445714D01*
G04 #@! TO.C,R4*
X189556380Y-73493333D02*
X189080190Y-73160000D01*
X189556380Y-72921904D02*
X188556380Y-72921904D01*
X188556380Y-73302857D01*
X188604000Y-73398095D01*
X188651619Y-73445714D01*
X188746857Y-73493333D01*
X188889714Y-73493333D01*
X188984952Y-73445714D01*
X189032571Y-73398095D01*
X189080190Y-73302857D01*
X189080190Y-72921904D01*
X188889714Y-74350476D02*
X189556380Y-74350476D01*
X188508761Y-74112380D02*
X189223047Y-73874285D01*
X189223047Y-74493333D01*
G04 #@! TO.C,R3*
X169236380Y-73493333D02*
X168760190Y-73160000D01*
X169236380Y-72921904D02*
X168236380Y-72921904D01*
X168236380Y-73302857D01*
X168284000Y-73398095D01*
X168331619Y-73445714D01*
X168426857Y-73493333D01*
X168569714Y-73493333D01*
X168664952Y-73445714D01*
X168712571Y-73398095D01*
X168760190Y-73302857D01*
X168760190Y-72921904D01*
X168236380Y-73826666D02*
X168236380Y-74445714D01*
X168617333Y-74112380D01*
X168617333Y-74255238D01*
X168664952Y-74350476D01*
X168712571Y-74398095D01*
X168807809Y-74445714D01*
X169045904Y-74445714D01*
X169141142Y-74398095D01*
X169188761Y-74350476D01*
X169236380Y-74255238D01*
X169236380Y-73969523D01*
X169188761Y-73874285D01*
X169141142Y-73826666D01*
G04 #@! TO.C,R1*
X154884380Y-131913333D02*
X154408190Y-131580000D01*
X154884380Y-131341904D02*
X153884380Y-131341904D01*
X153884380Y-131722857D01*
X153932000Y-131818095D01*
X153979619Y-131865714D01*
X154074857Y-131913333D01*
X154217714Y-131913333D01*
X154312952Y-131865714D01*
X154360571Y-131818095D01*
X154408190Y-131722857D01*
X154408190Y-131341904D01*
X154884380Y-132865714D02*
X154884380Y-132294285D01*
X154884380Y-132580000D02*
X153884380Y-132580000D01*
X154027238Y-132484761D01*
X154122476Y-132389523D01*
X154170095Y-132294285D01*
G04 #@! TD*
M02*
